<svg width="16" height="16" viewBox="0 0 16 16" fill="none" xmlns="http://www.w3.org/2000/svg">
<path fill-rule="evenodd" clip-rule="evenodd" d="M12.6079 5.44381C12.6091 5.42797 12.6098 5.41196 12.6098 5.3958C12.6098 5.37964 12.6091 5.36363 12.6079 5.34779V5.32913C12.6078 4.966 12.4625 4.61763 12.2042 4.36078L9.64829 2.00108C9.38984 1.7444 9.0393 1.60018 8.67391 1.6001H3.77869C3.41305 1.6001 3.06238 1.74445 2.80383 2.00139C2.54528 2.25834 2.40002 2.60683 2.40002 2.9702V13.03C2.40002 13.3934 2.54528 13.7419 2.80383 13.9988C3.06238 14.2557 3.41304 14.4001 3.77869 14.4001H8.98752C9.31889 14.4001 9.58752 14.1331 9.58752 13.8038C9.58752 13.4745 9.31889 13.2076 8.98752 13.2076H3.77869C3.73131 13.2076 3.68586 13.1888 3.65235 13.1555C3.61885 13.1222 3.60002 13.0771 3.60002 13.03V2.9702C3.60002 2.92311 3.61885 2.87795 3.65235 2.84465C3.68586 2.81135 3.73131 2.79264 3.77869 2.79264L7.83386 2.83612V4.77879C7.83386 5.14217 7.97911 5.49066 8.23766 5.7476C8.49621 6.00454 8.84688 6.14889 9.21252 6.14889H11.4079V6.13327C11.4079 6.16957 11.4082 6.17559 11.4086 6.18319C11.4093 6.19625 11.4102 6.21399 11.4102 6.3979L11.3977 6.69748C11.3977 7.02679 11.6562 7.30635 11.9875 7.30635C12.3189 7.30635 12.5977 7.02679 12.5977 6.69748L12.6102 5.85895C12.6102 5.84111 12.6094 5.82345 12.6079 5.806V5.44381ZM9.03386 3.25089L10.9487 4.95635H9.21252C9.16514 4.95635 9.11969 4.93764 9.08619 4.90434C9.05268 4.87104 9.03386 4.82588 9.03386 4.77879V3.25089Z" fill="#323338"/>
<path d="M5.13518 7.88076C4.80381 7.88076 4.53518 8.14773 4.53518 8.47704C4.53518 8.80635 4.80381 9.07331 5.13518 9.07331H9.4839C9.81527 9.07331 10.0839 8.80635 10.0839 8.47704C10.0839 8.14773 9.81527 7.88076 9.4839 7.88076H5.13518Z" fill="#323338"/>
<path d="M5.13533 10.4249C4.80396 10.4249 4.53533 10.6918 4.53533 11.0211C4.53533 11.3504 4.80396 11.6174 5.13533 11.6174H6.64649C6.97786 11.6174 7.24649 11.3504 7.24649 11.0211C7.24649 10.6918 6.97786 10.4249 6.64649 10.4249H5.13533Z" fill="#323338"/>
<path d="M14.5329 10.8383L13.0769 10.3816C12.9563 10.3386 12.8529 10.2438 12.8185 10.1232L12.3619 8.66717C12.3102 8.5121 12.1637 8.4001 12 8.4001C11.8363 8.4001 11.6899 8.50348 11.6382 8.66717L11.1816 10.1232C11.1471 10.2438 11.0437 10.3472 10.9231 10.3816L9.4671 10.8383C9.31202 10.8899 9.20002 11.0364 9.20002 11.2001C9.20002 11.3638 9.30341 11.5103 9.4671 11.5619L10.9231 12.0186C11.0437 12.0616 11.1471 12.1564 11.1816 12.277L11.6382 13.733C11.6899 13.8881 11.8363 14.0001 12 14.0001C12.1637 14.0001 12.3102 13.8967 12.3619 13.733L12.8185 12.277C12.8529 12.1564 12.9563 12.053 13.0769 12.0186L14.5329 11.5619C14.688 11.5103 14.8 11.3638 14.8 11.2001C14.8 11.0364 14.6966 10.8899 14.5329 10.8383Z" fill="#323338"/>
</svg>
