<svg width="20" height="20" viewBox="0 0 20 20" fill="none" xmlns="http://www.w3.org/2000/svg">
<path d="M9.95107 2C11.2736 1.99369 11.8096 3.14034 11.9491 3.47949C12.0511 3.72748 12.1183 3.96998 12.162 4.1416C12.2232 4.38196 12.2218 4.3969 12.2431 4.4707C12.456 5.21053 12.6717 6.00471 13.1503 6.61328L13.2411 6.71875C13.6643 7.1795 14.2789 7.37881 14.914 7.53906C15.032 7.56885 15.1535 7.59528 15.3173 7.63184C15.4702 7.66596 15.6541 7.70775 15.8427 7.75977C16.2141 7.86222 16.6933 8.02637 17.1464 8.34473L17.1483 8.3457C17.5183 8.6064 17.779 8.96621 17.9081 9.36426L17.955 9.53711L17.9569 9.54297C18.0501 9.9695 17.9759 10.3327 17.8905 10.5791C17.8508 10.6937 17.8067 10.7878 17.7792 10.8447C17.7654 10.8732 17.7523 10.8996 17.744 10.916C17.7344 10.9351 17.73 10.9439 17.7265 10.9512L17.7216 10.96L17.7177 10.9688C17.5321 11.3372 17.2432 11.5826 16.9257 11.7607C16.6477 11.9166 16.2838 12.057 15.8075 12.2002C15.0645 12.4236 14.2197 12.6167 13.539 13.0977L13.4022 13.2002C13.1124 13.4353 12.9182 13.7438 12.7724 14.0908L12.7118 14.2432C12.5588 14.6559 12.4618 15.1194 12.3544 15.5615C12.234 16.0567 12.1017 16.4857 11.9179 16.8291C11.6829 17.2678 11.368 17.5567 10.9872 17.7402L10.9882 17.7412C10.9845 17.743 10.9803 17.7443 10.9765 17.7461C10.9748 17.7469 10.9732 17.7482 10.9716 17.749L10.9706 17.748C10.8603 17.8012 10.7089 17.8709 10.5263 17.9268L10.4667 17.9443L10.4071 17.958C9.57903 18.1382 8.92008 17.6943 8.83778 17.6455L8.71376 17.5723L8.60536 17.4756C8.3613 17.2581 8.2042 16.995 8.09071 16.7588C7.97233 16.5123 7.85701 16.1996 7.73817 15.7979C7.50157 14.9977 7.29522 14.0847 6.77138 13.4053L6.65517 13.2695C6.14345 12.7256 5.37091 12.5521 4.63173 12.374C4.15627 12.2594 3.76755 12.1506 3.46083 12.0254C3.13421 11.8921 2.7848 11.6938 2.5038 11.3398L2.50282 11.3408L2.40907 11.2236L2.37196 11.1768L2.33778 11.1279C2.05142 10.7052 2.01465 10.2849 2.00282 10.1074L1.99989 10.0576V10.0078C1.99991 9.32528 2.33988 8.69474 2.92177 8.31934L2.94228 8.30664L2.96376 8.29395C3.04697 8.24403 3.12111 8.20692 3.17177 8.18262C3.19704 8.1705 3.22054 8.15958 3.23622 8.15235C3.25477 8.14379 3.26238 8.13996 3.27138 8.13574C3.7661 7.90332 4.3747 7.75289 4.9413 7.57813C5.52373 7.39846 6.10298 7.18254 6.56923 6.80762C6.9014 6.54024 7.10991 6.17562 7.26259 5.76465C7.41511 5.35395 7.5134 4.8931 7.62001 4.45117C7.64592 4.3438 7.74002 3.8658 7.90614 3.46875C8.07413 3.06734 8.48738 2.31138 9.42177 2.06348H9.4247C9.64577 2.00528 9.83922 2.00048 9.93056 2V1.99902C9.93381 1.99898 9.93708 2.00003 9.94032 2C9.94412 1.99999 9.9477 1.99902 9.95107 1.99902V2ZM9.95107 3.49902C9.90289 3.49902 9.85336 3.50135 9.80653 3.51367C9.29532 3.6493 9.18203 4.37166 9.07802 4.80274C8.98547 5.18633 8.86139 5.76868 8.66884 6.28711C8.46557 6.83426 8.13238 7.47542 7.50966 7.97656C6.80814 8.54076 5.99466 8.82325 5.38368 9.01172C4.67211 9.23121 4.27586 9.32109 3.9081 9.49414C3.84939 9.52166 3.79116 9.54653 3.73524 9.58008C3.58204 9.67889 3.49991 9.83414 3.49989 10.0078C3.50659 10.1083 3.52157 10.1999 3.57997 10.2861L3.67372 10.4033C3.80065 10.567 4.05348 10.6919 4.98329 10.916C5.61591 11.0684 6.88823 11.3139 7.76454 12.2588L7.93446 12.457C8.69473 13.4239 8.98217 14.7143 9.17665 15.3721C9.3892 16.0906 9.53089 16.2909 9.60341 16.3555C9.74937 16.4421 9.91284 16.5303 10.0878 16.4922C10.1729 16.4662 10.2519 16.4315 10.3319 16.3926C10.5116 16.3078 10.6678 16.1476 10.8964 15.207C10.9885 14.8281 11.1131 14.2409 11.3056 13.7217C11.5097 13.171 11.8451 12.5262 12.4745 12.0225L12.6591 11.8828C13.5971 11.2147 14.7652 10.9472 15.3759 10.7637C16.2452 10.5023 16.3484 10.3523 16.3778 10.2939C16.445 10.1563 16.5264 10.0251 16.4911 9.86328C16.47 9.7687 16.4081 9.65967 16.2841 9.57227C15.7842 9.22098 15.1226 9.13846 14.5468 8.99317C13.9066 8.83162 12.88 8.5518 12.1259 7.72363L11.9784 7.54981C11.2781 6.66432 10.994 5.55418 10.8017 4.88574C10.6947 4.51429 10.5535 3.49072 9.95107 3.49902Z" fill="#676879"/>
</svg>
