<svg width="20" height="20" viewBox="0 0 20 20" fill="none" xmlns="http://www.w3.org/2000/svg">
<path fill-rule="evenodd" clip-rule="evenodd" d="M11.234 3.01626C11.1201 2.78619 10.9437 2.59254 10.7256 2.45714C10.5075 2.32175 10.2559 2.25 9.99915 2.25C9.74242 2.25 9.49081 2.32175 9.27269 2.45714C9.05458 2.59254 8.87864 2.78619 8.76473 3.01626L6.9838 6.6265L2.99453 7.21037L2.99123 7.21086C2.73772 7.24912 2.49993 7.35743 2.30467 7.52359C2.10941 7.68974 1.96445 7.90714 1.88612 8.15127C1.80779 8.39539 1.79921 8.65655 1.86134 8.90529C1.92336 9.15357 2.05337 9.37963 2.23676 9.55808L2.23779 9.55909L5.11535 12.3715L4.4353 16.3417L4.43499 16.3434C4.39073 16.5975 4.41876 16.8589 4.51589 17.0979C4.61324 17.3374 4.77609 17.5446 4.98577 17.6958C5.19545 17.8471 5.44349 17.9362 5.70148 17.953C5.95789 17.9697 6.21381 17.9142 6.4403 17.793L9.99916 15.9209L13.5489 17.7874C13.7754 17.9085 14.0313 17.964 14.2877 17.9473C14.5457 17.9305 14.7937 17.8414 15.0034 17.6901C15.2131 17.5389 15.3759 17.3317 15.4733 17.0922C15.5704 16.8532 15.5984 16.5918 15.5542 16.3378L15.5539 16.3359L14.8738 12.3658L17.7559 9.55566L17.7569 9.55475C17.9403 9.37628 18.0703 9.15018 18.1324 8.90186C18.1945 8.65312 18.1859 8.39196 18.1076 8.14784C18.0293 7.90371 17.8843 7.68632 17.6891 7.52016C17.4938 7.354 17.256 7.24569 17.0025 7.20743L13.0145 6.62645L11.234 3.01626ZM9.99915 3.90449L8.29975 7.34943C8.20083 7.5491 8.05497 7.72182 7.87468 7.85278C7.69439 7.98374 7.48505 8.06904 7.26457 8.10138L3.46182 8.65796L6.2092 11.3431C6.36918 11.499 6.48913 11.6919 6.55792 11.9044C6.62665 12.1167 6.64263 12.3425 6.60449 12.5624L6.60428 12.5636L5.95513 16.3534L9.35855 14.563C9.55605 14.4592 9.77601 14.4048 9.99915 14.4048C10.2223 14.4048 10.4421 14.4591 10.6396 14.5629L14.034 16.3477L13.3849 12.5579L13.3846 12.5565C13.3465 12.3367 13.3625 12.1109 13.4312 11.8987C13.5 11.6862 13.6196 11.4936 13.7796 11.3378L16.5314 8.65463L12.7345 8.10149C12.514 8.06915 12.3039 7.98374 12.1236 7.85278C11.9433 7.72182 11.7975 7.54911 11.6985 7.34943L9.99915 3.90449Z" fill="#676879"/>
</svg>
