<svg width="20" height="20" viewBox="0 0 20 20" fill="none" xmlns="http://www.w3.org/2000/svg">
<path fill-rule="evenodd" clip-rule="evenodd" d="M1.95964 10.8197L3.87946 5.31383C4.17126 4.47709 4.96044 3.9165 5.84661 3.9165H14.1553C15.0415 3.9165 15.8306 4.47709 16.1224 5.31383L18.0424 10.8194C18.0693 10.8966 18.0846 10.9804 18.0846 11.0668V13.3334C18.0846 14.8522 16.8534 16.0834 15.3346 16.0834H4.66797C3.14919 16.0834 1.91797 14.8522 1.91797 13.3334V11.0668C1.91797 10.9802 1.93264 10.897 1.95964 10.8197ZM5.2958 5.80776C5.37751 5.57347 5.59848 5.4165 5.84661 5.4165H14.1553C14.4034 5.4165 14.6244 5.57347 14.7061 5.80776L16.2785 10.3167L12.8709 10.3168C12.4567 10.3168 12.1209 10.6526 12.1209 11.0668V11.6763C12.1209 11.901 11.915 12.1453 11.5955 12.1453H8.72594C8.40642 12.1453 8.20058 11.901 8.20058 11.6763V11.0668C8.20058 10.6526 7.86479 10.3168 7.45058 10.3168H3.72406L5.2958 5.80776ZM3.41797 13.3334V11.8168H6.70559C6.78069 12.8633 7.68848 13.6453 8.72594 13.6453H11.5955C12.633 13.6453 13.5408 12.8633 13.6159 11.8168H16.5846V13.3334C16.5846 14.0238 16.025 14.5834 15.3346 14.5834H4.66797C3.97761 14.5834 3.41797 14.0238 3.41797 13.3334Z" fill="#323338"/>
</svg>
