<svg width="48" height="48" viewBox="0 0 48 48" fill="none" xmlns="http://www.w3.org/2000/svg">
<path fill-rule="evenodd" clip-rule="evenodd" d="M7.07192 37.0762C5.22649 37.0743 3.52734 36.0213 2.63419 34.3258C1.74103 32.6304 1.79456 30.5596 2.77399 28.9175L11.9125 13.6001C12.8512 11.9322 14.5779 10.9304 16.4224 10.9835C18.2669 11.0365 19.9387 12.1362 20.7889 13.8555C21.6391 15.5749 21.5338 17.6432 20.5138 19.2576L11.3807 34.575C10.4518 36.1335 8.82304 37.0789 7.07192 37.0762Z" fill="#FB275D"/>
<path fill-rule="evenodd" clip-rule="evenodd" d="M22.818 37.0768C20.9726 37.075 19.2734 36.0219 18.3803 34.3264C17.4871 32.631 17.5407 30.5602 18.5201 28.9181L27.6559 13.6007C28.5813 11.9044 30.3169 10.8762 32.1783 10.9214C34.0397 10.9665 35.7282 12.0778 36.578 13.8171C37.4279 15.5564 37.3026 17.6445 36.2517 19.2582L27.1159 34.5756C26.189 36.1306 24.5653 37.0756 22.818 37.0768Z" fill="#FFCB00"/>
<path fill-rule="evenodd" clip-rule="evenodd" d="M39.7395 37.077C43.1973 37.077 46.0004 34.1986 46.0004 30.6479C46.0004 27.0972 43.1973 24.2188 39.7395 24.2188C36.2816 24.2188 33.4785 27.0972 33.4785 30.6479C33.4785 34.1986 36.2816 37.077 39.7395 37.077Z" fill="#00C875"/>
</svg>
