<svg width="20" height="20" viewBox="0 0 20 20" fill="none" xmlns="http://www.w3.org/2000/svg">
<path fill-rule="evenodd" clip-rule="evenodd" d="M10 1.47168C11.3345 1.47186 12.416 2.55412 12.416 3.88867V16.1104C12.416 17.4449 11.3345 18.5272 10 18.5273C8.66544 18.5272 7.58301 17.4449 7.58301 16.1104V3.88867C7.58304 2.5541 8.66545 1.47183 10 1.47168ZM10 2.97168C9.49388 2.97183 9.08304 3.38252 9.08301 3.88867V16.1104C9.08301 16.6165 9.49386 17.0272 10 17.0273C10.5061 17.0272 10.916 16.6165 10.916 16.1104V3.88867C10.916 3.38254 10.5061 2.97186 10 2.97168Z" fill="#676879"/>
<path d="M5.27734 3.69434C5.69156 3.69434 6.02734 4.03012 6.02734 4.44434V15.5557C6.02702 15.9696 5.69136 16.3057 5.27734 16.3057C4.8635 16.3055 4.52767 15.9695 4.52734 15.5557V4.44434C4.52734 4.03025 4.8633 3.69454 5.27734 3.69434Z" fill="#676879"/>
<path d="M14.7217 3.69434C15.1359 3.69434 15.4717 4.03012 15.4717 4.44434V15.5557C15.4714 15.9696 15.1357 16.3057 14.7217 16.3057C14.3079 16.3054 13.972 15.9694 13.9717 15.5557V4.44434C13.9717 4.03028 14.3077 3.6946 14.7217 3.69434Z" fill="#676879"/>
<path d="M2.22168 7.58301C2.63589 7.58301 2.97168 7.91879 2.97168 8.33301V11.666C2.97159 12.0802 2.63584 12.416 2.22168 12.416C1.80775 12.4158 1.47177 12.08 1.47168 11.666V8.33301C1.47168 7.91896 1.80769 7.58327 2.22168 7.58301Z" fill="#676879"/>
<path d="M17.7773 7.58301C18.1916 7.58301 18.5273 7.91879 18.5273 8.33301V11.666C18.5273 12.0802 18.1915 12.416 17.7773 12.416C17.3634 12.4158 17.0274 12.08 17.0273 11.666V8.33301C17.0273 7.91892 17.3633 7.58321 17.7773 7.58301Z" fill="#676879"/>
</svg>
