<svg width="16" height="16" viewBox="0 0 16 16" fill="none" xmlns="http://www.w3.org/2000/svg">
<path d="M4.79999 8.39995C4.79999 9.06269 4.26274 9.59995 3.59999 9.59995C2.93725 9.59995 2.39999 9.06269 2.39999 8.39995C2.39999 7.73721 2.93725 7.19995 3.59999 7.19995C4.26274 7.19995 4.79999 7.73721 4.79999 8.39995Z" fill="#676879"/>
<path d="M9.46562 8.39995C9.46562 9.06269 8.92836 9.59995 8.26562 9.59995C7.60288 9.59995 7.06562 9.06269 7.06562 8.39995C7.06562 7.73721 7.60288 7.19995 8.26562 7.19995C8.92836 7.19995 9.46562 7.73721 9.46562 8.39995Z" fill="#676879"/>
<path d="M12.9344 9.59995C13.5971 9.59995 14.1344 9.06269 14.1344 8.39995C14.1344 7.73721 13.5971 7.19995 12.9344 7.19995C12.2716 7.19995 11.7344 7.73721 11.7344 8.39995C11.7344 9.06269 12.2716 9.59995 12.9344 9.59995Z" fill="#676879"/>
</svg>
