<svg width="20" height="20" viewBox="0 0 20 20" fill="none" xmlns="http://www.w3.org/2000/svg">
<g clip-path="url(#clip0_1_3542)">
<path d="M4.5 2.25C4.5 3.49264 3.49264 4.5 2.25 4.5C1.00736 4.5 0 3.49264 0 2.25C0 1.00736 1.00736 0 2.25 0C3.49264 0 4.5 1.00736 4.5 2.25Z" fill="#323338"/>
<path d="M12.25 2.25C12.25 3.49264 11.2426 4.5 10 4.5C8.75736 4.5 7.75 3.49264 7.75 2.25C7.75 1.00736 8.75736 0 10 0C11.2426 0 12.25 1.00736 12.25 2.25Z" fill="#323338"/>
<path d="M20 2.25C20 3.49264 18.9926 4.5 17.75 4.5C16.5074 4.5 15.5 3.49264 15.5 2.25C15.5 1.00736 16.5074 0 17.75 0C18.9926 0 20 1.00736 20 2.25Z" fill="#323338"/>
<path d="M4.5 10C4.5 11.2426 3.49264 12.25 2.25 12.25C1.00736 12.25 0 11.2426 0 10C0 8.75736 1.00736 7.75 2.25 7.75C3.49264 7.75 4.5 8.75736 4.5 10Z" fill="#323338"/>
<path d="M12.25 10C12.25 11.2426 11.2426 12.25 10 12.25C8.75736 12.25 7.75 11.2426 7.75 10C7.75 8.75736 8.75736 7.75 10 7.75C11.2426 7.75 12.25 8.75736 12.25 10Z" fill="#323338"/>
<path d="M20 10C20 11.2426 18.9926 12.25 17.75 12.25C16.5074 12.25 15.5 11.2426 15.5 10C15.5 8.75736 16.5074 7.75 17.75 7.75C18.9926 7.75 20 8.75736 20 10Z" fill="#323338"/>
<path d="M4.5 17.75C4.5 18.9926 3.49264 20 2.25 20C1.00736 20 0 18.9926 0 17.75C0 16.5074 1.00736 15.5 2.25 15.5C3.49264 15.5 4.5 16.5074 4.5 17.75Z" fill="#323338"/>
<path d="M12.25 17.75C12.25 18.9926 11.2426 20 10 20C8.75736 20 7.75 18.9926 7.75 17.75C7.75 16.5074 8.75736 15.5 10 15.5C11.2426 15.5 12.25 16.5074 12.25 17.75Z" fill="#323338"/>
<path d="M20 17.75C20 18.9926 18.9926 20 17.75 20C16.5074 20 15.5 18.9926 15.5 17.75C15.5 16.5074 16.5074 15.5 17.75 15.5C18.9926 15.5 20 16.5074 20 17.75Z" fill="#323338"/>
</g>
<defs>
<clipPath id="clip0_1_3542">
<rect width="20" height="20" fill="white"/>
</clipPath>
</defs>
</svg>
