<svg width="20" height="20" viewBox="0 0 20 20" fill="none" xmlns="http://www.w3.org/2000/svg">
<path d="M6.41895 9.8999C6.00473 9.8999 5.66895 10.2357 5.66895 10.6499C5.66895 11.0641 6.00473 11.3999 6.41895 11.3999H12.4409C12.8551 11.3999 13.1909 11.0641 13.1909 10.6499C13.1909 10.2357 12.8551 9.8999 12.4409 9.8999H6.41895Z" fill="#676879"/>
<path d="M6.41914 13.0999C6.00492 13.0999 5.66914 13.4357 5.66914 13.8499C5.66914 14.2641 6.00492 14.5999 6.41914 14.5999H10.2824C10.6966 14.5999 11.0324 14.2641 11.0324 13.8499C11.0324 13.4357 10.6966 13.0999 10.2824 13.0999H6.41914Z" fill="#676879"/>
<path fill-rule="evenodd" clip-rule="evenodd" d="M16.1557 7.61667C16.1557 7.63699 16.1549 7.65713 16.1533 7.67705V16.3767C16.1533 16.8337 15.9718 17.2721 15.6486 17.5952C15.3254 17.9184 14.8871 18.1 14.43 18.1H4.72333C4.26627 18.1 3.82794 17.9184 3.50475 17.5952C3.18157 17.2721 3 16.8337 3 16.3767V3.72333C3 3.26628 3.18157 2.82794 3.50475 2.50475C3.82794 2.18157 4.26628 2 4.72333 2H10.6204C11.0771 2.0001 11.5153 2.1815 11.8384 2.50436L15.6488 6.31481C15.9717 6.63787 16.1532 7.07606 16.1533 7.5328V7.55628C16.1549 7.5762 16.1557 7.59634 16.1557 7.61667ZM4.72333 3.5C4.6641 3.5 4.6073 3.52353 4.56541 3.56541C4.52353 3.6073 4.5 3.6641 4.5 3.72333V16.3767C4.5 16.4359 4.52353 16.4927 4.56541 16.5346C4.6073 16.5765 4.6641 16.6 4.72333 16.6H14.43C14.4892 16.6 14.546 16.5765 14.5879 16.5346C14.6298 16.4927 14.6533 16.4359 14.6533 16.3767V8.36667H11.5124C11.0553 8.36667 10.617 8.1851 10.2938 7.86191C9.97063 7.53873 9.78906 7.10039 9.78906 6.64333V3.55469L4.72333 3.5ZM14.0793 6.86667L11.2891 4.07639V6.64333C11.2891 6.70256 11.3126 6.75937 11.3545 6.80125C11.3964 6.84314 11.4532 6.86667 11.5124 6.86667H14.0793Z" fill="#676879"/>
</svg>
