<svg width="19" height="19" viewBox="0 0 19 19" fill="none" xmlns="http://www.w3.org/2000/svg">
<g clip-path="url(#paint0_angular_1_1386_clip_path)" data-figma-skip-parse="true"><g transform="matrix(0.00336799 0.000625785 -0.00108674 0.00344809 9.70065 8.70494)"><foreignObject x="-3259.5" y="-3259.5" width="6519" height="6519"><div xmlns="http://www.w3.org/1999/xhtml" style="background:conic-gradient(from 90deg,rgba(250, 210, 57, 1) 0deg,rgba(255, 214, 51, 1) 4.65807deg,rgba(148, 80, 253, 1) 86.0171deg,rgba(72, 0, 255, 1) 116.533deg,rgba(3, 250, 250, 1) 142.413deg,rgba(97, 97, 255, 1) 215.412deg,rgba(250, 210, 57, 1) 360deg);height:100%;width:100%;opacity:1"></div></foreignObject></g></g><path d="M7.99531 17.9616C8.49723 18.2558 9.07084 18.3567 9.61578 18.2356C10.1607 18.1145 10.6426 17.7828 10.9753 17.304C11.308 16.8252 11.4571 16.2454 11.4657 15.6714C11.4657 15.4839 11.4657 15.2965 11.4657 15.1119C11.46 14.6821 11.4456 14.2552 11.4169 13.8341C11.2391 12.1756 10.4819 10.5402 9.30029 9.31432C8.12437 8.07982 6.54119 7.24624 4.89777 6.98377C4.35857 6.91743 3.81364 6.86551 3.26583 6.83378C3.08227 6.82225 2.89585 6.81359 2.70942 6.80494C2.13581 6.78186 1.55072 6.90589 1.06027 7.22317C0.569829 7.53756 0.217055 8.01348 0.0765183 8.55862C-0.0640181 9.10376 0.0134203 9.69217 0.288757 10.2085C1.24383 12.2564 4.23811 11.4603 5.46566 13.012C6.6932 14.5638 6.40639 17.1597 7.99818 17.9674L7.99531 17.9616Z" data-figma-gradient-fill="{&#34;type&#34;:&#34;GRADIENT_ANGULAR&#34;,&#34;stops&#34;:[{&#34;color&#34;:{&#34;r&#34;:1.0,&#34;g&#34;:0.83921569585800171,&#34;b&#34;:0.20000000298023224,&#34;a&#34;:1.0},&#34;position&#34;:0.012939095497131348},{&#34;color&#34;:{&#34;r&#34;:0.58039218187332153,&#34;g&#34;:0.31372550129890442,&#34;b&#34;:0.99215686321258545,&#34;a&#34;:1.0},&#34;position&#34;:0.23893648386001587},{&#34;color&#34;:{&#34;r&#34;:0.28333333134651184,&#34;g&#34;:0.0,&#34;b&#34;:1.0,&#34;a&#34;:1.0},&#34;position&#34;:0.32370311021804810},{&#34;color&#34;:{&#34;r&#34;:0.011764706112444401,&#34;g&#34;:0.98039215803146362,&#34;b&#34;:0.98039215803146362,&#34;a&#34;:1.0},&#34;position&#34;:0.39559286832809448},{&#34;color&#34;:{&#34;r&#34;:0.38039216399192810,&#34;g&#34;:0.38039216399192810,&#34;b&#34;:1.0,&#34;a&#34;:1.0},&#34;position&#34;:0.59836751222610474}],&#34;stopsVar&#34;:[{&#34;color&#34;:{&#34;r&#34;:1.0,&#34;g&#34;:0.83921569585800171,&#34;b&#34;:0.20000000298023224,&#34;a&#34;:1.0},&#34;position&#34;:0.012939095497131348},{&#34;color&#34;:{&#34;r&#34;:0.58039218187332153,&#34;g&#34;:0.31372550129890442,&#34;b&#34;:0.99215686321258545,&#34;a&#34;:1.0},&#34;position&#34;:0.23893648386001587},{&#34;color&#34;:{&#34;r&#34;:0.28333333134651184,&#34;g&#34;:0.0,&#34;b&#34;:1.0,&#34;a&#34;:1.0},&#34;position&#34;:0.32370311021804810},{&#34;color&#34;:{&#34;r&#34;:0.011764706112444401,&#34;g&#34;:0.98039215803146362,&#34;b&#34;:0.98039215803146362,&#34;a&#34;:1.0},&#34;position&#34;:0.39559286832809448},{&#34;color&#34;:{&#34;r&#34;:0.38039216399192810,&#34;g&#34;:0.38039216399192810,&#34;b&#34;:1.0,&#34;a&#34;:1.0},&#34;position&#34;:0.59836751222610474}],&#34;transform&#34;:{&#34;m00&#34;:6.7359743118286133,&#34;m01&#34;:-2.1734828948974609,&#34;m02&#34;:7.4194002151489258,&#34;m10&#34;:1.2515705823898315,&#34;m11&#34;:6.8961863517761230,&#34;m12&#34;:4.6310586929321289},&#34;opacity&#34;:1.0,&#34;blendMode&#34;:&#34;NORMAL&#34;,&#34;visible&#34;:true}"/>
<g clip-path="url(#paint1_angular_1_1386_clip_path)" data-figma-skip-parse="true"><g transform="matrix(0.0049693 0.00548742 -0.00485721 0.00444861 9.00748 9.02882)"><foreignObject x="-2047.91" y="-2047.91" width="4095.83" height="4095.83"><div xmlns="http://www.w3.org/1999/xhtml" style="background:conic-gradient(from 90deg,rgba(115, 196, 240, 1) 0deg,rgba(3, 250, 250, 1) 13.7418deg,rgba(97, 97, 255, 1) 178.791deg,rgba(255, 214, 51, 1) 252.021deg,rgba(255, 107, 16, 1) 274.968deg,rgba(255, 129, 227, 1) 297.134deg,rgba(255, 129, 227, 1) 342.947deg,rgba(115, 196, 240, 1) 360deg);height:100%;width:100%;opacity:1"></div></foreignObject></g></g><path d="M10.2187 0.330764C9.71679 0.0365609 9.14317 -0.0643912 8.59824 0.0567513C8.0533 0.177894 7.57146 0.509593 7.23876 0.988395C6.90607 1.4672 6.75693 2.04695 6.74832 2.62093C6.74832 2.80842 6.74832 2.9959 6.74832 3.1805C6.75406 3.61026 6.7684 4.03715 6.79708 4.45826C6.9749 6.11676 7.73208 7.75218 8.91373 8.97803C10.0896 10.2125 11.6728 11.0461 13.3162 11.3086C13.8554 11.3749 14.4004 11.4268 14.9482 11.4586C15.1317 11.4701 15.3182 11.4788 15.5046 11.4874C16.0782 11.5105 16.6633 11.3865 17.1537 11.0692C17.6442 10.7548 17.997 10.2789 18.1375 9.73373C18.278 9.18859 18.2006 8.60018 17.9253 8.08388C16.9702 6.036 13.9759 6.83208 12.7484 5.2803C11.5208 3.72852 11.8076 1.13261 10.2158 0.324995L10.2187 0.330764Z" data-figma-gradient-fill="{&#34;type&#34;:&#34;GRADIENT_ANGULAR&#34;,&#34;stops&#34;:[{&#34;color&#34;:{&#34;r&#34;:0.011764706112444401,&#34;g&#34;:0.98039215803146362,&#34;b&#34;:0.98039215803146362,&#34;a&#34;:1.0},&#34;position&#34;:0.038171753287315369},{&#34;color&#34;:{&#34;r&#34;:0.38039216399192810,&#34;g&#34;:0.38039216399192810,&#34;b&#34;:1.0,&#34;a&#34;:1.0},&#34;position&#34;:0.49664038419723511},{&#34;color&#34;:{&#34;r&#34;:1.0,&#34;g&#34;:0.83921569585800171,&#34;b&#34;:0.20000000298023224,&#34;a&#34;:1.0},&#34;position&#34;:0.70005834102630615},{&#34;color&#34;:{&#34;r&#34;:1.0,&#34;g&#34;:0.41960784792900085,&#34;b&#34;:0.062745101749897003,&#34;a&#34;:1.0},&#34;position&#34;:0.76379954814910889},{&#34;color&#34;:{&#34;r&#34;:1.0,&#34;g&#34;:0.50588238239288330,&#34;b&#34;:0.89294117689132690,&#34;a&#34;:1.0},&#34;position&#34;:0.82537221908569336},{&#34;color&#34;:{&#34;r&#34;:1.0,&#34;g&#34;:0.50588238239288330,&#34;b&#34;:0.89294117689132690,&#34;a&#34;:1.0},&#34;position&#34;:0.95263051986694336}],&#34;stopsVar&#34;:[{&#34;color&#34;:{&#34;r&#34;:0.011764706112444401,&#34;g&#34;:0.98039215803146362,&#34;b&#34;:0.98039215803146362,&#34;a&#34;:1.0},&#34;position&#34;:0.038171753287315369},{&#34;color&#34;:{&#34;r&#34;:0.38039216399192810,&#34;g&#34;:0.38039216399192810,&#34;b&#34;:1.0,&#34;a&#34;:1.0},&#34;position&#34;:0.49664038419723511},{&#34;color&#34;:{&#34;r&#34;:1.0,&#34;g&#34;:0.83921569585800171,&#34;b&#34;:0.20000000298023224,&#34;a&#34;:1.0},&#34;position&#34;:0.70005834102630615},{&#34;color&#34;:{&#34;r&#34;:1.0,&#34;g&#34;:0.41960784792900085,&#34;b&#34;:0.062745101749897003,&#34;a&#34;:1.0},&#34;position&#34;:0.76379954814910889},{&#34;color&#34;:{&#34;r&#34;:1.0,&#34;g&#34;:0.50588238239288330,&#34;b&#34;:0.89294117689132690,&#34;a&#34;:1.0},&#34;position&#34;:0.82537221908569336},{&#34;color&#34;:{&#34;r&#34;:1.0,&#34;g&#34;:0.50588238239288330,&#34;b&#34;:0.89294117689132690,&#34;a&#34;:1.0},&#34;position&#34;:0.95263051986694336}],&#34;transform&#34;:{&#34;m00&#34;:9.9386043548583984,&#34;m01&#34;:-9.7144260406494141,&#34;m02&#34;:8.8953943252563477,&#34;m10&#34;:10.974833488464355,&#34;m11&#34;:8.8972139358520508,&#34;m12&#34;:-0.90720003843307495},&#34;opacity&#34;:1.0,&#34;blendMode&#34;:&#34;NORMAL&#34;,&#34;visible&#34;:true}"/>
<g clip-path="url(#paint2_angular_1_1386_clip_path)" data-figma-skip-parse="true"><g transform="matrix(-0.00146156 -0.00333165 0.00308524 -0.00136885 9.00788 9.12724)"><foreignObject x="-3492" y="-3492" width="6984.01" height="6984.01"><div xmlns="http://www.w3.org/1999/xhtml" style="background:conic-gradient(from 90deg,rgba(255, 197, 45, 1) 0deg,rgba(255, 107, 16, 1) 68.4941deg,rgba(255, 130, 227, 1) 87.2686deg,rgba(148, 80, 253, 1) 158.253deg,rgba(0, 116, 253, 1) 203.18deg,rgba(148, 80, 253, 1) 251.211deg,rgba(255, 214, 51, 1) 347.36deg,rgba(255, 197, 45, 1) 360deg);height:100%;width:100%;opacity:1"></div></foreignObject></g></g><path d="M17.9636 10.2491C18.2561 9.74433 18.3565 9.16746 18.236 8.61944C18.1156 8.07141 17.7857 7.58684 17.3096 7.25226C16.8335 6.91767 16.2571 6.76769 15.6863 6.75903C15.4999 6.75903 15.3135 6.75903 15.1299 6.75903C14.7026 6.7648 14.2781 6.77922 13.8593 6.80807C12.2102 6.9869 10.584 7.74836 9.36504 8.93671C8.1375 10.1193 7.30862 11.7115 7.04763 13.3642C6.98166 13.9064 6.93003 14.4545 6.89849 15.0054C6.88701 15.19 6.87841 15.3775 6.8698 15.5649C6.84686 16.1418 6.97019 16.7302 7.28568 17.2234C7.5983 17.7167 8.07153 18.0714 8.6136 18.2128C9.15567 18.3541 9.74076 18.2762 10.2541 17.9993C12.2905 17.0388 11.4989 14.0276 13.0419 12.7931C14.585 11.5586 17.1605 11.8499 17.9636 10.2491Z" data-figma-gradient-fill="{&#34;type&#34;:&#34;GRADIENT_ANGULAR&#34;,&#34;stops&#34;:[{&#34;color&#34;:{&#34;r&#34;:1.0,&#34;g&#34;:0.41960784792900085,&#34;b&#34;:0.062745101749897003,&#34;a&#34;:1.0},&#34;position&#34;:0.19026148319244385},{&#34;color&#34;:{&#34;r&#34;:1.0,&#34;g&#34;:0.51010364294052124,&#34;b&#34;:0.89385569095611572,&#34;a&#34;:1.0},&#34;position&#34;:0.24241268634796143},{&#34;color&#34;:{&#34;r&#34;:0.58039218187332153,&#34;g&#34;:0.31372550129890442,&#34;b&#34;:0.99215686321258545,&#34;a&#34;:1.0},&#34;position&#34;:0.43959093093872070},{&#34;color&#34;:{&#34;r&#34;:0.0,&#34;g&#34;:0.45490196347236633,&#34;b&#34;:0.99215686321258545,&#34;a&#34;:1.0},&#34;position&#34;:0.56439012289047241},{&#34;color&#34;:{&#34;r&#34;:0.58039218187332153,&#34;g&#34;:0.31372550129890442,&#34;b&#34;:0.99215686321258545,&#34;a&#34;:1.0},&#34;position&#34;:0.69780862331390381},{&#34;color&#34;:{&#34;r&#34;:1.0,&#34;g&#34;:0.83921569585800171,&#34;b&#34;:0.20000000298023224,&#34;a&#34;:1.0},&#34;position&#34;:0.96488827466964722}],&#34;stopsVar&#34;:[{&#34;color&#34;:{&#34;r&#34;:1.0,&#34;g&#34;:0.41960784792900085,&#34;b&#34;:0.062745101749897003,&#34;a&#34;:1.0},&#34;position&#34;:0.19026148319244385},{&#34;color&#34;:{&#34;r&#34;:1.0,&#34;g&#34;:0.51010364294052124,&#34;b&#34;:0.89385569095611572,&#34;a&#34;:1.0},&#34;position&#34;:0.24241268634796143},{&#34;color&#34;:{&#34;r&#34;:0.58039218187332153,&#34;g&#34;:0.31372550129890442,&#34;b&#34;:0.99215686321258545,&#34;a&#34;:1.0},&#34;position&#34;:0.43959093093872070},{&#34;color&#34;:{&#34;r&#34;:0.0,&#34;g&#34;:0.45490196347236633,&#34;b&#34;:0.99215686321258545,&#34;a&#34;:1.0},&#34;position&#34;:0.56439012289047241},{&#34;color&#34;:{&#34;r&#34;:0.58039218187332153,&#34;g&#34;:0.31372550129890442,&#34;b&#34;:0.99215686321258545,&#34;a&#34;:1.0},&#34;position&#34;:0.69780862331390381},{&#34;color&#34;:{&#34;r&#34;:1.0,&#34;g&#34;:0.83921569585800171,&#34;b&#34;:0.20000000298023224,&#34;a&#34;:1.0},&#34;position&#34;:0.96488827466964722}],&#34;transform&#34;:{&#34;m00&#34;:-2.9231181144714355,&#34;m01&#34;:6.1704802513122559,&#34;m02&#34;:7.3842010498046875,&#34;m10&#34;:-6.6632900238037109,&#34;m11&#34;:-2.7377004623413086,&#34;m12&#34;:13.827733993530273},&#34;opacity&#34;:1.0,&#34;blendMode&#34;:&#34;NORMAL&#34;,&#34;visible&#34;:true}"/>
<g clip-path="url(#paint3_angular_1_1386_clip_path)" data-figma-skip-parse="true"><g transform="matrix(-0.00377126 -0.00412633 0.00479814 -0.00339598 9.11932 9.34674)"><foreignObject x="-4116.47" y="-4116.47" width="8232.94" height="8232.94"><div xmlns="http://www.w3.org/1999/xhtml" style="background:conic-gradient(from 90deg,rgba(20, 203, 138, 1) 0deg,rgba(4, 204, 88, 1) 22.5512deg,rgba(255, 214, 51, 1) 58.2341deg,rgba(255, 214, 51, 1) 78.0887deg,rgba(160, 144, 172, 1) 142.439deg,rgba(97, 97, 255, 1) 180.672deg,rgba(255, 129, 227, 1) 246.749deg,rgba(3, 250, 250, 1) 267.686deg,rgba(57, 201, 255, 1) 306.698deg,rgba(20, 203, 138, 1) 360deg);height:100%;width:100%;opacity:1"></div></foreignObject></g></g><path d="M0.293378 8.0537C0.000833148 8.55846 -0.062834 9.12116 0.0576257 9.66918C0.178085 10.2172 0.507916 10.7018 0.984018 11.0364C1.46012 11.3709 2.03661 11.5209 2.60736 11.5296C2.79378 11.5296 2.98021 11.5296 3.16376 11.5296C3.59111 11.5238 4.01559 11.5094 4.43433 11.4806C6.08348 11.3017 7.70968 10.5403 8.92862 9.3519C10.1562 8.16932 10.985 6.57716 11.246 4.92443C11.312 4.38218 11.3636 3.83415 11.3952 3.28324C11.4067 3.09864 11.4153 2.91116 11.4239 2.72368C11.4468 2.14681 11.3235 1.5584 11.008 1.06518C10.6954 0.571957 10.2221 0.217183 9.68006 0.0758499C9.13799 -0.065483 8.56071 -0.0129743 8.04732 0.263923C6.01098 1.22441 6.79476 4.26104 5.25173 5.49553C3.7087 6.73003 1.09644 6.45289 0.293378 8.0537Z" data-figma-gradient-fill="{&#34;type&#34;:&#34;GRADIENT_ANGULAR&#34;,&#34;stops&#34;:[{&#34;color&#34;:{&#34;r&#34;:0.019287083297967911,&#34;g&#34;:0.80359828472137451,&#34;b&#34;:0.34845396876335144,&#34;a&#34;:1.0},&#34;position&#34;:0.062642157077789307},{&#34;color&#34;:{&#34;r&#34;:1.0,&#34;g&#34;:0.83921569585800171,&#34;b&#34;:0.20000000298023224,&#34;a&#34;:1.0},&#34;position&#34;:0.16176138818264008},{&#34;color&#34;:{&#34;r&#34;:1.0,&#34;g&#34;:0.83921569585800171,&#34;b&#34;:0.20000000298023224,&#34;a&#34;:1.0},&#34;position&#34;:0.21691308915615082},{&#34;color&#34;:{&#34;r&#34;:0.63010036945343018,&#34;g&#34;:0.56530267000198364,&#34;b&#34;:0.67759191989898682,&#34;a&#34;:1.0},&#34;position&#34;:0.39566385746002197},{&#34;color&#34;:{&#34;r&#34;:0.38039216399192810,&#34;g&#34;:0.38039216399192810,&#34;b&#34;:1.0,&#34;a&#34;:1.0},&#34;position&#34;:0.50186586380004883},{&#34;color&#34;:{&#34;r&#34;:1.0,&#34;g&#34;:0.50588238239288330,&#34;b&#34;:0.89294117689132690,&#34;a&#34;:1.0},&#34;position&#34;:0.68541431427001953},{&#34;color&#34;:{&#34;r&#34;:0.011764706112444401,&#34;g&#34;:0.98039215803146362,&#34;b&#34;:0.98039215803146362,&#34;a&#34;:1.0},&#34;position&#34;:0.74357092380523682},{&#34;color&#34;:{&#34;r&#34;:0.22616812586784363,&#34;g&#34;:0.79014730453491211,&#34;b&#34;:1.0,&#34;a&#34;:1.0},&#34;position&#34;:0.85193920135498047}],&#34;stopsVar&#34;:[{&#34;color&#34;:{&#34;r&#34;:0.019287083297967911,&#34;g&#34;:0.80359828472137451,&#34;b&#34;:0.34845396876335144,&#34;a&#34;:1.0},&#34;position&#34;:0.062642157077789307},{&#34;color&#34;:{&#34;r&#34;:1.0,&#34;g&#34;:0.83921569585800171,&#34;b&#34;:0.20000000298023224,&#34;a&#34;:1.0},&#34;position&#34;:0.16176138818264008},{&#34;color&#34;:{&#34;r&#34;:1.0,&#34;g&#34;:0.83921569585800171,&#34;b&#34;:0.20000000298023224,&#34;a&#34;:1.0},&#34;position&#34;:0.21691308915615082},{&#34;color&#34;:{&#34;r&#34;:0.63010036945343018,&#34;g&#34;:0.56530267000198364,&#34;b&#34;:0.67759191989898682,&#34;a&#34;:1.0},&#34;position&#34;:0.39566385746002197},{&#34;color&#34;:{&#34;r&#34;:0.38039216399192810,&#34;g&#34;:0.38039216399192810,&#34;b&#34;:1.0,&#34;a&#34;:1.0},&#34;position&#34;:0.50186586380004883},{&#34;color&#34;:{&#34;r&#34;:1.0,&#34;g&#34;:0.50588238239288330,&#34;b&#34;:0.89294117689132690,&#34;a&#34;:1.0},&#34;position&#34;:0.68541431427001953},{&#34;color&#34;:{&#34;r&#34;:0.011764706112444401,&#34;g&#34;:0.98039215803146362,&#34;b&#34;:0.98039215803146362,&#34;a&#34;:1.0},&#34;position&#34;:0.74357092380523682},{&#34;color&#34;:{&#34;r&#34;:0.22616812586784363,&#34;g&#34;:0.79014730453491211,&#34;b&#34;:1.0,&#34;a&#34;:1.0},&#34;position&#34;:0.85193920135498047}],&#34;transform&#34;:{&#34;m00&#34;:-7.5425176620483398,&#34;m01&#34;:9.5962724685668945,&#34;m02&#34;:8.0924472808837891,&#34;m10&#34;:-8.2526683807373047,&#34;m11&#34;:-6.7919659614562988,&#34;m12&#34;:16.869054794311523},&#34;opacity&#34;:1.0,&#34;blendMode&#34;:&#34;NORMAL&#34;,&#34;visible&#34;:true}"/>
<g clip-path="url(#paint4_angular_1_1386_clip_path)" data-figma-skip-parse="true"><g transform="matrix(0.003349 0.000625785 -0.00108062 0.00344809 9.64601 8.70494)"><foreignObject x="-3259.62" y="-3259.62" width="6519.25" height="6519.25"><div xmlns="http://www.w3.org/1999/xhtml" style="background:conic-gradient(from 90deg,rgba(250, 210, 57, 1) 0deg,rgba(255, 214, 51, 1) 4.65807deg,rgba(148, 80, 253, 1) 86.0171deg,rgba(72, 0, 255, 1) 116.533deg,rgba(3, 250, 250, 1) 142.413deg,rgba(97, 97, 255, 1) 215.412deg,rgba(250, 210, 57, 1) 360deg);height:100%;width:100%;opacity:1"></div></foreignObject></g></g><path d="M7.95029 17.9616C8.44937 18.2558 9.01976 18.3567 9.56162 18.2356C10.1035 18.1145 10.5826 17.7828 10.9134 17.304C11.2443 16.8252 11.3926 16.2454 11.4011 15.6714C11.4011 15.4839 11.4011 15.2965 11.4011 15.1119C11.3954 14.6821 11.3811 14.2552 11.3526 13.8341C11.1758 12.1756 10.4229 10.5402 9.24791 9.31432C8.07862 8.07982 6.50436 7.24624 4.87021 6.98377C4.33405 6.91743 3.79218 6.86551 3.24747 6.83378C3.06494 6.82225 2.87957 6.81359 2.6942 6.80494C2.12381 6.78186 1.54202 6.90589 1.05434 7.22317C0.566662 7.53756 0.215875 8.01348 0.0761313 8.55862C-0.0636128 9.10376 0.0133891 9.69217 0.287174 10.2085C1.23686 12.2564 4.21427 11.4603 5.43489 13.012C6.65551 14.5638 6.37032 17.1597 7.95314 17.9674L7.95029 17.9616Z" data-figma-gradient-fill="{&#34;type&#34;:&#34;GRADIENT_ANGULAR&#34;,&#34;stops&#34;:[{&#34;color&#34;:{&#34;r&#34;:1.0,&#34;g&#34;:0.83921569585800171,&#34;b&#34;:0.20000000298023224,&#34;a&#34;:1.0},&#34;position&#34;:0.012939095497131348},{&#34;color&#34;:{&#34;r&#34;:0.58039218187332153,&#34;g&#34;:0.31372550129890442,&#34;b&#34;:0.99215686321258545,&#34;a&#34;:1.0},&#34;position&#34;:0.23893648386001587},{&#34;color&#34;:{&#34;r&#34;:0.28333333134651184,&#34;g&#34;:0.0,&#34;b&#34;:1.0,&#34;a&#34;:1.0},&#34;position&#34;:0.32370311021804810},{&#34;color&#34;:{&#34;r&#34;:0.011764706112444401,&#34;g&#34;:0.98039215803146362,&#34;b&#34;:0.98039215803146362,&#34;a&#34;:1.0},&#34;position&#34;:0.39559286832809448},{&#34;color&#34;:{&#34;r&#34;:0.38039216399192810,&#34;g&#34;:0.38039216399192810,&#34;b&#34;:1.0,&#34;a&#34;:1.0},&#34;position&#34;:0.59836751222610474}],&#34;stopsVar&#34;:[{&#34;color&#34;:{&#34;r&#34;:1.0,&#34;g&#34;:0.83921569585800171,&#34;b&#34;:0.20000000298023224,&#34;a&#34;:1.0},&#34;position&#34;:0.012939095497131348},{&#34;color&#34;:{&#34;r&#34;:0.58039218187332153,&#34;g&#34;:0.31372550129890442,&#34;b&#34;:0.99215686321258545,&#34;a&#34;:1.0},&#34;position&#34;:0.23893648386001587},{&#34;color&#34;:{&#34;r&#34;:0.28333333134651184,&#34;g&#34;:0.0,&#34;b&#34;:1.0,&#34;a&#34;:1.0},&#34;position&#34;:0.32370311021804810},{&#34;color&#34;:{&#34;r&#34;:0.011764706112444401,&#34;g&#34;:0.98039215803146362,&#34;b&#34;:0.98039215803146362,&#34;a&#34;:1.0},&#34;position&#34;:0.39559286832809448},{&#34;color&#34;:{&#34;r&#34;:0.38039216399192810,&#34;g&#34;:0.38039216399192810,&#34;b&#34;:1.0,&#34;a&#34;:1.0},&#34;position&#34;:0.59836751222610474}],&#34;transform&#34;:{&#34;m00&#34;:6.6980047225952148,&#34;m01&#34;:-2.1612315177917480,&#34;m02&#34;:7.3776226043701172,&#34;m10&#34;:1.2515705823898315,&#34;m11&#34;:6.8961863517761230,&#34;m12&#34;:4.6310586929321289},&#34;opacity&#34;:1.0,&#34;blendMode&#34;:&#34;NORMAL&#34;,&#34;visible&#34;:true}"/>
<g clip-path="url(#paint5_angular_1_1386_clip_path)" data-figma-skip-parse="true"><g transform="matrix(0.00494129 0.00548742 -0.00482983 0.00444861 8.95682 9.02882)"><foreignObject x="-2048.19" y="-2048.19" width="4096.38" height="4096.38"><div xmlns="http://www.w3.org/1999/xhtml" style="background:conic-gradient(from 90deg,rgba(115, 196, 240, 1) 0deg,rgba(3, 250, 250, 1) 13.7418deg,rgba(97, 97, 255, 1) 178.791deg,rgba(255, 214, 51, 1) 252.021deg,rgba(255, 107, 16, 1) 274.968deg,rgba(255, 129, 227, 1) 297.134deg,rgba(255, 129, 227, 1) 342.947deg,rgba(115, 196, 240, 1) 360deg);height:100%;width:100%;opacity:1"></div></foreignObject></g></g><path d="M10.1612 0.330764C9.66213 0.0365609 9.09174 -0.0643912 8.54988 0.0567513C8.00801 0.177894 7.52889 0.509593 7.19807 0.988395C6.86724 1.4672 6.71894 2.04695 6.71039 2.62093C6.71039 2.80842 6.71039 2.9959 6.71039 3.1805C6.71609 3.61026 6.73035 4.03715 6.75887 4.45826C6.93569 6.11676 7.6886 7.75218 8.86359 8.97803C10.0329 10.2125 11.6071 11.0461 13.2413 11.3086C13.7774 11.3749 14.3193 11.4268 14.864 11.4586C15.0466 11.4701 15.2319 11.4788 15.4173 11.4874C15.9877 11.5105 16.5695 11.3865 17.0572 11.0692C17.5448 10.7548 17.8956 10.2789 18.0354 9.73373C18.1751 9.18859 18.0981 8.60018 17.8243 8.08388C16.8746 6.036 13.8972 6.83208 12.6766 5.2803C11.456 3.72852 11.7412 1.13261 10.1584 0.324995L10.1612 0.330764Z" data-figma-gradient-fill="{&#34;type&#34;:&#34;GRADIENT_ANGULAR&#34;,&#34;stops&#34;:[{&#34;color&#34;:{&#34;r&#34;:0.011764706112444401,&#34;g&#34;:0.98039215803146362,&#34;b&#34;:0.98039215803146362,&#34;a&#34;:1.0},&#34;position&#34;:0.038171753287315369},{&#34;color&#34;:{&#34;r&#34;:0.38039216399192810,&#34;g&#34;:0.38039216399192810,&#34;b&#34;:1.0,&#34;a&#34;:1.0},&#34;position&#34;:0.49664038419723511},{&#34;color&#34;:{&#34;r&#34;:1.0,&#34;g&#34;:0.83921569585800171,&#34;b&#34;:0.20000000298023224,&#34;a&#34;:1.0},&#34;position&#34;:0.70005834102630615},{&#34;color&#34;:{&#34;r&#34;:1.0,&#34;g&#34;:0.41960784792900085,&#34;b&#34;:0.062745101749897003,&#34;a&#34;:1.0},&#34;position&#34;:0.76379954814910889},{&#34;color&#34;:{&#34;r&#34;:1.0,&#34;g&#34;:0.50588238239288330,&#34;b&#34;:0.89294117689132690,&#34;a&#34;:1.0},&#34;position&#34;:0.82537221908569336},{&#34;color&#34;:{&#34;r&#34;:1.0,&#34;g&#34;:0.50588238239288330,&#34;b&#34;:0.89294117689132690,&#34;a&#34;:1.0},&#34;position&#34;:0.95263051986694336}],&#34;stopsVar&#34;:[{&#34;color&#34;:{&#34;r&#34;:0.011764706112444401,&#34;g&#34;:0.98039215803146362,&#34;b&#34;:0.98039215803146362,&#34;a&#34;:1.0},&#34;position&#34;:0.038171753287315369},{&#34;color&#34;:{&#34;r&#34;:0.38039216399192810,&#34;g&#34;:0.38039216399192810,&#34;b&#34;:1.0,&#34;a&#34;:1.0},&#34;position&#34;:0.49664038419723511},{&#34;color&#34;:{&#34;r&#34;:1.0,&#34;g&#34;:0.83921569585800171,&#34;b&#34;:0.20000000298023224,&#34;a&#34;:1.0},&#34;position&#34;:0.70005834102630615},{&#34;color&#34;:{&#34;r&#34;:1.0,&#34;g&#34;:0.41960784792900085,&#34;b&#34;:0.062745101749897003,&#34;a&#34;:1.0},&#34;position&#34;:0.76379954814910889},{&#34;color&#34;:{&#34;r&#34;:1.0,&#34;g&#34;:0.50588238239288330,&#34;b&#34;:0.89294117689132690,&#34;a&#34;:1.0},&#34;position&#34;:0.82537221908569336},{&#34;color&#34;:{&#34;r&#34;:1.0,&#34;g&#34;:0.50588238239288330,&#34;b&#34;:0.89294117689132690,&#34;a&#34;:1.0},&#34;position&#34;:0.95263051986694336}],&#34;transform&#34;:{&#34;m00&#34;:9.8825826644897461,&#34;m01&#34;:-9.659667968750,&#34;m02&#34;:8.8453588485717773,&#34;m10&#34;:10.974833488464355,&#34;m11&#34;:8.8972139358520508,&#34;m12&#34;:-0.90720003843307495},&#34;opacity&#34;:1.0,&#34;blendMode&#34;:&#34;NORMAL&#34;,&#34;visible&#34;:true}"/>
<g clip-path="url(#paint6_angular_1_1386_clip_path)" data-figma-skip-parse="true"><g transform="matrix(-0.00145332 -0.00333165 0.00306785 -0.00136885 8.95681 9.12724)"><foreignObject x="-3492.28" y="-3492.28" width="6984.56" height="6984.56"><div xmlns="http://www.w3.org/1999/xhtml" style="background:conic-gradient(from 90deg,rgba(255, 197, 45, 1) 0deg,rgba(255, 107, 16, 1) 68.4941deg,rgba(255, 130, 227, 1) 87.2686deg,rgba(148, 80, 253, 1) 158.253deg,rgba(0, 116, 253, 1) 203.18deg,rgba(148, 80, 253, 1) 251.211deg,rgba(255, 214, 51, 1) 347.36deg,rgba(255, 197, 45, 1) 360deg);height:100%;width:100%;opacity:1"></div></foreignObject></g></g><path d="M17.862 10.2491C18.1529 9.74433 18.2527 9.16746 18.1329 8.61944C18.0132 8.07141 17.6852 7.58684 17.2118 7.25226C16.7384 6.91767 16.1651 6.76769 15.5976 6.75903C15.4122 6.75903 15.2268 6.75903 15.0443 6.75903C14.6194 6.7648 14.1973 6.77922 13.7809 6.80807C12.1411 6.9869 10.524 7.74836 9.31196 8.93671C8.09134 10.1193 7.26713 11.7115 7.00761 13.3642C6.94201 13.9064 6.89068 14.4545 6.85931 15.0054C6.8479 15.19 6.83934 15.3775 6.83079 15.5649C6.80797 16.1418 6.9306 16.7302 7.24432 17.2234C7.55518 17.7167 8.02574 18.0714 8.56476 18.2128C9.10377 18.3541 9.68556 18.2762 10.1961 17.9993C12.2209 17.0388 11.4338 14.0276 12.9681 12.7931C14.5025 11.5586 17.0635 11.8499 17.862 10.2491Z" data-figma-gradient-fill="{&#34;type&#34;:&#34;GRADIENT_ANGULAR&#34;,&#34;stops&#34;:[{&#34;color&#34;:{&#34;r&#34;:1.0,&#34;g&#34;:0.41960784792900085,&#34;b&#34;:0.062745101749897003,&#34;a&#34;:1.0},&#34;position&#34;:0.19026148319244385},{&#34;color&#34;:{&#34;r&#34;:1.0,&#34;g&#34;:0.51010364294052124,&#34;b&#34;:0.89385569095611572,&#34;a&#34;:1.0},&#34;position&#34;:0.24241268634796143},{&#34;color&#34;:{&#34;r&#34;:0.58039218187332153,&#34;g&#34;:0.31372550129890442,&#34;b&#34;:0.99215686321258545,&#34;a&#34;:1.0},&#34;position&#34;:0.43959093093872070},{&#34;color&#34;:{&#34;r&#34;:0.0,&#34;g&#34;:0.45490196347236633,&#34;b&#34;:0.99215686321258545,&#34;a&#34;:1.0},&#34;position&#34;:0.56439012289047241},{&#34;color&#34;:{&#34;r&#34;:0.58039218187332153,&#34;g&#34;:0.31372550129890442,&#34;b&#34;:0.99215686321258545,&#34;a&#34;:1.0},&#34;position&#34;:0.69780862331390381},{&#34;color&#34;:{&#34;r&#34;:1.0,&#34;g&#34;:0.83921569585800171,&#34;b&#34;:0.20000000298023224,&#34;a&#34;:1.0},&#34;position&#34;:0.96488827466964722}],&#34;stopsVar&#34;:[{&#34;color&#34;:{&#34;r&#34;:1.0,&#34;g&#34;:0.41960784792900085,&#34;b&#34;:0.062745101749897003,&#34;a&#34;:1.0},&#34;position&#34;:0.19026148319244385},{&#34;color&#34;:{&#34;r&#34;:1.0,&#34;g&#34;:0.51010364294052124,&#34;b&#34;:0.89385569095611572,&#34;a&#34;:1.0},&#34;position&#34;:0.24241268634796143},{&#34;color&#34;:{&#34;r&#34;:0.58039218187332153,&#34;g&#34;:0.31372550129890442,&#34;b&#34;:0.99215686321258545,&#34;a&#34;:1.0},&#34;position&#34;:0.43959093093872070},{&#34;color&#34;:{&#34;r&#34;:0.0,&#34;g&#34;:0.45490196347236633,&#34;b&#34;:0.99215686321258545,&#34;a&#34;:1.0},&#34;position&#34;:0.56439012289047241},{&#34;color&#34;:{&#34;r&#34;:0.58039218187332153,&#34;g&#34;:0.31372550129890442,&#34;b&#34;:0.99215686321258545,&#34;a&#34;:1.0},&#34;position&#34;:0.69780862331390381},{&#34;color&#34;:{&#34;r&#34;:1.0,&#34;g&#34;:0.83921569585800171,&#34;b&#34;:0.20000000298023224,&#34;a&#34;:1.0},&#34;position&#34;:0.96488827466964722}],&#34;transform&#34;:{&#34;m00&#34;:-2.9066410064697266,&#34;m01&#34;:6.1356983184814453,&#34;m02&#34;:7.3422846794128418,&#34;m10&#34;:-6.6632900238037109,&#34;m11&#34;:-2.7377004623413086,&#34;m12&#34;:13.827733993530273},&#34;opacity&#34;:1.0,&#34;blendMode&#34;:&#34;NORMAL&#34;,&#34;visible&#34;:true}"/>
<g clip-path="url(#paint7_angular_1_1386_clip_path)" data-figma-skip-parse="true"><g transform="matrix(-0.00375 -0.00412633 0.00477109 -0.00339598 9.06792 9.34674)"><foreignObject x="-4120.68" y="-4120.68" width="8241.35" height="8241.35"><div xmlns="http://www.w3.org/1999/xhtml" style="background:conic-gradient(from 90deg,rgba(20, 203, 138, 1) 0deg,rgba(4, 204, 88, 1) 22.5512deg,rgba(255, 214, 51, 1) 58.2341deg,rgba(255, 214, 51, 1) 78.0887deg,rgba(160, 144, 172, 1) 142.439deg,rgba(97, 97, 255, 1) 180.672deg,rgba(255, 129, 227, 1) 246.749deg,rgba(3, 250, 250, 1) 267.686deg,rgba(57, 201, 255, 1) 306.698deg,rgba(20, 203, 138, 1) 360deg);height:100%;width:100%;opacity:1"></div></foreignObject></g></g><path d="M0.291724 8.0537C0.000828452 8.55846 -0.0624798 9.12116 0.0573009 9.66918C0.177082 10.2172 0.505053 10.7018 0.978471 11.0364C1.45189 11.3709 2.02513 11.5209 2.59266 11.5296C2.77803 11.5296 2.96341 11.5296 3.14593 11.5296C3.57087 11.5238 3.99295 11.5094 4.40933 11.4806C6.04919 11.3017 7.66623 10.5403 8.87829 9.3519C10.0989 8.16932 10.9231 6.57716 11.1826 4.92443C11.2482 4.38218 11.2996 3.83415 11.3309 3.28324C11.3424 3.09864 11.3509 2.91116 11.3595 2.72368C11.3823 2.14681 11.2596 1.5584 10.9459 1.06518C10.6351 0.571957 10.1645 0.217183 9.6255 0.0758499C9.08648 -0.065483 8.51245 -0.0129743 8.00196 0.263923C5.9771 1.22441 6.75646 4.26104 5.22213 5.49553C3.6878 6.73003 1.09026 6.45289 0.291724 8.0537Z" data-figma-gradient-fill="{&#34;type&#34;:&#34;GRADIENT_ANGULAR&#34;,&#34;stops&#34;:[{&#34;color&#34;:{&#34;r&#34;:0.019287083297967911,&#34;g&#34;:0.80359828472137451,&#34;b&#34;:0.34845396876335144,&#34;a&#34;:1.0},&#34;position&#34;:0.062642157077789307},{&#34;color&#34;:{&#34;r&#34;:1.0,&#34;g&#34;:0.83921569585800171,&#34;b&#34;:0.20000000298023224,&#34;a&#34;:1.0},&#34;position&#34;:0.16176138818264008},{&#34;color&#34;:{&#34;r&#34;:1.0,&#34;g&#34;:0.83921569585800171,&#34;b&#34;:0.20000000298023224,&#34;a&#34;:1.0},&#34;position&#34;:0.21691308915615082},{&#34;color&#34;:{&#34;r&#34;:0.63010036945343018,&#34;g&#34;:0.56530267000198364,&#34;b&#34;:0.67759191989898682,&#34;a&#34;:1.0},&#34;position&#34;:0.39566385746002197},{&#34;color&#34;:{&#34;r&#34;:0.38039216399192810,&#34;g&#34;:0.38039216399192810,&#34;b&#34;:1.0,&#34;a&#34;:1.0},&#34;position&#34;:0.50186586380004883},{&#34;color&#34;:{&#34;r&#34;:1.0,&#34;g&#34;:0.50588238239288330,&#34;b&#34;:0.89294117689132690,&#34;a&#34;:1.0},&#34;position&#34;:0.68541431427001953},{&#34;color&#34;:{&#34;r&#34;:0.011764706112444401,&#34;g&#34;:0.98039215803146362,&#34;b&#34;:0.98039215803146362,&#34;a&#34;:1.0},&#34;position&#34;:0.74357092380523682},{&#34;color&#34;:{&#34;r&#34;:0.22616812586784363,&#34;g&#34;:0.79014730453491211,&#34;b&#34;:1.0,&#34;a&#34;:1.0},&#34;position&#34;:0.85193920135498047}],&#34;stopsVar&#34;:[{&#34;color&#34;:{&#34;r&#34;:0.019287083297967911,&#34;g&#34;:0.80359828472137451,&#34;b&#34;:0.34845396876335144,&#34;a&#34;:1.0},&#34;position&#34;:0.062642157077789307},{&#34;color&#34;:{&#34;r&#34;:1.0,&#34;g&#34;:0.83921569585800171,&#34;b&#34;:0.20000000298023224,&#34;a&#34;:1.0},&#34;position&#34;:0.16176138818264008},{&#34;color&#34;:{&#34;r&#34;:1.0,&#34;g&#34;:0.83921569585800171,&#34;b&#34;:0.20000000298023224,&#34;a&#34;:1.0},&#34;position&#34;:0.21691308915615082},{&#34;color&#34;:{&#34;r&#34;:0.63010036945343018,&#34;g&#34;:0.56530267000198364,&#34;b&#34;:0.67759191989898682,&#34;a&#34;:1.0},&#34;position&#34;:0.39566385746002197},{&#34;color&#34;:{&#34;r&#34;:0.38039216399192810,&#34;g&#34;:0.38039216399192810,&#34;b&#34;:1.0,&#34;a&#34;:1.0},&#34;position&#34;:0.50186586380004883},{&#34;color&#34;:{&#34;r&#34;:1.0,&#34;g&#34;:0.50588238239288330,&#34;b&#34;:0.89294117689132690,&#34;a&#34;:1.0},&#34;position&#34;:0.68541431427001953},{&#34;color&#34;:{&#34;r&#34;:0.011764706112444401,&#34;g&#34;:0.98039215803146362,&#34;b&#34;:0.98039215803146362,&#34;a&#34;:1.0},&#34;position&#34;:0.74357092380523682},{&#34;color&#34;:{&#34;r&#34;:0.22616812586784363,&#34;g&#34;:0.79014730453491211,&#34;b&#34;:1.0,&#34;a&#34;:1.0},&#34;position&#34;:0.85193920135498047}],&#34;transform&#34;:{&#34;m00&#34;:-7.5000019073486328,&#34;m01&#34;:9.5421800613403320,&#34;m02&#34;:8.0468320846557617,&#34;m10&#34;:-8.2526683807373047,&#34;m11&#34;:-6.7919659614562988,&#34;m12&#34;:16.869054794311523},&#34;opacity&#34;:1.0,&#34;blendMode&#34;:&#34;NORMAL&#34;,&#34;visible&#34;:true}"/>
<defs>
<clipPath id="paint0_angular_1_1386_clip_path"><path d="M7.99531 17.9616C8.49723 18.2558 9.07084 18.3567 9.61578 18.2356C10.1607 18.1145 10.6426 17.7828 10.9753 17.304C11.308 16.8252 11.4571 16.2454 11.4657 15.6714C11.4657 15.4839 11.4657 15.2965 11.4657 15.1119C11.46 14.6821 11.4456 14.2552 11.4169 13.8341C11.2391 12.1756 10.4819 10.5402 9.30029 9.31432C8.12437 8.07982 6.54119 7.24624 4.89777 6.98377C4.35857 6.91743 3.81364 6.86551 3.26583 6.83378C3.08227 6.82225 2.89585 6.81359 2.70942 6.80494C2.13581 6.78186 1.55072 6.90589 1.06027 7.22317C0.569829 7.53756 0.217055 8.01348 0.0765183 8.55862C-0.0640181 9.10376 0.0134203 9.69217 0.288757 10.2085C1.24383 12.2564 4.23811 11.4603 5.46566 13.012C6.6932 14.5638 6.40639 17.1597 7.99818 17.9674L7.99531 17.9616Z"/></clipPath><clipPath id="paint1_angular_1_1386_clip_path"><path d="M10.2187 0.330764C9.71679 0.0365609 9.14317 -0.0643912 8.59824 0.0567513C8.0533 0.177894 7.57146 0.509593 7.23876 0.988395C6.90607 1.4672 6.75693 2.04695 6.74832 2.62093C6.74832 2.80842 6.74832 2.9959 6.74832 3.1805C6.75406 3.61026 6.7684 4.03715 6.79708 4.45826C6.9749 6.11676 7.73208 7.75218 8.91373 8.97803C10.0896 10.2125 11.6728 11.0461 13.3162 11.3086C13.8554 11.3749 14.4004 11.4268 14.9482 11.4586C15.1317 11.4701 15.3182 11.4788 15.5046 11.4874C16.0782 11.5105 16.6633 11.3865 17.1537 11.0692C17.6442 10.7548 17.997 10.2789 18.1375 9.73373C18.278 9.18859 18.2006 8.60018 17.9253 8.08388C16.9702 6.036 13.9759 6.83208 12.7484 5.2803C11.5208 3.72852 11.8076 1.13261 10.2158 0.324995L10.2187 0.330764Z"/></clipPath><clipPath id="paint2_angular_1_1386_clip_path"><path d="M17.9636 10.2491C18.2561 9.74433 18.3565 9.16746 18.236 8.61944C18.1156 8.07141 17.7857 7.58684 17.3096 7.25226C16.8335 6.91767 16.2571 6.76769 15.6863 6.75903C15.4999 6.75903 15.3135 6.75903 15.1299 6.75903C14.7026 6.7648 14.2781 6.77922 13.8593 6.80807C12.2102 6.9869 10.584 7.74836 9.36504 8.93671C8.1375 10.1193 7.30862 11.7115 7.04763 13.3642C6.98166 13.9064 6.93003 14.4545 6.89849 15.0054C6.88701 15.19 6.87841 15.3775 6.8698 15.5649C6.84686 16.1418 6.97019 16.7302 7.28568 17.2234C7.5983 17.7167 8.07153 18.0714 8.6136 18.2128C9.15567 18.3541 9.74076 18.2762 10.2541 17.9993C12.2905 17.0388 11.4989 14.0276 13.0419 12.7931C14.585 11.5586 17.1605 11.8499 17.9636 10.2491Z"/></clipPath><clipPath id="paint3_angular_1_1386_clip_path"><path d="M0.293378 8.0537C0.000833148 8.55846 -0.062834 9.12116 0.0576257 9.66918C0.178085 10.2172 0.507916 10.7018 0.984018 11.0364C1.46012 11.3709 2.03661 11.5209 2.60736 11.5296C2.79378 11.5296 2.98021 11.5296 3.16376 11.5296C3.59111 11.5238 4.01559 11.5094 4.43433 11.4806C6.08348 11.3017 7.70968 10.5403 8.92862 9.3519C10.1562 8.16932 10.985 6.57716 11.246 4.92443C11.312 4.38218 11.3636 3.83415 11.3952 3.28324C11.4067 3.09864 11.4153 2.91116 11.4239 2.72368C11.4468 2.14681 11.3235 1.5584 11.008 1.06518C10.6954 0.571957 10.2221 0.217183 9.68006 0.0758499C9.13799 -0.065483 8.56071 -0.0129743 8.04732 0.263923C6.01098 1.22441 6.79476 4.26104 5.25173 5.49553C3.7087 6.73003 1.09644 6.45289 0.293378 8.0537Z"/></clipPath><clipPath id="paint4_angular_1_1386_clip_path"><path d="M7.95029 17.9616C8.44937 18.2558 9.01976 18.3567 9.56162 18.2356C10.1035 18.1145 10.5826 17.7828 10.9134 17.304C11.2443 16.8252 11.3926 16.2454 11.4011 15.6714C11.4011 15.4839 11.4011 15.2965 11.4011 15.1119C11.3954 14.6821 11.3811 14.2552 11.3526 13.8341C11.1758 12.1756 10.4229 10.5402 9.24791 9.31432C8.07862 8.07982 6.50436 7.24624 4.87021 6.98377C4.33405 6.91743 3.79218 6.86551 3.24747 6.83378C3.06494 6.82225 2.87957 6.81359 2.6942 6.80494C2.12381 6.78186 1.54202 6.90589 1.05434 7.22317C0.566662 7.53756 0.215875 8.01348 0.0761313 8.55862C-0.0636128 9.10376 0.0133891 9.69217 0.287174 10.2085C1.23686 12.2564 4.21427 11.4603 5.43489 13.012C6.65551 14.5638 6.37032 17.1597 7.95314 17.9674L7.95029 17.9616Z"/></clipPath><clipPath id="paint5_angular_1_1386_clip_path"><path d="M10.1612 0.330764C9.66213 0.0365609 9.09174 -0.0643912 8.54988 0.0567513C8.00801 0.177894 7.52889 0.509593 7.19807 0.988395C6.86724 1.4672 6.71894 2.04695 6.71039 2.62093C6.71039 2.80842 6.71039 2.9959 6.71039 3.1805C6.71609 3.61026 6.73035 4.03715 6.75887 4.45826C6.93569 6.11676 7.6886 7.75218 8.86359 8.97803C10.0329 10.2125 11.6071 11.0461 13.2413 11.3086C13.7774 11.3749 14.3193 11.4268 14.864 11.4586C15.0466 11.4701 15.2319 11.4788 15.4173 11.4874C15.9877 11.5105 16.5695 11.3865 17.0572 11.0692C17.5448 10.7548 17.8956 10.2789 18.0354 9.73373C18.1751 9.18859 18.0981 8.60018 17.8243 8.08388C16.8746 6.036 13.8972 6.83208 12.6766 5.2803C11.456 3.72852 11.7412 1.13261 10.1584 0.324995L10.1612 0.330764Z"/></clipPath><clipPath id="paint6_angular_1_1386_clip_path"><path d="M17.862 10.2491C18.1529 9.74433 18.2527 9.16746 18.1329 8.61944C18.0132 8.07141 17.6852 7.58684 17.2118 7.25226C16.7384 6.91767 16.1651 6.76769 15.5976 6.75903C15.4122 6.75903 15.2268 6.75903 15.0443 6.75903C14.6194 6.7648 14.1973 6.77922 13.7809 6.80807C12.1411 6.9869 10.524 7.74836 9.31196 8.93671C8.09134 10.1193 7.26713 11.7115 7.00761 13.3642C6.94201 13.9064 6.89068 14.4545 6.85931 15.0054C6.8479 15.19 6.83934 15.3775 6.83079 15.5649C6.80797 16.1418 6.9306 16.7302 7.24432 17.2234C7.55518 17.7167 8.02574 18.0714 8.56476 18.2128C9.10377 18.3541 9.68556 18.2762 10.1961 17.9993C12.2209 17.0388 11.4338 14.0276 12.9681 12.7931C14.5025 11.5586 17.0635 11.8499 17.862 10.2491Z"/></clipPath><clipPath id="paint7_angular_1_1386_clip_path"><path d="M0.291724 8.0537C0.000828452 8.55846 -0.0624798 9.12116 0.0573009 9.66918C0.177082 10.2172 0.505053 10.7018 0.978471 11.0364C1.45189 11.3709 2.02513 11.5209 2.59266 11.5296C2.77803 11.5296 2.96341 11.5296 3.14593 11.5296C3.57087 11.5238 3.99295 11.5094 4.40933 11.4806C6.04919 11.3017 7.66623 10.5403 8.87829 9.3519C10.0989 8.16932 10.9231 6.57716 11.1826 4.92443C11.2482 4.38218 11.2996 3.83415 11.3309 3.28324C11.3424 3.09864 11.3509 2.91116 11.3595 2.72368C11.3823 2.14681 11.2596 1.5584 10.9459 1.06518C10.6351 0.571957 10.1645 0.217183 9.6255 0.0758499C9.08648 -0.065483 8.51245 -0.0129743 8.00196 0.263923C5.9771 1.22441 6.75646 4.26104 5.22213 5.49553C3.6878 6.73003 1.09026 6.45289 0.291724 8.0537Z"/></clipPath></defs>
</svg>
