<svg width="16" height="16" viewBox="0 0 16 16" fill="none" xmlns="http://www.w3.org/2000/svg">
<path d="M8.07724 1C8.40861 1 8.67724 1.26863 8.67724 1.6V3.14743C8.67724 3.4788 8.40861 3.74743 8.07724 3.74743C7.74587 3.74743 7.47724 3.4788 7.47724 3.14743V1.6C7.47724 1.26863 7.74587 1 8.07724 1Z" fill="#323338"/>
<path d="M3.52934 2.64823C3.76476 2.41502 4.14465 2.4168 4.37786 2.65221L5.47128 3.75592C5.70449 3.99133 5.70271 4.37123 5.4673 4.60444C5.23189 4.83766 4.852 4.83588 4.61878 4.60047L3.52537 3.49675C3.29215 3.26134 3.29393 2.88145 3.52934 2.64823Z" fill="#323338"/>
<path d="M12.6251 2.64823C12.8605 2.88145 12.8623 3.26134 12.6291 3.49675L11.5357 4.60047C11.3025 4.83588 10.9226 4.83766 10.6872 4.60444C10.4518 4.37123 10.45 3.99133 10.6832 3.75592L11.7766 2.65221C12.0098 2.4168 12.3897 2.41502 12.6251 2.64823Z" fill="#323338"/>
<path fill-rule="evenodd" clip-rule="evenodd" d="M7.9889 4.79178C8.73969 4.77617 9.48099 4.96164 10.136 5.32895C10.791 5.69626 11.3358 6.23206 11.714 6.88081C12.0923 7.52956 12.2901 8.26766 12.2871 9.0186L12.287 9.02369C12.2773 9.79773 12.0544 10.5541 11.6428 11.2097C11.6068 11.2671 11.5695 11.3235 11.5309 11.3789C11.493 11.4331 11.4555 11.4868 11.4182 11.5401C11.1331 11.9474 10.866 12.329 10.6562 12.727C10.4228 13.1697 10.2865 13.604 10.2865 14.0244C10.2792 14.2853 10.1704 14.5331 9.98349 14.7153C9.79655 14.8974 9.546 14.9995 9.28499 15L9.28395 15H6.87054L6.86945 15C6.60832 14.9995 6.35768 14.8972 6.17085 14.7147C5.98402 14.5323 5.87556 14.2842 5.86887 14.0231C5.86887 13.6123 5.736 13.1885 5.5073 12.7563C5.29312 12.3515 5.0161 11.9627 4.72032 11.5476C4.69542 11.5127 4.67039 11.4776 4.64525 11.4422C4.61211 11.3956 4.57988 11.3483 4.54858 11.3003C4.13862 10.6711 3.90437 9.94375 3.87012 9.19358C3.83587 8.44341 4.00287 7.69773 4.3538 7.03382C4.70474 6.36991 5.22684 5.81194 5.86599 5.41772C6.50515 5.0235 7.23811 4.80739 7.9889 4.79178ZM7.06197 13.8H9.09329C9.13275 13.1975 9.33904 12.6524 9.59462 12.1675C9.84231 11.6976 10.156 11.25 10.4362 10.8502C10.4737 10.7968 10.5105 10.7443 10.5464 10.6927C10.5741 10.653 10.6008 10.6127 10.6265 10.5717C10.9203 10.1037 11.0797 9.56379 11.0871 9.01125C11.0888 8.47517 10.9474 7.94834 10.6773 7.4852C10.4069 7.02134 10.0173 6.63824 9.54902 6.3756C9.0807 6.11297 8.55066 5.98036 8.01384 5.99152C7.47702 6.00268 6.95294 6.15721 6.49594 6.43907C6.03894 6.72094 5.66563 7.1199 5.41471 7.5946C5.16379 8.06931 5.04438 8.60248 5.06887 9.13886C5.09336 9.67524 5.26085 10.1953 5.55398 10.6452C5.57636 10.6795 5.5994 10.7133 5.6231 10.7467C5.64975 10.7841 5.67682 10.8221 5.70421 10.8605C5.99131 11.2629 6.31446 11.7159 6.56799 12.1951C6.82008 12.6716 7.02268 13.2075 7.06197 13.8Z" fill="#323338"/>
<path d="M1 6.27233C1 5.94096 1.26863 5.67233 1.6 5.67233H3.14743C3.4788 5.67233 3.74743 5.94096 3.74743 6.27233C3.74743 6.60371 3.4788 6.87233 3.14743 6.87233H1.6C1.26863 6.87233 1 6.60371 1 6.27233Z" fill="#323338"/>
<path d="M12.4071 6.27233C12.4071 5.94096 12.6757 5.67233 13.0071 5.67233H14.5545C14.8859 5.67233 15.1545 5.94096 15.1545 6.27233C15.1545 6.60371 14.8859 6.87233 14.5545 6.87233H13.0071C12.6757 6.87233 12.4071 6.60371 12.4071 6.27233Z" fill="#323338"/>
</svg>
