<svg width="16" height="16" viewBox="0 0 16 16" fill="none" xmlns="http://www.w3.org/2000/svg">
<path fill-rule="evenodd" clip-rule="evenodd" d="M5.59785 3.50554C5.04294 3.50554 4.51075 3.72598 4.11836 4.11836C3.72598 4.51075 3.50554 5.04294 3.50554 5.59785C3.50554 6.15276 3.72598 6.68495 4.11836 7.07733C4.51075 7.46972 5.04294 7.69016 5.59785 7.69016C6.15276 7.69016 6.68495 7.46972 7.07733 7.07733C7.46972 6.68495 7.69016 6.15276 7.69016 5.59785C7.69016 5.04294 7.46972 4.51075 7.07733 4.11836C6.68495 3.72598 6.15276 3.50554 5.59785 3.50554ZM4.96689 4.96689C5.13423 4.79955 5.3612 4.70554 5.59785 4.70554C5.8345 4.70554 6.06147 4.79955 6.22881 4.96689C6.39615 5.13423 6.49016 5.3612 6.49016 5.59785C6.49016 5.8345 6.39615 6.06147 6.22881 6.22881C6.06147 6.39615 5.8345 6.49016 5.59785 6.49016C5.3612 6.49016 5.13423 6.39615 4.96689 6.22881C4.79955 6.06147 4.70554 5.8345 4.70554 5.59785C4.70554 5.3612 4.79955 5.13423 4.96689 4.96689Z" fill="#323338"/>
<path fill-rule="evenodd" clip-rule="evenodd" d="M1.80005 4.00005C1.80005 2.78502 2.78502 1.80005 4.00005 1.80005H11.8858C13.1008 1.80005 14.0858 2.78502 14.0858 4.00005V11.8858C14.0858 13.1008 13.1008 14.0858 11.8858 14.0858H4.00005C2.78502 14.0858 1.80005 13.1008 1.80005 11.8858V4.00005ZM12.8858 4.00005V8.34947L10.5932 6.70369C10.4112 6.56357 10.1873 6.48841 9.9573 6.4906C9.72093 6.49284 9.49258 6.5766 9.31082 6.72774C9.30266 6.73453 9.29467 6.74153 9.28688 6.74875L3.1564 12.4229C3.05741 12.2677 3.00005 12.0834 3.00005 11.8858V4.00005C3.00005 3.44776 3.44776 3.00005 4.00005 3.00005H11.8858C12.438 3.00005 12.8858 3.44776 12.8858 4.00005ZM11.8858 12.8858H4.42292L9.98101 7.7414L12.8858 9.82666V11.8858C12.8858 12.438 12.438 12.8858 11.8858 12.8858Z" fill="#323338"/>
</svg>
