<svg width="16" height="16" viewBox="0 0 16 16" fill="none" xmlns="http://www.w3.org/2000/svg">
<path d="M4.60001 4.79974C4.26864 4.79974 4.00001 5.06835 4.00001 5.39969C4.00001 5.73103 4.26864 5.99963 4.60001 5.99963H8.20001C8.53138 5.99963 8.80001 5.73103 8.80001 5.39969C8.80001 5.06835 8.53138 4.79974 8.20001 4.79974H4.60001Z" fill="#323338"/>
<path d="M5.60001 7.79947C5.60001 7.46813 5.86864 7.19952 6.20001 7.19952H9.80001C10.1314 7.19952 10.4 7.46813 10.4 7.79947C10.4 8.13081 10.1314 8.39941 9.80001 8.39941H6.20001C5.86864 8.39941 5.60001 8.13081 5.60001 7.79947Z" fill="#323338"/>
<path d="M7.80001 9.5993C7.46864 9.5993 7.20001 9.86791 7.20001 10.1992C7.20001 10.5306 7.46864 10.7992 7.80001 10.7992H11.4C11.7314 10.7992 12 10.5306 12 10.1992C12 9.86791 11.7314 9.5993 11.4 9.5993H7.80001Z" fill="#323338"/>
<path fill-rule="evenodd" clip-rule="evenodd" d="M1.60001 3.59985C1.60001 2.71628 2.31635 2 3.20001 2H12.8C13.6837 2 14.4 2.71628 14.4 3.59985V12.399C14.4 13.2826 13.6837 13.9989 12.8 13.9989H3.20001C2.31635 13.9989 1.60001 13.2826 1.60001 12.399V3.59985ZM3.20001 3.19989H12.8C13.0209 3.19989 13.2 3.37896 13.2 3.59985V12.399C13.2 12.6199 13.0209 12.799 12.8 12.799H3.20001C2.97909 12.799 2.80001 12.6199 2.80001 12.399V3.59985C2.80001 3.37896 2.97909 3.19989 3.20001 3.19989Z" fill="#323338"/>
</svg>
