<svg width="16" height="16" viewBox="0 0 16 16" fill="none" xmlns="http://www.w3.org/2000/svg">
<path fill-rule="evenodd" clip-rule="evenodd" d="M7.19998 2C6.31632 2 5.59998 2.71634 5.59998 3.6V5.41405C5.36464 5.27792 5.09141 5.2 4.79998 5.2H3.19998C2.31632 5.2 1.59998 5.91634 1.59998 6.8V12.4C1.59998 13.2837 2.31632 14 3.19998 14H12.8C13.6836 14 14.4 13.2837 14.4 12.4V10C14.4 9.11634 13.6836 8.4 12.8 8.4H11.2C10.9085 8.4 10.6353 8.47792 10.4 8.61405V3.6C10.4 2.71634 9.68363 2 8.79998 2H7.19998ZM8.79998 3.2H7.19998C6.97906 3.2 6.79998 3.37909 6.79998 3.6V12.8H9.19998V3.6C9.19998 3.37909 9.02089 3.2 8.79998 3.2ZM12.8 9.6H11.2C10.9791 9.6 10.8 9.77909 10.8 10V12.8H12.8C13.0209 12.8 13.2 12.6209 13.2 12.4V10C13.2 9.77909 13.0209 9.6 12.8 9.6ZM3.19998 6.4H4.79998C5.02089 6.4 5.19998 6.57909 5.19998 6.8V12.8H3.19998C2.97906 12.8 2.79998 12.6209 2.79998 12.4V6.8C2.79998 6.57909 2.97906 6.4 3.19998 6.4Z" fill="#323338"/>
</svg>
