<svg width="20" height="20" viewBox="0 0 20 20" fill="none" xmlns="http://www.w3.org/2000/svg">
<path fill-rule="evenodd" clip-rule="evenodd" d="M4.96796 10.5908C5.42558 10.1333 6.14988 10.1056 6.64081 10.5059L6.73553 10.5908L9.54608 13.4004L9.63104 13.4961C10.0312 13.987 10.0027 14.7114 9.5451 15.1689L6.54706 18.167L6.45233 18.2529C5.99415 18.6267 5.33244 18.6265 4.87421 18.2529L4.77948 18.167L1.96991 15.3574C1.48179 14.8693 1.48179 14.078 1.96991 13.5898L4.96796 10.5908ZM3.20721 14.4736L5.66327 16.9297L8.3078 14.2852L5.85175 11.8281L3.20721 14.4736Z" fill="#323338"/>
<path fill-rule="evenodd" clip-rule="evenodd" d="M16.8781 10.5762C17.5081 10.6404 18.0001 11.1724 18.0002 11.8193V16.75L17.9933 16.8779C17.9334 17.4659 17.466 17.9332 16.8781 17.9932L16.7502 18H11.8195L11.6916 17.9932C11.1036 17.9333 10.6363 17.4659 10.5764 16.8779L10.5695 16.75V11.8193C10.5696 11.1724 11.0615 10.6403 11.6916 10.5762L11.8195 10.5693H16.7502L16.8781 10.5762ZM12.0695 16.5H16.5002V12.0693H12.0695V16.5Z" fill="#323338"/>
<path d="M14.2853 1.72363C14.5185 1.72382 14.7273 1.88354 14.801 2.10449L15.4514 4.17969C15.5005 4.35164 15.6485 4.48742 15.8205 4.54883L17.8957 5.19922C18.1289 5.27286 18.2763 5.48168 18.2766 5.71484C18.2766 5.9482 18.1168 6.15775 17.8957 6.23145L15.8205 6.88184C15.6485 6.93096 15.5005 7.07903 15.4514 7.25098L14.801 9.32617C14.7273 9.5594 14.5185 9.70686 14.2853 9.70703C14.052 9.70703 13.8424 9.54725 13.7687 9.32617L13.1183 7.25098C13.0692 7.07903 12.9212 6.94325 12.7492 6.88184L10.674 6.23145C10.4407 6.15775 10.2932 5.9482 10.2932 5.71484C10.2934 5.48168 10.4531 5.27286 10.674 5.19922L12.7492 4.54883C12.9212 4.4997 13.0692 4.35164 13.1183 4.17969L13.7687 2.10449C13.8424 1.87113 14.052 1.72363 14.2853 1.72363Z" fill="#323338"/>
<path fill-rule="evenodd" clip-rule="evenodd" d="M8.25702 2.00684C8.88697 2.07121 9.37909 2.60306 9.37909 3.25V8.18066L9.37225 8.30859C9.31234 8.89643 8.84482 9.36378 8.25702 9.42383L8.12909 9.43066H3.19843L3.0705 9.42383C2.48243 9.36405 2.01522 8.89661 1.95526 8.30859L1.94843 8.18066V3.25C1.94843 2.60285 2.44025 2.07092 3.0705 2.00684L3.19843 2H8.12909L8.25702 2.00684ZM3.44843 7.93066H7.87909V3.5H3.44843V7.93066Z" fill="#323338"/>
</svg>
