<svg width="20" height="20" viewBox="0 0 20 20" fill="none" xmlns="http://www.w3.org/2000/svg">
<path fill-rule="evenodd" clip-rule="evenodd" d="M3.83108 3.62015C5.674 2.44608 8.11985 2.98822 9.29397 4.83108L9.97756 5.90433L10.6621 4.83108C11.8362 2.98818 14.2821 2.44618 16.125 3.62015C17.968 4.79424 18.5101 7.24008 17.336 9.08304L13.3135 15.3975C12.9929 15.9007 12.5767 16.3057 12.1045 16.6065L12.1055 16.6084C12.094 16.6157 12.0818 16.6218 12.0703 16.6289C12.0593 16.6358 12.0482 16.6427 12.0371 16.6494C11.4552 17.0042 10.8169 17.1901 10.1787 17.2217C10.1455 17.2234 10.1124 17.2267 10.0791 17.2276H9.87698C9.84176 17.2266 9.80665 17.2236 9.77151 17.2217C9.74386 17.2203 9.71615 17.2198 9.6885 17.2178C9.68459 17.2175 9.68069 17.2171 9.67678 17.2168C9.11117 17.1743 8.54722 17.0102 8.02542 16.7139L7.89358 16.6348C7.89059 16.6329 7.88778 16.6308 7.88479 16.6289C7.87357 16.6219 7.86178 16.6155 7.85061 16.6084C7.30631 16.2616 6.876 15.8036 6.56936 15.2832L2.62014 9.08304C1.44611 7.24012 1.98821 4.79425 3.83108 3.62015ZM15.3194 4.88479C14.1753 4.15603 12.6568 4.49289 11.9278 5.63675L7.90432 11.9512C7.39642 12.7485 7.40707 13.7271 7.8467 14.4942L7.90823 14.5908C8.04263 14.8018 8.20402 14.9852 8.38479 15.1397C8.45391 15.1984 8.52667 15.2539 8.60354 15.3057C8.65055 15.3375 8.69921 15.3663 8.74807 15.3946C9.88081 16.0508 11.3388 15.7054 12.0489 14.5908L16.0713 8.27737C16.8003 7.1331 16.4636 5.61377 15.3194 4.88479ZM8.02932 5.63675C7.30031 4.49257 5.78097 4.15584 4.63674 4.88479C3.49257 5.61379 3.15587 7.13314 3.88479 8.27737L6.23928 11.9727C6.33837 11.6883 6.47086 11.4105 6.63967 11.1455L9.08792 7.30081L8.02932 5.63675Z" fill="#676879"/>
</svg>
