<svg width="20" height="20" viewBox="0 0 20 20" fill="none" xmlns="http://www.w3.org/2000/svg">
<path fill-rule="evenodd" clip-rule="evenodd" d="M15.7907 9.45566C15.6307 9.45566 15.4707 9.46566 15.3207 9.49566L15.3707 9.41566C15.9607 8.50566 16.0207 7.33566 15.5407 6.36566C15.0507 5.37566 14.0507 4.71566 12.9307 4.68566C11.8107 4.65566 10.8007 5.26566 10.2607 6.21566L9.96075 6.71566C9.92075 6.59566 9.87075 6.47566 9.81075 6.35566C9.31075 5.37566 8.33075 4.71566 7.21075 4.68566C6.10075 4.65566 5.09075 5.24566 4.54075 6.18566L1.84075 10.6557C1.28075 11.5857 1.25075 12.7557 1.76075 13.7157C2.27075 14.6857 3.28075 15.3157 4.40075 15.3157C5.46075 15.3157 6.42075 14.7457 6.96075 13.8557L7.30075 13.2857C7.35075 13.4357 7.41075 13.5757 7.49075 13.7157C8.00075 14.6857 9.00075 15.3157 10.1207 15.3157C11.1807 15.3157 12.1407 14.7457 12.6807 13.8557L13.0107 13.3157C13.4007 14.4757 14.5007 15.3157 15.7907 15.3157C17.4107 15.3157 18.7207 14.0057 18.7207 12.3857C18.7207 10.7657 17.4107 9.45566 15.7907 9.45566ZM8.38075 8.60566L5.68075 13.0857C5.41075 13.5457 4.92075 13.8157 4.41075 13.8157C3.99075 13.8157 3.60075 13.6357 3.32075 13.3257C3.24075 13.2357 3.16075 13.1257 3.10075 13.0157C3.04075 12.9157 3.00075 12.8057 2.97075 12.6957C2.85075 12.2757 2.91075 11.8157 3.14075 11.4357L5.84075 6.95566C6.12075 6.46566 6.63075 6.17566 7.17075 6.18566C7.72075 6.20566 8.21075 6.52566 8.46075 7.02566C8.71075 7.52566 8.68075 8.13566 8.38075 8.60566ZM14.0907 8.61566L11.3907 13.0857C11.1207 13.5357 10.6407 13.8157 10.1207 13.8157C9.58075 13.8157 9.07075 13.5057 8.81075 13.0157C8.55075 12.5257 8.56075 11.9157 8.85075 11.4357L11.5507 6.96566C11.8207 6.46566 12.3407 6.16566 12.8907 6.18566C13.4407 6.20566 13.9407 6.52566 14.1907 7.03566C14.4407 7.54566 14.4007 8.15566 14.0907 8.62566V8.61566ZM15.7907 13.8257C15.0007 13.8257 14.3607 13.1857 14.3607 12.3957C14.3607 11.6057 15.0007 10.9657 15.7907 10.9657C16.5807 10.9657 17.2207 11.6057 17.2207 12.3957C17.2207 13.1857 16.5807 13.8257 15.7907 13.8257Z" fill="#676879"/>
</svg>
