<svg width="20" height="20" viewBox="0 0 20 20" fill="none" xmlns="http://www.w3.org/2000/svg">
<path d="M15.5303 6.53033C15.8232 6.23744 15.8232 5.76256 15.5303 5.46967C15.2374 5.17678 14.7626 5.17678 14.4697 5.46967L10.4697 9.46967C10.1768 9.76256 10.1768 10.2374 10.4697 10.5303L14.4697 14.5303C14.7626 14.8232 15.2374 14.8232 15.5303 14.5303C15.8232 14.2374 15.8232 13.7626 15.5303 13.4697L12.0607 10L15.5303 6.53033Z" fill="#676879"/>
<path d="M9.53033 6.53033C9.82322 6.23744 9.82322 5.76256 9.53033 5.46967C9.23744 5.17678 8.76256 5.17678 8.46967 5.46967L4.46967 9.46967C4.17678 9.76256 4.17678 10.2374 4.46967 10.5303L8.46967 14.5303C8.76256 14.8232 9.23744 14.8232 9.53033 14.5303C9.82322 14.2374 9.82322 13.7626 9.53033 13.4697L6.06066 10L9.53033 6.53033Z" fill="#676879"/>
</svg>
