<svg width="20" height="20" viewBox="0 0 20 20" fill="none" xmlns="http://www.w3.org/2000/svg">
<path fill-rule="evenodd" clip-rule="evenodd" d="M10 2.05005C10.4143 2.05005 10.75 2.38584 10.75 2.80005V3.61064C12.0546 3.75828 13.2785 4.34342 14.2159 5.28085C15.309 6.37395 15.9231 7.8565 15.9231 9.40236C15.9231 11.7406 16.1727 13.0549 16.3959 13.758C16.5068 14.1076 16.6088 14.2985 16.6645 14.3869C16.6835 14.4169 16.697 14.435 16.7038 14.4436C16.9179 14.6456 16.9953 14.9566 16.8964 15.2378C16.7908 15.538 16.5072 15.7389 16.1889 15.7389H12.9529C12.9516 15.8038 12.9418 15.8696 12.9226 15.9349C12.7439 16.545 12.3725 17.081 11.864 17.4624C11.3554 17.8438 10.7371 18.05 10.1015 18.05C9.46584 18.05 8.84746 17.8438 8.33891 17.4624C7.83037 17.081 7.45905 16.545 7.28027 15.9349C7.26115 15.8696 7.2513 15.8038 7.24997 15.7389H4.00001C3.71313 15.7389 3.45138 15.5753 3.32575 15.3174C3.20248 15.0643 3.23145 14.764 3.39963 14.5394C3.40133 14.5369 3.40486 14.5317 3.41004 14.5235C3.42459 14.5005 3.45231 14.4543 3.48918 14.3812C3.56285 14.2353 3.67358 13.9814 3.78854 13.5918C4.01863 12.8121 4.26574 11.4886 4.26574 9.40236C4.26574 7.8565 4.87984 6.37395 5.97293 5.28085C6.865 4.38878 8.01646 3.81573 9.25004 3.63513V2.80005C9.25004 2.38584 9.58582 2.05005 10 2.05005ZM8.80705 15.7389C8.90698 15.9444 9.05465 16.1242 9.2389 16.2624C9.488 16.4492 9.79062 16.55 10.1015 16.55C10.4123 16.55 10.7149 16.4492 10.964 16.2624C11.1483 16.1242 11.2959 15.9444 11.3959 15.7389H8.80705ZM7.03359 6.34151C7.84538 5.52973 8.9464 5.07367 10.0944 5.07367C11.2425 5.07367 12.3435 5.52973 13.1553 6.34151C13.9671 7.1533 14.4231 8.25432 14.4231 9.40236C14.4231 11.8354 14.6814 13.3144 14.9661 14.2117L14.9748 14.2389H5.15815C5.18119 14.1683 5.20426 14.0941 5.22721 14.0163C5.50499 13.075 5.76574 11.6052 5.76574 9.40236C5.76574 8.25432 6.2218 7.1533 7.03359 6.34151Z" fill="#323338"/>
</svg>
