<svg width="16" height="16" viewBox="0 0 16 16" fill="none" xmlns="http://www.w3.org/2000/svg">
<path fill-rule="evenodd" clip-rule="evenodd" d="M6.92154 1.89844C5.57648 1.89844 4.28652 2.43276 3.33542 3.38385C2.38433 4.33495 1.85001 5.62491 1.85001 6.96997C1.85001 8.31502 2.38433 9.60498 3.33542 10.5561C4.28652 11.5072 5.57648 12.0415 6.92154 12.0415C8.06503 12.0415 9.16871 11.6553 10.0582 10.9552L13.1269 14.0243C13.3612 14.2586 13.7411 14.2586 13.9754 14.0243C14.2097 13.79 14.2097 13.4101 13.9754 13.1758L10.9067 10.1066C11.6069 9.21715 11.9931 8.11347 11.9931 6.96997C11.9931 5.62491 11.4587 4.33495 10.5077 3.38385C9.55655 2.43276 8.26659 1.89844 6.92154 1.89844ZM9.67277 9.69384C10.3903 8.96912 10.7931 7.99031 10.7931 6.96997C10.7931 5.94317 10.3852 4.95844 9.65912 4.23238C8.93307 3.50633 7.94833 3.09844 6.92154 3.09844C5.89474 3.09844 4.91 3.50633 4.18395 4.23238C3.4579 4.95844 3.05001 5.94317 3.05001 6.96997C3.05001 7.99676 3.4579 8.9815 4.18395 9.70755C4.91 10.4336 5.89474 10.8415 6.92154 10.8415C7.9419 10.8415 8.92073 10.4387 9.64545 9.72116C9.64985 9.71647 9.65434 9.71183 9.65893 9.70725C9.66349 9.70269 9.6681 9.69822 9.67277 9.69384Z" fill="#676879"/>
</svg>
