<svg width="26" height="26" viewBox="0 0 26 26" fill="none" xmlns="http://www.w3.org/2000/svg">
<g clip-path="url(#paint0_angular_4_4205_clip_path)" data-figma-skip-parse="true"><g transform="matrix(0.00471518 0.000876099 -0.00152144 0.00482733 13.581 12.1867)"><foreignObject x="-3213" y="-3213" width="6426" height="6426"><div xmlns="http://www.w3.org/1999/xhtml" style="background:conic-gradient(from 90deg,rgba(250, 210, 57, 1) 0deg,rgba(255, 214, 51, 1) 4.65807deg,rgba(148, 80, 253, 1) 86.0171deg,rgba(72, 0, 255, 1) 116.533deg,rgba(3, 250, 250, 1) 142.413deg,rgba(97, 97, 255, 1) 215.412deg,rgba(250, 210, 57, 1) 360deg);height:100%;width:100%;opacity:1"></div></foreignObject></g></g><path d="M11.1935 25.146C11.8962 25.5579 12.6993 25.6992 13.4622 25.5296C14.2251 25.36 14.8997 24.8957 15.3654 24.2253C15.8312 23.555 16.04 22.7434 16.0521 21.9398C16.0521 21.6773 16.0521 21.4148 16.0521 21.1564C16.044 20.5547 16.024 19.9571 15.9838 19.3675C15.7348 17.0456 14.6748 14.756 13.0205 13.0398C11.3742 11.3116 9.15775 10.1445 6.85697 9.77708C6.10209 9.6842 5.33918 9.61152 4.57225 9.5671C4.31527 9.55095 4.05427 9.53883 3.79328 9.52672C2.99021 9.49441 2.17109 9.66805 1.48447 10.1122C0.797847 10.5524 0.303962 11.2187 0.107211 11.9819C-0.0895398 12.7451 0.0188739 13.5688 0.404345 14.2917C1.74145 17.1587 5.93344 16.0442 7.652 18.2167C9.37056 20.3892 8.96903 24.0234 11.1975 25.1541L11.1935 25.146Z" data-figma-gradient-fill="{&#34;type&#34;:&#34;GRADIENT_ANGULAR&#34;,&#34;stops&#34;:[{&#34;color&#34;:{&#34;r&#34;:1.0,&#34;g&#34;:0.83921569585800171,&#34;b&#34;:0.20000000298023224,&#34;a&#34;:1.0},&#34;position&#34;:0.012939095497131348},{&#34;color&#34;:{&#34;r&#34;:0.58039218187332153,&#34;g&#34;:0.31372550129890442,&#34;b&#34;:0.99215686321258545,&#34;a&#34;:1.0},&#34;position&#34;:0.23893648386001587},{&#34;color&#34;:{&#34;r&#34;:0.28333333134651184,&#34;g&#34;:0.0,&#34;b&#34;:1.0,&#34;a&#34;:1.0},&#34;position&#34;:0.32370311021804810},{&#34;color&#34;:{&#34;r&#34;:0.011764706112444401,&#34;g&#34;:0.98039215803146362,&#34;b&#34;:0.98039215803146362,&#34;a&#34;:1.0},&#34;position&#34;:0.39559286832809448},{&#34;color&#34;:{&#34;r&#34;:0.38039216399192810,&#34;g&#34;:0.38039216399192810,&#34;b&#34;:1.0,&#34;a&#34;:1.0},&#34;position&#34;:0.59836751222610474}],&#34;stopsVar&#34;:[{&#34;color&#34;:{&#34;r&#34;:1.0,&#34;g&#34;:0.83921569585800171,&#34;b&#34;:0.20000000298023224,&#34;a&#34;:1.0},&#34;position&#34;:0.012939095497131348},{&#34;color&#34;:{&#34;r&#34;:0.58039218187332153,&#34;g&#34;:0.31372550129890442,&#34;b&#34;:0.99215686321258545,&#34;a&#34;:1.0},&#34;position&#34;:0.23893648386001587},{&#34;color&#34;:{&#34;r&#34;:0.28333333134651184,&#34;g&#34;:0.0,&#34;b&#34;:1.0,&#34;a&#34;:1.0},&#34;position&#34;:0.32370311021804810},{&#34;color&#34;:{&#34;r&#34;:0.011764706112444401,&#34;g&#34;:0.98039215803146362,&#34;b&#34;:0.98039215803146362,&#34;a&#34;:1.0},&#34;position&#34;:0.39559286832809448},{&#34;color&#34;:{&#34;r&#34;:0.38039216399192810,&#34;g&#34;:0.38039216399192810,&#34;b&#34;:1.0,&#34;a&#34;:1.0},&#34;position&#34;:0.59836751222610474}],&#34;transform&#34;:{&#34;m00&#34;:9.4303627014160156,&#34;m01&#34;:-3.0428757667541504,&#34;m02&#34;:10.387244224548340,&#34;m10&#34;:1.7521985769271851,&#34;m11&#34;:9.6546592712402344,&#34;m12&#34;:6.4832873344421387},&#34;opacity&#34;:1.0,&#34;blendMode&#34;:&#34;NORMAL&#34;,&#34;visible&#34;:true}"/>
<g clip-path="url(#paint1_angular_4_4205_clip_path)" data-figma-skip-parse="true"><g transform="matrix(0.00695702 0.00768238 -0.0068001 0.00622805 12.6107 12.6409)"><foreignObject x="-2017.22" y="-2017.22" width="4034.44" height="4034.44"><div xmlns="http://www.w3.org/1999/xhtml" style="background:conic-gradient(from 90deg,rgba(115, 196, 240, 1) 0deg,rgba(3, 250, 250, 1) 13.7418deg,rgba(97, 97, 255, 1) 178.791deg,rgba(255, 214, 51, 1) 252.021deg,rgba(255, 107, 16, 1) 274.968deg,rgba(255, 129, 227, 1) 297.134deg,rgba(255, 129, 227, 1) 342.947deg,rgba(115, 196, 240, 1) 360deg);height:100%;width:100%;opacity:1"></div></foreignObject></g></g><path d="M14.3064 0.463607C13.6037 0.0517223 12.8007 -0.0896105 12.0378 0.0799889C11.2748 0.249588 10.6003 0.713968 10.1345 1.38429C9.66872 2.05461 9.45992 2.86627 9.44788 3.66984C9.44788 3.93232 9.44788 4.19479 9.44788 4.45323C9.45591 5.05491 9.47598 5.65254 9.51614 6.2421C9.76509 8.564 10.8251 10.8536 12.4794 12.5698C14.1257 14.2981 16.3422 15.4651 18.643 15.8325C19.3978 15.9254 20.1608 15.9981 20.9277 16.0425C21.1847 16.0587 21.4457 16.0708 21.7067 16.0829C22.5097 16.1152 23.3288 15.9416 24.0155 15.4974C24.7021 15.0572 25.196 14.391 25.3927 13.6278C25.5895 12.8646 25.4811 12.0408 25.0956 11.318C23.7585 8.45093 19.5665 9.56544 17.8479 7.39296C16.1294 5.22047 16.5309 1.58619 14.3024 0.455531L14.3064 0.463607Z" data-figma-gradient-fill="{&#34;type&#34;:&#34;GRADIENT_ANGULAR&#34;,&#34;stops&#34;:[{&#34;color&#34;:{&#34;r&#34;:0.011764706112444401,&#34;g&#34;:0.98039215803146362,&#34;b&#34;:0.98039215803146362,&#34;a&#34;:1.0},&#34;position&#34;:0.038171753287315369},{&#34;color&#34;:{&#34;r&#34;:0.38039216399192810,&#34;g&#34;:0.38039216399192810,&#34;b&#34;:1.0,&#34;a&#34;:1.0},&#34;position&#34;:0.49664038419723511},{&#34;color&#34;:{&#34;r&#34;:1.0,&#34;g&#34;:0.83921569585800171,&#34;b&#34;:0.20000000298023224,&#34;a&#34;:1.0},&#34;position&#34;:0.70005834102630615},{&#34;color&#34;:{&#34;r&#34;:1.0,&#34;g&#34;:0.41960784792900085,&#34;b&#34;:0.062745101749897003,&#34;a&#34;:1.0},&#34;position&#34;:0.76379954814910889},{&#34;color&#34;:{&#34;r&#34;:1.0,&#34;g&#34;:0.50588238239288330,&#34;b&#34;:0.89294117689132690,&#34;a&#34;:1.0},&#34;position&#34;:0.82537221908569336},{&#34;color&#34;:{&#34;r&#34;:1.0,&#34;g&#34;:0.50588238239288330,&#34;b&#34;:0.89294117689132690,&#34;a&#34;:1.0},&#34;position&#34;:0.95263051986694336}],&#34;stopsVar&#34;:[{&#34;color&#34;:{&#34;r&#34;:0.011764706112444401,&#34;g&#34;:0.98039215803146362,&#34;b&#34;:0.98039215803146362,&#34;a&#34;:1.0},&#34;position&#34;:0.038171753287315369},{&#34;color&#34;:{&#34;r&#34;:0.38039216399192810,&#34;g&#34;:0.38039216399192810,&#34;b&#34;:1.0,&#34;a&#34;:1.0},&#34;position&#34;:0.49664038419723511},{&#34;color&#34;:{&#34;r&#34;:1.0,&#34;g&#34;:0.83921569585800171,&#34;b&#34;:0.20000000298023224,&#34;a&#34;:1.0},&#34;position&#34;:0.70005834102630615},{&#34;color&#34;:{&#34;r&#34;:1.0,&#34;g&#34;:0.41960784792900085,&#34;b&#34;:0.062745101749897003,&#34;a&#34;:1.0},&#34;position&#34;:0.76379954814910889},{&#34;color&#34;:{&#34;r&#34;:1.0,&#34;g&#34;:0.50588238239288330,&#34;b&#34;:0.89294117689132690,&#34;a&#34;:1.0},&#34;position&#34;:0.82537221908569336},{&#34;color&#34;:{&#34;r&#34;:1.0,&#34;g&#34;:0.50588238239288330,&#34;b&#34;:0.89294117689132690,&#34;a&#34;:1.0},&#34;position&#34;:0.95263051986694336}],&#34;transform&#34;:{&#34;m00&#34;:13.914046287536621,&#34;m01&#34;:-13.600196838378906,&#34;m02&#34;:12.453778266906738,&#34;m10&#34;:15.364764213562012,&#34;m11&#34;:12.456098556518555,&#34;m12&#34;:-1.2695428133010864},&#34;opacity&#34;:1.0,&#34;blendMode&#34;:&#34;NORMAL&#34;,&#34;visible&#34;:true}"/>
<g clip-path="url(#paint2_angular_4_4205_clip_path)" data-figma-skip-parse="true"><g transform="matrix(-0.00204618 -0.0046643 0.00431934 -0.00191639 12.6107 12.7779)"><foreignObject x="-3440.09" y="-3440.09" width="6880.17" height="6880.17"><div xmlns="http://www.w3.org/1999/xhtml" style="background:conic-gradient(from 90deg,rgba(255, 197, 45, 1) 0deg,rgba(255, 107, 16, 1) 68.4941deg,rgba(255, 130, 227, 1) 87.2686deg,rgba(148, 80, 253, 1) 158.253deg,rgba(0, 116, 253, 1) 203.18deg,rgba(148, 80, 253, 1) 251.211deg,rgba(255, 214, 51, 1) 347.36deg,rgba(255, 197, 45, 1) 360deg);height:100%;width:100%;opacity:1"></div></foreignObject></g></g><path d="M25.1487 14.3485C25.5582 13.6418 25.6988 12.8342 25.5301 12.067C25.3615 11.2997 24.8997 10.6213 24.2332 10.1529C23.5666 9.6845 22.7595 9.47452 21.9605 9.4624C21.6995 9.4624 21.4385 9.4624 21.1815 9.4624C20.5832 9.47048 19.989 9.49067 19.4027 9.53105C17.0939 9.78141 14.8172 10.8475 13.1107 12.5112C11.3922 14.1668 10.2317 16.3958 9.86635 18.7096C9.77399 19.4688 9.70172 20.236 9.65755 21.0073C9.64149 21.2657 9.62944 21.5282 9.6174 21.7907C9.58527 22.5983 9.75793 23.4221 10.1996 24.1126C10.6373 24.8031 11.2998 25.2998 12.0587 25.4976C12.8176 25.6955 13.6367 25.5865 14.3555 25.1988C17.2064 23.8541 16.0981 19.6384 18.2584 17.9101C20.4186 16.1818 24.0244 16.5896 25.1487 14.3485Z" data-figma-gradient-fill="{&#34;type&#34;:&#34;GRADIENT_ANGULAR&#34;,&#34;stops&#34;:[{&#34;color&#34;:{&#34;r&#34;:1.0,&#34;g&#34;:0.41960784792900085,&#34;b&#34;:0.062745101749897003,&#34;a&#34;:1.0},&#34;position&#34;:0.19026148319244385},{&#34;color&#34;:{&#34;r&#34;:1.0,&#34;g&#34;:0.51010364294052124,&#34;b&#34;:0.89385569095611572,&#34;a&#34;:1.0},&#34;position&#34;:0.24241268634796143},{&#34;color&#34;:{&#34;r&#34;:0.58039218187332153,&#34;g&#34;:0.31372550129890442,&#34;b&#34;:0.99215686321258545,&#34;a&#34;:1.0},&#34;position&#34;:0.43959093093872070},{&#34;color&#34;:{&#34;r&#34;:0.0,&#34;g&#34;:0.45490196347236633,&#34;b&#34;:0.99215686321258545,&#34;a&#34;:1.0},&#34;position&#34;:0.56439012289047241},{&#34;color&#34;:{&#34;r&#34;:0.58039218187332153,&#34;g&#34;:0.31372550129890442,&#34;b&#34;:0.99215686321258545,&#34;a&#34;:1.0},&#34;position&#34;:0.69780862331390381},{&#34;color&#34;:{&#34;r&#34;:1.0,&#34;g&#34;:0.83921569585800171,&#34;b&#34;:0.20000000298023224,&#34;a&#34;:1.0},&#34;position&#34;:0.96488827466964722}],&#34;stopsVar&#34;:[{&#34;color&#34;:{&#34;r&#34;:1.0,&#34;g&#34;:0.41960784792900085,&#34;b&#34;:0.062745101749897003,&#34;a&#34;:1.0},&#34;position&#34;:0.19026148319244385},{&#34;color&#34;:{&#34;r&#34;:1.0,&#34;g&#34;:0.51010364294052124,&#34;b&#34;:0.89385569095611572,&#34;a&#34;:1.0},&#34;position&#34;:0.24241268634796143},{&#34;color&#34;:{&#34;r&#34;:0.58039218187332153,&#34;g&#34;:0.31372550129890442,&#34;b&#34;:0.99215686321258545,&#34;a&#34;:1.0},&#34;position&#34;:0.43959093093872070},{&#34;color&#34;:{&#34;r&#34;:0.0,&#34;g&#34;:0.45490196347236633,&#34;b&#34;:0.99215686321258545,&#34;a&#34;:1.0},&#34;position&#34;:0.56439012289047241},{&#34;color&#34;:{&#34;r&#34;:0.58039218187332153,&#34;g&#34;:0.31372550129890442,&#34;b&#34;:0.99215686321258545,&#34;a&#34;:1.0},&#34;position&#34;:0.69780862331390381},{&#34;color&#34;:{&#34;r&#34;:1.0,&#34;g&#34;:0.83921569585800171,&#34;b&#34;:0.20000000298023224,&#34;a&#34;:1.0},&#34;position&#34;:0.96488827466964722}],&#34;transform&#34;:{&#34;m00&#34;:-4.0923652648925781,&#34;m01&#34;:8.6386718750,&#34;m02&#34;:10.337552070617676,&#34;m10&#34;:-9.3286056518554688,&#34;m11&#34;:-3.8327805995941162,&#34;m12&#34;:19.358583450317383},&#34;opacity&#34;:1.0,&#34;blendMode&#34;:&#34;NORMAL&#34;,&#34;visible&#34;:true}"/>
<g clip-path="url(#paint3_angular_4_4205_clip_path)" data-figma-skip-parse="true"><g transform="matrix(-0.00527976 -0.00577687 0.00671739 -0.00475438 12.7672 13.0854)"><foreignObject x="-3526.64" y="-3526.64" width="7053.29" height="7053.29"><div xmlns="http://www.w3.org/1999/xhtml" style="background:conic-gradient(from 90deg,rgba(20, 203, 138, 1) 0deg,rgba(4, 204, 88, 1) 22.5512deg,rgba(255, 214, 51, 1) 58.2341deg,rgba(255, 214, 51, 1) 78.0887deg,rgba(160, 144, 172, 1) 142.439deg,rgba(97, 97, 255, 1) 180.672deg,rgba(255, 129, 227, 1) 246.749deg,rgba(3, 250, 250, 1) 267.686deg,rgba(57, 201, 255, 1) 306.698deg,rgba(20, 203, 138, 1) 360deg);height:100%;width:100%;opacity:1"></div></foreignObject></g></g><path d="M0.410851 11.2752C0.00128848 11.9818 -0.0878455 12.7696 0.0807981 13.5369C0.249442 14.3041 0.711204 14.9825 1.37775 15.4509C2.04429 15.9193 2.85137 16.1293 3.65042 16.1414C3.91142 16.1414 4.17241 16.1414 4.42939 16.1414C5.02768 16.1333 5.62194 16.1131 6.20818 16.0728C8.51699 15.8224 10.7937 14.7564 12.5002 13.0927C14.2188 11.437 15.3792 9.20803 15.7446 6.89421C15.8369 6.13505 15.9092 5.36781 15.9534 4.59654C15.9694 4.3381 15.9815 4.07562 15.9935 3.81315C16.0256 3.00553 15.853 2.18176 15.4113 1.49125C14.9736 0.80074 14.3111 0.304056 13.5522 0.10619C12.7933 -0.0916762 11.9851 -0.0181641 11.2664 0.369492C8.41549 1.71417 9.51279 5.96545 7.35255 7.69375C5.1923 9.42205 1.53514 9.03405 0.410851 11.2752Z" data-figma-gradient-fill="{&#34;type&#34;:&#34;GRADIENT_ANGULAR&#34;,&#34;stops&#34;:[{&#34;color&#34;:{&#34;r&#34;:0.019287083297967911,&#34;g&#34;:0.80359828472137451,&#34;b&#34;:0.34845396876335144,&#34;a&#34;:1.0},&#34;position&#34;:0.062642157077789307},{&#34;color&#34;:{&#34;r&#34;:1.0,&#34;g&#34;:0.83921569585800171,&#34;b&#34;:0.20000000298023224,&#34;a&#34;:1.0},&#34;position&#34;:0.16176138818264008},{&#34;color&#34;:{&#34;r&#34;:1.0,&#34;g&#34;:0.83921569585800171,&#34;b&#34;:0.20000000298023224,&#34;a&#34;:1.0},&#34;position&#34;:0.21691308915615082},{&#34;color&#34;:{&#34;r&#34;:0.63010036945343018,&#34;g&#34;:0.56530267000198364,&#34;b&#34;:0.67759191989898682,&#34;a&#34;:1.0},&#34;position&#34;:0.39566385746002197},{&#34;color&#34;:{&#34;r&#34;:0.38039216399192810,&#34;g&#34;:0.38039216399192810,&#34;b&#34;:1.0,&#34;a&#34;:1.0},&#34;position&#34;:0.50186586380004883},{&#34;color&#34;:{&#34;r&#34;:1.0,&#34;g&#34;:0.50588238239288330,&#34;b&#34;:0.89294117689132690,&#34;a&#34;:1.0},&#34;position&#34;:0.68541431427001953},{&#34;color&#34;:{&#34;r&#34;:0.011764706112444401,&#34;g&#34;:0.98039215803146362,&#34;b&#34;:0.98039215803146362,&#34;a&#34;:1.0},&#34;position&#34;:0.74357092380523682},{&#34;color&#34;:{&#34;r&#34;:0.22616812586784363,&#34;g&#34;:0.79014730453491211,&#34;b&#34;:1.0,&#34;a&#34;:1.0},&#34;position&#34;:0.85193920135498047}],&#34;stopsVar&#34;:[{&#34;color&#34;:{&#34;r&#34;:0.019287083297967911,&#34;g&#34;:0.80359828472137451,&#34;b&#34;:0.34845396876335144,&#34;a&#34;:1.0},&#34;position&#34;:0.062642157077789307},{&#34;color&#34;:{&#34;r&#34;:1.0,&#34;g&#34;:0.83921569585800171,&#34;b&#34;:0.20000000298023224,&#34;a&#34;:1.0},&#34;position&#34;:0.16176138818264008},{&#34;color&#34;:{&#34;r&#34;:1.0,&#34;g&#34;:0.83921569585800171,&#34;b&#34;:0.20000000298023224,&#34;a&#34;:1.0},&#34;position&#34;:0.21691308915615082},{&#34;color&#34;:{&#34;r&#34;:0.63010036945343018,&#34;g&#34;:0.56530267000198364,&#34;b&#34;:0.67759191989898682,&#34;a&#34;:1.0},&#34;position&#34;:0.39566385746002197},{&#34;color&#34;:{&#34;r&#34;:0.38039216399192810,&#34;g&#34;:0.38039216399192810,&#34;b&#34;:1.0,&#34;a&#34;:1.0},&#34;position&#34;:0.50186586380004883},{&#34;color&#34;:{&#34;r&#34;:1.0,&#34;g&#34;:0.50588238239288330,&#34;b&#34;:0.89294117689132690,&#34;a&#34;:1.0},&#34;position&#34;:0.68541431427001953},{&#34;color&#34;:{&#34;r&#34;:0.011764706112444401,&#34;g&#34;:0.98039215803146362,&#34;b&#34;:0.98039215803146362,&#34;a&#34;:1.0},&#34;position&#34;:0.74357092380523682},{&#34;color&#34;:{&#34;r&#34;:0.22616812586784363,&#34;g&#34;:0.79014730453491211,&#34;b&#34;:1.0,&#34;a&#34;:1.0},&#34;position&#34;:0.85193920135498047}],&#34;transform&#34;:{&#34;m00&#34;:-10.559524536132812,&#34;m01&#34;:13.434781074523926,&#34;m02&#34;:11.329547882080078,&#34;m10&#34;:-11.553733825683594,&#34;m11&#34;:-9.5087509155273438,&#34;m12&#34;:23.616672515869141},&#34;opacity&#34;:1.0,&#34;blendMode&#34;:&#34;NORMAL&#34;,&#34;visible&#34;:true}"/>
<g clip-path="url(#paint4_angular_4_4205_clip_path)" data-figma-skip-parse="true"><g transform="matrix(0.0046886 0.000876099 -0.00151286 0.00482733 13.5044 12.1867)"><foreignObject x="-3213.08" y="-3213.08" width="6426.17" height="6426.17"><div xmlns="http://www.w3.org/1999/xhtml" style="background:conic-gradient(from 90deg,rgba(250, 210, 57, 1) 0deg,rgba(255, 214, 51, 1) 4.65807deg,rgba(148, 80, 253, 1) 86.0171deg,rgba(72, 0, 255, 1) 116.533deg,rgba(3, 250, 250, 1) 142.413deg,rgba(97, 97, 255, 1) 215.412deg,rgba(250, 210, 57, 1) 360deg);height:100%;width:100%;opacity:1"></div></foreignObject></g></g><path d="M11.1304 25.146C11.8291 25.5579 12.6276 25.6992 13.3862 25.5296C14.1448 25.36 14.8156 24.8957 15.2788 24.2253C15.7419 23.555 15.9495 22.7434 15.9615 21.9398C15.9615 21.6773 15.9615 21.4148 15.9615 21.1564C15.9535 20.5547 15.9336 19.9571 15.8936 19.3675C15.6461 17.0456 14.592 14.756 12.947 13.0398C11.31 11.3116 9.10607 10.1445 6.81826 9.77708C6.06763 9.6842 5.30902 9.61152 4.54642 9.5671C4.29089 9.55095 4.03136 9.53883 3.77184 9.52672C2.9733 9.49441 2.15879 9.66805 1.47604 10.1122C0.79329 10.5524 0.302189 11.2187 0.106547 11.9819C-0.0890945 12.7451 0.0187081 13.5688 0.402006 14.2917C1.73157 17.1587 5.89994 16.0442 7.60881 18.2167C9.31768 20.3892 8.91841 24.0234 11.1344 25.1541L11.1304 25.146Z" data-figma-gradient-fill="{&#34;type&#34;:&#34;GRADIENT_ANGULAR&#34;,&#34;stops&#34;:[{&#34;color&#34;:{&#34;r&#34;:1.0,&#34;g&#34;:0.83921569585800171,&#34;b&#34;:0.20000000298023224,&#34;a&#34;:1.0},&#34;position&#34;:0.012939095497131348},{&#34;color&#34;:{&#34;r&#34;:0.58039218187332153,&#34;g&#34;:0.31372550129890442,&#34;b&#34;:0.99215686321258545,&#34;a&#34;:1.0},&#34;position&#34;:0.23893648386001587},{&#34;color&#34;:{&#34;r&#34;:0.28333333134651184,&#34;g&#34;:0.0,&#34;b&#34;:1.0,&#34;a&#34;:1.0},&#34;position&#34;:0.32370311021804810},{&#34;color&#34;:{&#34;r&#34;:0.011764706112444401,&#34;g&#34;:0.98039215803146362,&#34;b&#34;:0.98039215803146362,&#34;a&#34;:1.0},&#34;position&#34;:0.39559286832809448},{&#34;color&#34;:{&#34;r&#34;:0.38039216399192810,&#34;g&#34;:0.38039216399192810,&#34;b&#34;:1.0,&#34;a&#34;:1.0},&#34;position&#34;:0.59836751222610474}],&#34;stopsVar&#34;:[{&#34;color&#34;:{&#34;r&#34;:1.0,&#34;g&#34;:0.83921569585800171,&#34;b&#34;:0.20000000298023224,&#34;a&#34;:1.0},&#34;position&#34;:0.012939095497131348},{&#34;color&#34;:{&#34;r&#34;:0.58039218187332153,&#34;g&#34;:0.31372550129890442,&#34;b&#34;:0.99215686321258545,&#34;a&#34;:1.0},&#34;position&#34;:0.23893648386001587},{&#34;color&#34;:{&#34;r&#34;:0.28333333134651184,&#34;g&#34;:0.0,&#34;b&#34;:1.0,&#34;a&#34;:1.0},&#34;position&#34;:0.32370311021804810},{&#34;color&#34;:{&#34;r&#34;:0.011764706112444401,&#34;g&#34;:0.98039215803146362,&#34;b&#34;:0.98039215803146362,&#34;a&#34;:1.0},&#34;position&#34;:0.39559286832809448},{&#34;color&#34;:{&#34;r&#34;:0.38039216399192810,&#34;g&#34;:0.38039216399192810,&#34;b&#34;:1.0,&#34;a&#34;:1.0},&#34;position&#34;:0.59836751222610474}],&#34;transform&#34;:{&#34;m00&#34;:9.3772048950195312,&#34;m01&#34;:-3.0257236957550049,&#34;m02&#34;:10.328633308410645,&#34;m10&#34;:1.7521985769271851,&#34;m11&#34;:9.6546592712402344,&#34;m12&#34;:6.4832873344421387},&#34;opacity&#34;:1.0,&#34;blendMode&#34;:&#34;NORMAL&#34;,&#34;visible&#34;:true}"/>
<g clip-path="url(#paint5_angular_4_4205_clip_path)" data-figma-skip-parse="true"><g transform="matrix(0.00691781 0.00768238 -0.00676177 0.00622805 12.5395 12.6404)"><foreignObject x="-2017.41" y="-2017.41" width="4034.81" height="4034.81"><div xmlns="http://www.w3.org/1999/xhtml" style="background:conic-gradient(from 90deg,rgba(115, 196, 240, 1) 0deg,rgba(3, 250, 250, 1) 13.7418deg,rgba(97, 97, 255, 1) 178.791deg,rgba(255, 214, 51, 1) 252.021deg,rgba(255, 107, 16, 1) 274.968deg,rgba(255, 129, 227, 1) 297.134deg,rgba(255, 129, 227, 1) 342.947deg,rgba(115, 196, 240, 1) 360deg);height:100%;width:100%;opacity:1"></div></foreignObject></g></g><path d="M14.2257 0.463118C13.527 0.0512341 12.7284 -0.0900988 11.9698 0.0795006C11.2112 0.2491 10.5404 0.71348 10.0773 1.3838C9.61413 2.05412 9.40651 2.86578 9.39453 3.66936C9.39453 3.93183 9.39453 4.19431 9.39453 4.45274C9.40252 5.05442 9.42248 5.65205 9.46241 6.24161C9.70995 8.56351 10.764 10.8531 12.409 12.5693C14.046 14.2976 16.25 15.4646 18.5378 15.8321C19.2884 15.9249 20.047 15.9976 20.8096 16.042C21.0652 16.0582 21.3247 16.0703 21.5842 16.0824C22.3827 16.1147 23.1973 15.9411 23.88 15.4969C24.5628 15.0567 25.0539 14.3905 25.2495 13.6273C25.4451 12.8641 25.3373 12.0403 24.954 11.3175C23.6245 8.45045 19.4561 9.56496 17.7472 7.39247C16.0384 5.21998 16.4376 1.58571 14.2217 0.455042L14.2257 0.463118Z" data-figma-gradient-fill="{&#34;type&#34;:&#34;GRADIENT_ANGULAR&#34;,&#34;stops&#34;:[{&#34;color&#34;:{&#34;r&#34;:0.011764706112444401,&#34;g&#34;:0.98039215803146362,&#34;b&#34;:0.98039215803146362,&#34;a&#34;:1.0},&#34;position&#34;:0.038171753287315369},{&#34;color&#34;:{&#34;r&#34;:0.38039216399192810,&#34;g&#34;:0.38039216399192810,&#34;b&#34;:1.0,&#34;a&#34;:1.0},&#34;position&#34;:0.49664038419723511},{&#34;color&#34;:{&#34;r&#34;:1.0,&#34;g&#34;:0.83921569585800171,&#34;b&#34;:0.20000000298023224,&#34;a&#34;:1.0},&#34;position&#34;:0.70005834102630615},{&#34;color&#34;:{&#34;r&#34;:1.0,&#34;g&#34;:0.41960784792900085,&#34;b&#34;:0.062745101749897003,&#34;a&#34;:1.0},&#34;position&#34;:0.76379954814910889},{&#34;color&#34;:{&#34;r&#34;:1.0,&#34;g&#34;:0.50588238239288330,&#34;b&#34;:0.89294117689132690,&#34;a&#34;:1.0},&#34;position&#34;:0.82537221908569336},{&#34;color&#34;:{&#34;r&#34;:1.0,&#34;g&#34;:0.50588238239288330,&#34;b&#34;:0.89294117689132690,&#34;a&#34;:1.0},&#34;position&#34;:0.95263051986694336}],&#34;stopsVar&#34;:[{&#34;color&#34;:{&#34;r&#34;:0.011764706112444401,&#34;g&#34;:0.98039215803146362,&#34;b&#34;:0.98039215803146362,&#34;a&#34;:1.0},&#34;position&#34;:0.038171753287315369},{&#34;color&#34;:{&#34;r&#34;:0.38039216399192810,&#34;g&#34;:0.38039216399192810,&#34;b&#34;:1.0,&#34;a&#34;:1.0},&#34;position&#34;:0.49664038419723511},{&#34;color&#34;:{&#34;r&#34;:1.0,&#34;g&#34;:0.83921569585800171,&#34;b&#34;:0.20000000298023224,&#34;a&#34;:1.0},&#34;position&#34;:0.70005834102630615},{&#34;color&#34;:{&#34;r&#34;:1.0,&#34;g&#34;:0.41960784792900085,&#34;b&#34;:0.062745101749897003,&#34;a&#34;:1.0},&#34;position&#34;:0.76379954814910889},{&#34;color&#34;:{&#34;r&#34;:1.0,&#34;g&#34;:0.50588238239288330,&#34;b&#34;:0.89294117689132690,&#34;a&#34;:1.0},&#34;position&#34;:0.82537221908569336},{&#34;color&#34;:{&#34;r&#34;:1.0,&#34;g&#34;:0.50588238239288330,&#34;b&#34;:0.89294117689132690,&#34;a&#34;:1.0},&#34;position&#34;:0.95263051986694336}],&#34;transform&#34;:{&#34;m00&#34;:13.835614204406738,&#34;m01&#34;:-13.523533821105957,&#34;m02&#34;:12.383489608764648,&#34;m10&#34;:15.364764213562012,&#34;m11&#34;:12.456098556518555,&#34;m12&#34;:-1.2700310945510864},&#34;opacity&#34;:1.0,&#34;blendMode&#34;:&#34;NORMAL&#34;,&#34;visible&#34;:true}"/>
<g clip-path="url(#paint6_angular_4_4205_clip_path)" data-figma-skip-parse="true"><g transform="matrix(-0.00203465 -0.0046643 0.00429499 -0.00191639 12.5396 12.7779)"><foreignObject x="-3440.27" y="-3440.27" width="6880.54" height="6880.54"><div xmlns="http://www.w3.org/1999/xhtml" style="background:conic-gradient(from 90deg,rgba(255, 197, 45, 1) 0deg,rgba(255, 107, 16, 1) 68.4941deg,rgba(255, 130, 227, 1) 87.2686deg,rgba(148, 80, 253, 1) 158.253deg,rgba(0, 116, 253, 1) 203.18deg,rgba(148, 80, 253, 1) 251.211deg,rgba(255, 214, 51, 1) 347.36deg,rgba(255, 197, 45, 1) 360deg);height:100%;width:100%;opacity:1"></div></foreignObject></g></g><path d="M25.0069 14.3485C25.4142 13.6418 25.5539 12.8342 25.3862 12.067C25.2185 11.2997 24.7593 10.6213 24.0966 10.1529C23.4338 9.6845 22.6312 9.47452 21.8367 9.4624C21.5772 9.4624 21.3177 9.4624 21.0621 9.4624C20.4672 9.47048 19.8763 9.49067 19.2934 9.53105C16.9976 9.78141 14.7337 10.8475 13.0368 12.5112C11.3279 14.1668 10.1741 16.3958 9.81072 18.7096C9.71889 19.4688 9.64702 20.236 9.6031 21.0073C9.58713 21.2657 9.57515 21.5282 9.56318 21.7907C9.53123 22.5983 9.70292 23.4221 10.1421 24.1126C10.5773 24.8031 11.2361 25.2998 11.9907 25.4976C12.7453 25.6955 13.5599 25.5865 14.2745 25.1988C17.1094 23.8541 16.0074 19.6384 18.1554 17.9101C20.3035 16.1818 23.8889 16.5896 25.0069 14.3485Z" data-figma-gradient-fill="{&#34;type&#34;:&#34;GRADIENT_ANGULAR&#34;,&#34;stops&#34;:[{&#34;color&#34;:{&#34;r&#34;:1.0,&#34;g&#34;:0.41960784792900085,&#34;b&#34;:0.062745101749897003,&#34;a&#34;:1.0},&#34;position&#34;:0.19026148319244385},{&#34;color&#34;:{&#34;r&#34;:1.0,&#34;g&#34;:0.51010364294052124,&#34;b&#34;:0.89385569095611572,&#34;a&#34;:1.0},&#34;position&#34;:0.24241268634796143},{&#34;color&#34;:{&#34;r&#34;:0.58039218187332153,&#34;g&#34;:0.31372550129890442,&#34;b&#34;:0.99215686321258545,&#34;a&#34;:1.0},&#34;position&#34;:0.43959093093872070},{&#34;color&#34;:{&#34;r&#34;:0.0,&#34;g&#34;:0.45490196347236633,&#34;b&#34;:0.99215686321258545,&#34;a&#34;:1.0},&#34;position&#34;:0.56439012289047241},{&#34;color&#34;:{&#34;r&#34;:0.58039218187332153,&#34;g&#34;:0.31372550129890442,&#34;b&#34;:0.99215686321258545,&#34;a&#34;:1.0},&#34;position&#34;:0.69780862331390381},{&#34;color&#34;:{&#34;r&#34;:1.0,&#34;g&#34;:0.83921569585800171,&#34;b&#34;:0.20000000298023224,&#34;a&#34;:1.0},&#34;position&#34;:0.96488827466964722}],&#34;stopsVar&#34;:[{&#34;color&#34;:{&#34;r&#34;:1.0,&#34;g&#34;:0.41960784792900085,&#34;b&#34;:0.062745101749897003,&#34;a&#34;:1.0},&#34;position&#34;:0.19026148319244385},{&#34;color&#34;:{&#34;r&#34;:1.0,&#34;g&#34;:0.51010364294052124,&#34;b&#34;:0.89385569095611572,&#34;a&#34;:1.0},&#34;position&#34;:0.24241268634796143},{&#34;color&#34;:{&#34;r&#34;:0.58039218187332153,&#34;g&#34;:0.31372550129890442,&#34;b&#34;:0.99215686321258545,&#34;a&#34;:1.0},&#34;position&#34;:0.43959093093872070},{&#34;color&#34;:{&#34;r&#34;:0.0,&#34;g&#34;:0.45490196347236633,&#34;b&#34;:0.99215686321258545,&#34;a&#34;:1.0},&#34;position&#34;:0.56439012289047241},{&#34;color&#34;:{&#34;r&#34;:0.58039218187332153,&#34;g&#34;:0.31372550129890442,&#34;b&#34;:0.99215686321258545,&#34;a&#34;:1.0},&#34;position&#34;:0.69780862331390381},{&#34;color&#34;:{&#34;r&#34;:1.0,&#34;g&#34;:0.83921569585800171,&#34;b&#34;:0.20000000298023224,&#34;a&#34;:1.0},&#34;position&#34;:0.96488827466964722}],&#34;transform&#34;:{&#34;m00&#34;:-4.0692968368530273,&#34;m01&#34;:8.5899772644042969,&#34;m02&#34;:10.279272079467773,&#34;m10&#34;:-9.3286056518554688,&#34;m11&#34;:-3.8327805995941162,&#34;m12&#34;:19.358583450317383},&#34;opacity&#34;:1.0,&#34;blendMode&#34;:&#34;NORMAL&#34;,&#34;visible&#34;:true}"/>
<g clip-path="url(#paint7_angular_4_4205_clip_path)" data-figma-skip-parse="true"><g transform="matrix(-0.00525 -0.00577687 0.00667953 -0.00475438 12.6951 13.0854)"><foreignObject x="-3529.47" y="-3529.47" width="7058.93" height="7058.93"><div xmlns="http://www.w3.org/1999/xhtml" style="background:conic-gradient(from 90deg,rgba(20, 203, 138, 1) 0deg,rgba(4, 204, 88, 1) 22.5512deg,rgba(255, 214, 51, 1) 58.2341deg,rgba(255, 214, 51, 1) 78.0887deg,rgba(160, 144, 172, 1) 142.439deg,rgba(97, 97, 255, 1) 180.672deg,rgba(255, 129, 227, 1) 246.749deg,rgba(3, 250, 250, 1) 267.686deg,rgba(57, 201, 255, 1) 306.698deg,rgba(20, 203, 138, 1) 360deg);height:100%;width:100%;opacity:1"></div></foreignObject></g></g><path d="M0.408414 11.2752C0.00115983 11.9818 -0.0874717 12.7696 0.0802213 13.5369C0.247914 14.3041 0.707074 14.9825 1.36986 15.4509C2.03265 15.9193 2.83518 16.1293 3.62972 16.1414C3.88925 16.1414 4.14877 16.1414 4.4043 16.1414C4.99921 16.1333 5.59013 16.1131 6.17306 16.0728C8.46886 15.8224 10.7327 14.7564 12.4296 13.0927C14.1385 11.437 15.2924 9.20803 15.6557 6.89421C15.7475 6.13505 15.8194 5.36781 15.8633 4.59654C15.8793 4.3381 15.8913 4.07562 15.9032 3.81315C15.9352 3.00553 15.7635 2.18176 15.3243 1.49125C14.8891 0.80074 14.2303 0.304056 13.4757 0.10619C12.7211 -0.0916762 11.9174 -0.0181641 11.2027 0.369492C8.36793 1.71417 9.45905 5.96545 7.31098 7.69375C5.16292 9.42205 1.52637 9.03405 0.408414 11.2752Z" data-figma-gradient-fill="{&#34;type&#34;:&#34;GRADIENT_ANGULAR&#34;,&#34;stops&#34;:[{&#34;color&#34;:{&#34;r&#34;:0.019287083297967911,&#34;g&#34;:0.80359828472137451,&#34;b&#34;:0.34845396876335144,&#34;a&#34;:1.0},&#34;position&#34;:0.062642157077789307},{&#34;color&#34;:{&#34;r&#34;:1.0,&#34;g&#34;:0.83921569585800171,&#34;b&#34;:0.20000000298023224,&#34;a&#34;:1.0},&#34;position&#34;:0.16176138818264008},{&#34;color&#34;:{&#34;r&#34;:1.0,&#34;g&#34;:0.83921569585800171,&#34;b&#34;:0.20000000298023224,&#34;a&#34;:1.0},&#34;position&#34;:0.21691308915615082},{&#34;color&#34;:{&#34;r&#34;:0.63010036945343018,&#34;g&#34;:0.56530267000198364,&#34;b&#34;:0.67759191989898682,&#34;a&#34;:1.0},&#34;position&#34;:0.39566385746002197},{&#34;color&#34;:{&#34;r&#34;:0.38039216399192810,&#34;g&#34;:0.38039216399192810,&#34;b&#34;:1.0,&#34;a&#34;:1.0},&#34;position&#34;:0.50186586380004883},{&#34;color&#34;:{&#34;r&#34;:1.0,&#34;g&#34;:0.50588238239288330,&#34;b&#34;:0.89294117689132690,&#34;a&#34;:1.0},&#34;position&#34;:0.68541431427001953},{&#34;color&#34;:{&#34;r&#34;:0.011764706112444401,&#34;g&#34;:0.98039215803146362,&#34;b&#34;:0.98039215803146362,&#34;a&#34;:1.0},&#34;position&#34;:0.74357092380523682},{&#34;color&#34;:{&#34;r&#34;:0.22616812586784363,&#34;g&#34;:0.79014730453491211,&#34;b&#34;:1.0,&#34;a&#34;:1.0},&#34;position&#34;:0.85193920135498047}],&#34;stopsVar&#34;:[{&#34;color&#34;:{&#34;r&#34;:0.019287083297967911,&#34;g&#34;:0.80359828472137451,&#34;b&#34;:0.34845396876335144,&#34;a&#34;:1.0},&#34;position&#34;:0.062642157077789307},{&#34;color&#34;:{&#34;r&#34;:1.0,&#34;g&#34;:0.83921569585800171,&#34;b&#34;:0.20000000298023224,&#34;a&#34;:1.0},&#34;position&#34;:0.16176138818264008},{&#34;color&#34;:{&#34;r&#34;:1.0,&#34;g&#34;:0.83921569585800171,&#34;b&#34;:0.20000000298023224,&#34;a&#34;:1.0},&#34;position&#34;:0.21691308915615082},{&#34;color&#34;:{&#34;r&#34;:0.63010036945343018,&#34;g&#34;:0.56530267000198364,&#34;b&#34;:0.67759191989898682,&#34;a&#34;:1.0},&#34;position&#34;:0.39566385746002197},{&#34;color&#34;:{&#34;r&#34;:0.38039216399192810,&#34;g&#34;:0.38039216399192810,&#34;b&#34;:1.0,&#34;a&#34;:1.0},&#34;position&#34;:0.50186586380004883},{&#34;color&#34;:{&#34;r&#34;:1.0,&#34;g&#34;:0.50588238239288330,&#34;b&#34;:0.89294117689132690,&#34;a&#34;:1.0},&#34;position&#34;:0.68541431427001953},{&#34;color&#34;:{&#34;r&#34;:0.011764706112444401,&#34;g&#34;:0.98039215803146362,&#34;b&#34;:0.98039215803146362,&#34;a&#34;:1.0},&#34;position&#34;:0.74357092380523682},{&#34;color&#34;:{&#34;r&#34;:0.22616812586784363,&#34;g&#34;:0.79014730453491211,&#34;b&#34;:1.0,&#34;a&#34;:1.0},&#34;position&#34;:0.85193920135498047}],&#34;transform&#34;:{&#34;m00&#34;:-10.500002861022949,&#34;m01&#34;:13.359051704406738,&#34;m02&#34;:11.265564918518066,&#34;m10&#34;:-11.553733825683594,&#34;m11&#34;:-9.5087509155273438,&#34;m12&#34;:23.616672515869141},&#34;opacity&#34;:1.0,&#34;blendMode&#34;:&#34;NORMAL&#34;,&#34;visible&#34;:true}"/>
<defs>
<clipPath id="paint0_angular_4_4205_clip_path"><path d="M11.1935 25.146C11.8962 25.5579 12.6993 25.6992 13.4622 25.5296C14.2251 25.36 14.8997 24.8957 15.3654 24.2253C15.8312 23.555 16.04 22.7434 16.0521 21.9398C16.0521 21.6773 16.0521 21.4148 16.0521 21.1564C16.044 20.5547 16.024 19.9571 15.9838 19.3675C15.7348 17.0456 14.6748 14.756 13.0205 13.0398C11.3742 11.3116 9.15775 10.1445 6.85697 9.77708C6.10209 9.6842 5.33918 9.61152 4.57225 9.5671C4.31527 9.55095 4.05427 9.53883 3.79328 9.52672C2.99021 9.49441 2.17109 9.66805 1.48447 10.1122C0.797847 10.5524 0.303962 11.2187 0.107211 11.9819C-0.0895398 12.7451 0.0188739 13.5688 0.404345 14.2917C1.74145 17.1587 5.93344 16.0442 7.652 18.2167C9.37056 20.3892 8.96903 24.0234 11.1975 25.1541L11.1935 25.146Z"/></clipPath><clipPath id="paint1_angular_4_4205_clip_path"><path d="M14.3064 0.463607C13.6037 0.0517223 12.8007 -0.0896105 12.0378 0.0799889C11.2748 0.249588 10.6003 0.713968 10.1345 1.38429C9.66872 2.05461 9.45992 2.86627 9.44788 3.66984C9.44788 3.93232 9.44788 4.19479 9.44788 4.45323C9.45591 5.05491 9.47598 5.65254 9.51614 6.2421C9.76509 8.564 10.8251 10.8536 12.4794 12.5698C14.1257 14.2981 16.3422 15.4651 18.643 15.8325C19.3978 15.9254 20.1608 15.9981 20.9277 16.0425C21.1847 16.0587 21.4457 16.0708 21.7067 16.0829C22.5097 16.1152 23.3288 15.9416 24.0155 15.4974C24.7021 15.0572 25.196 14.391 25.3927 13.6278C25.5895 12.8646 25.4811 12.0408 25.0956 11.318C23.7585 8.45093 19.5665 9.56544 17.8479 7.39296C16.1294 5.22047 16.5309 1.58619 14.3024 0.455531L14.3064 0.463607Z"/></clipPath><clipPath id="paint2_angular_4_4205_clip_path"><path d="M25.1487 14.3485C25.5582 13.6418 25.6988 12.8342 25.5301 12.067C25.3615 11.2997 24.8997 10.6213 24.2332 10.1529C23.5666 9.6845 22.7595 9.47452 21.9605 9.4624C21.6995 9.4624 21.4385 9.4624 21.1815 9.4624C20.5832 9.47048 19.989 9.49067 19.4027 9.53105C17.0939 9.78141 14.8172 10.8475 13.1107 12.5112C11.3922 14.1668 10.2317 16.3958 9.86635 18.7096C9.77399 19.4688 9.70172 20.236 9.65755 21.0073C9.64149 21.2657 9.62944 21.5282 9.6174 21.7907C9.58527 22.5983 9.75793 23.4221 10.1996 24.1126C10.6373 24.8031 11.2998 25.2998 12.0587 25.4976C12.8176 25.6955 13.6367 25.5865 14.3555 25.1988C17.2064 23.8541 16.0981 19.6384 18.2584 17.9101C20.4186 16.1818 24.0244 16.5896 25.1487 14.3485Z"/></clipPath><clipPath id="paint3_angular_4_4205_clip_path"><path d="M0.410851 11.2752C0.00128848 11.9818 -0.0878455 12.7696 0.0807981 13.5369C0.249442 14.3041 0.711204 14.9825 1.37775 15.4509C2.04429 15.9193 2.85137 16.1293 3.65042 16.1414C3.91142 16.1414 4.17241 16.1414 4.42939 16.1414C5.02768 16.1333 5.62194 16.1131 6.20818 16.0728C8.51699 15.8224 10.7937 14.7564 12.5002 13.0927C14.2188 11.437 15.3792 9.20803 15.7446 6.89421C15.8369 6.13505 15.9092 5.36781 15.9534 4.59654C15.9694 4.3381 15.9815 4.07562 15.9935 3.81315C16.0256 3.00553 15.853 2.18176 15.4113 1.49125C14.9736 0.80074 14.3111 0.304056 13.5522 0.10619C12.7933 -0.0916762 11.9851 -0.0181641 11.2664 0.369492C8.41549 1.71417 9.51279 5.96545 7.35255 7.69375C5.1923 9.42205 1.53514 9.03405 0.410851 11.2752Z"/></clipPath><clipPath id="paint4_angular_4_4205_clip_path"><path d="M11.1304 25.146C11.8291 25.5579 12.6276 25.6992 13.3862 25.5296C14.1448 25.36 14.8156 24.8957 15.2788 24.2253C15.7419 23.555 15.9495 22.7434 15.9615 21.9398C15.9615 21.6773 15.9615 21.4148 15.9615 21.1564C15.9535 20.5547 15.9336 19.9571 15.8936 19.3675C15.6461 17.0456 14.592 14.756 12.947 13.0398C11.31 11.3116 9.10607 10.1445 6.81826 9.77708C6.06763 9.6842 5.30902 9.61152 4.54642 9.5671C4.29089 9.55095 4.03136 9.53883 3.77184 9.52672C2.9733 9.49441 2.15879 9.66805 1.47604 10.1122C0.79329 10.5524 0.302189 11.2187 0.106547 11.9819C-0.0890945 12.7451 0.0187081 13.5688 0.402006 14.2917C1.73157 17.1587 5.89994 16.0442 7.60881 18.2167C9.31768 20.3892 8.91841 24.0234 11.1344 25.1541L11.1304 25.146Z"/></clipPath><clipPath id="paint5_angular_4_4205_clip_path"><path d="M14.2257 0.463118C13.527 0.0512341 12.7284 -0.0900988 11.9698 0.0795006C11.2112 0.2491 10.5404 0.71348 10.0773 1.3838C9.61413 2.05412 9.40651 2.86578 9.39453 3.66936C9.39453 3.93183 9.39453 4.19431 9.39453 4.45274C9.40252 5.05442 9.42248 5.65205 9.46241 6.24161C9.70995 8.56351 10.764 10.8531 12.409 12.5693C14.046 14.2976 16.25 15.4646 18.5378 15.8321C19.2884 15.9249 20.047 15.9976 20.8096 16.042C21.0652 16.0582 21.3247 16.0703 21.5842 16.0824C22.3827 16.1147 23.1973 15.9411 23.88 15.4969C24.5628 15.0567 25.0539 14.3905 25.2495 13.6273C25.4451 12.8641 25.3373 12.0403 24.954 11.3175C23.6245 8.45045 19.4561 9.56496 17.7472 7.39247C16.0384 5.21998 16.4376 1.58571 14.2217 0.455042L14.2257 0.463118Z"/></clipPath><clipPath id="paint6_angular_4_4205_clip_path"><path d="M25.0069 14.3485C25.4142 13.6418 25.5539 12.8342 25.3862 12.067C25.2185 11.2997 24.7593 10.6213 24.0966 10.1529C23.4338 9.6845 22.6312 9.47452 21.8367 9.4624C21.5772 9.4624 21.3177 9.4624 21.0621 9.4624C20.4672 9.47048 19.8763 9.49067 19.2934 9.53105C16.9976 9.78141 14.7337 10.8475 13.0368 12.5112C11.3279 14.1668 10.1741 16.3958 9.81072 18.7096C9.71889 19.4688 9.64702 20.236 9.6031 21.0073C9.58713 21.2657 9.57515 21.5282 9.56318 21.7907C9.53123 22.5983 9.70292 23.4221 10.1421 24.1126C10.5773 24.8031 11.2361 25.2998 11.9907 25.4976C12.7453 25.6955 13.5599 25.5865 14.2745 25.1988C17.1094 23.8541 16.0074 19.6384 18.1554 17.9101C20.3035 16.1818 23.8889 16.5896 25.0069 14.3485Z"/></clipPath><clipPath id="paint7_angular_4_4205_clip_path"><path d="M0.408414 11.2752C0.00115983 11.9818 -0.0874717 12.7696 0.0802213 13.5369C0.247914 14.3041 0.707074 14.9825 1.36986 15.4509C2.03265 15.9193 2.83518 16.1293 3.62972 16.1414C3.88925 16.1414 4.14877 16.1414 4.4043 16.1414C4.99921 16.1333 5.59013 16.1131 6.17306 16.0728C8.46886 15.8224 10.7327 14.7564 12.4296 13.0927C14.1385 11.437 15.2924 9.20803 15.6557 6.89421C15.7475 6.13505 15.8194 5.36781 15.8633 4.59654C15.8793 4.3381 15.8913 4.07562 15.9032 3.81315C15.9352 3.00553 15.7635 2.18176 15.3243 1.49125C14.8891 0.80074 14.2303 0.304056 13.4757 0.10619C12.7211 -0.0916762 11.9174 -0.0181641 11.2027 0.369492C8.36793 1.71417 9.45905 5.96545 7.31098 7.69375C5.16292 9.42205 1.52637 9.03405 0.408414 11.2752Z"/></clipPath></defs>
</svg>
