<svg width="36" height="36" viewBox="0 0 36 36" fill="none" xmlns="http://www.w3.org/2000/svg">
<g clip-path="url(#paint0_angular_1_2339_clip_path)" data-figma-skip-parse="true"><g transform="matrix(0.00648337 0.00120464 -0.00209198 0.00663758 18.6738 16.7569)"><foreignObject x="-3224.36" y="-3224.36" width="6448.73" height="6448.73"><div xmlns="http://www.w3.org/1999/xhtml" style="background:conic-gradient(from 90deg,rgba(250, 210, 57, 1) 0deg,rgba(255, 214, 51, 1) 4.65807deg,rgba(148, 80, 253, 1) 86.0171deg,rgba(72, 0, 255, 1) 116.533deg,rgba(3, 250, 250, 1) 142.413deg,rgba(97, 97, 255, 1) 215.412deg,rgba(250, 210, 57, 1) 360deg);height:100%;width:100%;opacity:1"></div></foreignObject></g></g><path d="M15.3911 34.576C16.3573 35.1423 17.4615 35.3366 18.5105 35.1034C19.5595 34.8702 20.487 34.2317 21.1275 33.31C21.7679 32.3883 22.055 31.2723 22.0716 30.1674C22.0716 29.8065 22.0716 29.4456 22.0716 29.0902C22.0605 28.2629 22.0329 27.4412 21.9777 26.6305C21.6354 23.4379 20.1778 20.2897 17.9032 17.93C15.6395 15.5536 12.5919 13.9489 9.42832 13.4437C8.39036 13.316 7.34135 13.216 6.28683 13.1549C5.93348 13.1327 5.57461 13.1161 5.21574 13.0994C4.11153 13.055 2.98523 13.2938 2.04113 13.9045C1.09702 14.5097 0.417932 15.4259 0.1474 16.4753C-0.123133 17.5247 0.0259364 18.6573 0.555959 19.6512C2.39448 23.5934 8.15847 22.0609 10.5215 25.0481C12.8845 28.0353 12.3324 33.0324 15.3966 34.5871L15.3911 34.576Z" data-figma-gradient-fill="{&#34;type&#34;:&#34;GRADIENT_ANGULAR&#34;,&#34;stops&#34;:[{&#34;color&#34;:{&#34;r&#34;:1.0,&#34;g&#34;:0.83921569585800171,&#34;b&#34;:0.20000000298023224,&#34;a&#34;:1.0},&#34;position&#34;:0.012939095497131348},{&#34;color&#34;:{&#34;r&#34;:0.58039218187332153,&#34;g&#34;:0.31372550129890442,&#34;b&#34;:0.99215686321258545,&#34;a&#34;:1.0},&#34;position&#34;:0.23893648386001587},{&#34;color&#34;:{&#34;r&#34;:0.28333333134651184,&#34;g&#34;:0.0,&#34;b&#34;:1.0,&#34;a&#34;:1.0},&#34;position&#34;:0.32370311021804810},{&#34;color&#34;:{&#34;r&#34;:0.011764706112444401,&#34;g&#34;:0.98039215803146362,&#34;b&#34;:0.98039215803146362,&#34;a&#34;:1.0},&#34;position&#34;:0.39559286832809448},{&#34;color&#34;:{&#34;r&#34;:0.38039216399192810,&#34;g&#34;:0.38039216399192810,&#34;b&#34;:1.0,&#34;a&#34;:1.0},&#34;position&#34;:0.59836751222610474}],&#34;stopsVar&#34;:[{&#34;color&#34;:{&#34;r&#34;:1.0,&#34;g&#34;:0.83921569585800171,&#34;b&#34;:0.20000000298023224,&#34;a&#34;:1.0},&#34;position&#34;:0.012939095497131348},{&#34;color&#34;:{&#34;r&#34;:0.58039218187332153,&#34;g&#34;:0.31372550129890442,&#34;b&#34;:0.99215686321258545,&#34;a&#34;:1.0},&#34;position&#34;:0.23893648386001587},{&#34;color&#34;:{&#34;r&#34;:0.28333333134651184,&#34;g&#34;:0.0,&#34;b&#34;:1.0,&#34;a&#34;:1.0},&#34;position&#34;:0.32370311021804810},{&#34;color&#34;:{&#34;r&#34;:0.011764706112444401,&#34;g&#34;:0.98039215803146362,&#34;b&#34;:0.98039215803146362,&#34;a&#34;:1.0},&#34;position&#34;:0.39559286832809448},{&#34;color&#34;:{&#34;r&#34;:0.38039216399192810,&#34;g&#34;:0.38039216399192810,&#34;b&#34;:1.0,&#34;a&#34;:1.0},&#34;position&#34;:0.59836751222610474}],&#34;transform&#34;:{&#34;m00&#34;:12.966749191284180,&#34;m01&#34;:-4.1839542388916016,&#34;m02&#34;:14.282445907592773,&#34;m10&#34;:2.4092731475830078,&#34;m11&#34;:13.275156974792480,&#34;m12&#34;:8.9147033691406250},&#34;opacity&#34;:1.0,&#34;blendMode&#34;:&#34;NORMAL&#34;,&#34;visible&#34;:true}"/>
<g clip-path="url(#paint1_angular_1_2339_clip_path)" data-figma-skip-parse="true"><g transform="matrix(0.00956591 0.0105633 -0.00935014 0.00856357 17.3397 17.381)"><foreignObject x="-2024.72" y="-2024.72" width="4049.44" height="4049.44"><div xmlns="http://www.w3.org/1999/xhtml" style="background:conic-gradient(from 90deg,rgba(115, 196, 240, 1) 0deg,rgba(3, 250, 250, 1) 13.7418deg,rgba(97, 97, 255, 1) 178.791deg,rgba(255, 214, 51, 1) 252.021deg,rgba(255, 107, 16, 1) 274.968deg,rgba(255, 129, 227, 1) 297.134deg,rgba(255, 129, 227, 1) 342.947deg,rgba(115, 196, 240, 1) 360deg);height:100%;width:100%;opacity:1"></div></foreignObject></g></g><path d="M19.6713 0.637215C18.7051 0.0708741 17.6009 -0.123459 16.5519 0.109741C15.5029 0.34294 14.5753 0.981462 13.9349 1.90315C13.2944 2.82485 13.0073 3.94087 12.9908 5.04579C12.9908 5.4067 12.9908 5.7676 12.9908 6.12295C13.0018 6.95025 13.0294 7.772 13.0846 8.58265C13.4269 11.7753 14.8845 14.9234 17.1592 17.2832C19.4228 19.6596 22.4705 21.2642 25.634 21.7695C26.672 21.8972 27.721 21.9972 28.7755 22.0582C29.1289 22.0804 29.4877 22.0971 29.8466 22.1138C30.9508 22.1582 32.0771 21.9194 33.0212 21.3087C33.9653 20.7035 34.6444 19.7873 34.9149 18.7379C35.1855 17.6885 35.0364 16.5558 34.5064 15.562C32.6679 11.6198 26.9039 13.1522 24.5409 10.1651C22.1778 7.1779 22.7299 2.18077 19.6658 0.62611L19.6713 0.637215Z" data-figma-gradient-fill="{&#34;type&#34;:&#34;GRADIENT_ANGULAR&#34;,&#34;stops&#34;:[{&#34;color&#34;:{&#34;r&#34;:0.011764706112444401,&#34;g&#34;:0.98039215803146362,&#34;b&#34;:0.98039215803146362,&#34;a&#34;:1.0},&#34;position&#34;:0.038171753287315369},{&#34;color&#34;:{&#34;r&#34;:0.38039216399192810,&#34;g&#34;:0.38039216399192810,&#34;b&#34;:1.0,&#34;a&#34;:1.0},&#34;position&#34;:0.49664038419723511},{&#34;color&#34;:{&#34;r&#34;:1.0,&#34;g&#34;:0.83921569585800171,&#34;b&#34;:0.20000000298023224,&#34;a&#34;:1.0},&#34;position&#34;:0.70005834102630615},{&#34;color&#34;:{&#34;r&#34;:1.0,&#34;g&#34;:0.41960784792900085,&#34;b&#34;:0.062745101749897003,&#34;a&#34;:1.0},&#34;position&#34;:0.76379954814910889},{&#34;color&#34;:{&#34;r&#34;:1.0,&#34;g&#34;:0.50588238239288330,&#34;b&#34;:0.89294117689132690,&#34;a&#34;:1.0},&#34;position&#34;:0.82537221908569336},{&#34;color&#34;:{&#34;r&#34;:1.0,&#34;g&#34;:0.50588238239288330,&#34;b&#34;:0.89294117689132690,&#34;a&#34;:1.0},&#34;position&#34;:0.95263051986694336}],&#34;stopsVar&#34;:[{&#34;color&#34;:{&#34;r&#34;:0.011764706112444401,&#34;g&#34;:0.98039215803146362,&#34;b&#34;:0.98039215803146362,&#34;a&#34;:1.0},&#34;position&#34;:0.038171753287315369},{&#34;color&#34;:{&#34;r&#34;:0.38039216399192810,&#34;g&#34;:0.38039216399192810,&#34;b&#34;:1.0,&#34;a&#34;:1.0},&#34;position&#34;:0.49664038419723511},{&#34;color&#34;:{&#34;r&#34;:1.0,&#34;g&#34;:0.83921569585800171,&#34;b&#34;:0.20000000298023224,&#34;a&#34;:1.0},&#34;position&#34;:0.70005834102630615},{&#34;color&#34;:{&#34;r&#34;:1.0,&#34;g&#34;:0.41960784792900085,&#34;b&#34;:0.062745101749897003,&#34;a&#34;:1.0},&#34;position&#34;:0.76379954814910889},{&#34;color&#34;:{&#34;r&#34;:1.0,&#34;g&#34;:0.50588238239288330,&#34;b&#34;:0.89294117689132690,&#34;a&#34;:1.0},&#34;position&#34;:0.82537221908569336},{&#34;color&#34;:{&#34;r&#34;:1.0,&#34;g&#34;:0.50588238239288330,&#34;b&#34;:0.89294117689132690,&#34;a&#34;:1.0},&#34;position&#34;:0.95263051986694336}],&#34;transform&#34;:{&#34;m00&#34;:19.131813049316406,&#34;m01&#34;:-18.700269699096680,&#34;m02&#34;:17.123899459838867,&#34;m10&#34;:21.126552581787109,&#34;m11&#34;:17.127136230468750,&#34;m12&#34;:-1.7458655834197998},&#34;opacity&#34;:1.0,&#34;blendMode&#34;:&#34;NORMAL&#34;,&#34;visible&#34;:true}"/>
<g clip-path="url(#paint2_angular_1_2339_clip_path)" data-figma-skip-parse="true"><g transform="matrix(-0.0028135 -0.00641342 0.00593909 -0.00263504 17.3398 17.5695)"><foreignObject x="-3452.78" y="-3452.78" width="6905.55" height="6905.55"><div xmlns="http://www.w3.org/1999/xhtml" style="background:conic-gradient(from 90deg,rgba(255, 197, 45, 1) 0deg,rgba(255, 107, 16, 1) 68.4941deg,rgba(255, 130, 227, 1) 87.2686deg,rgba(148, 80, 253, 1) 158.253deg,rgba(0, 116, 253, 1) 203.18deg,rgba(148, 80, 253, 1) 251.211deg,rgba(255, 214, 51, 1) 347.36deg,rgba(255, 197, 45, 1) 360deg);height:100%;width:100%;opacity:1"></div></foreignObject></g></g><path d="M34.5795 19.7291C35.1426 18.7574 35.3358 17.647 35.104 16.592C34.8721 15.5371 34.2372 14.6043 33.3207 13.9602C32.4042 13.3161 31.2944 13.0274 30.1957 13.0107C29.8369 13.0107 29.478 13.0107 29.1246 13.0107C28.302 13.0218 27.4849 13.0496 26.6788 13.1051C23.5042 13.4494 20.3737 14.9152 18.0273 17.2028C15.6643 19.4792 14.0687 22.5441 13.5663 25.7257C13.4393 26.7695 13.3399 27.8244 13.2792 28.8849C13.2571 29.2403 13.2405 29.6012 13.224 29.9621C13.1798 31.0726 13.4172 32.2053 14.0245 33.1547C14.6263 34.1042 15.5373 34.7871 16.5808 35.0592C17.6243 35.3312 18.7506 35.1813 19.7388 34.6483C23.6588 32.7994 22.135 27.0027 25.1053 24.6263C28.0756 22.2499 33.0336 22.8107 34.5795 19.7291Z" data-figma-gradient-fill="{&#34;type&#34;:&#34;GRADIENT_ANGULAR&#34;,&#34;stops&#34;:[{&#34;color&#34;:{&#34;r&#34;:1.0,&#34;g&#34;:0.41960784792900085,&#34;b&#34;:0.062745101749897003,&#34;a&#34;:1.0},&#34;position&#34;:0.19026148319244385},{&#34;color&#34;:{&#34;r&#34;:1.0,&#34;g&#34;:0.51010364294052124,&#34;b&#34;:0.89385569095611572,&#34;a&#34;:1.0},&#34;position&#34;:0.24241268634796143},{&#34;color&#34;:{&#34;r&#34;:0.58039218187332153,&#34;g&#34;:0.31372550129890442,&#34;b&#34;:0.99215686321258545,&#34;a&#34;:1.0},&#34;position&#34;:0.43959093093872070},{&#34;color&#34;:{&#34;r&#34;:0.0,&#34;g&#34;:0.45490196347236633,&#34;b&#34;:0.99215686321258545,&#34;a&#34;:1.0},&#34;position&#34;:0.56439012289047241},{&#34;color&#34;:{&#34;r&#34;:0.58039218187332153,&#34;g&#34;:0.31372550129890442,&#34;b&#34;:0.99215686321258545,&#34;a&#34;:1.0},&#34;position&#34;:0.69780862331390381},{&#34;color&#34;:{&#34;r&#34;:1.0,&#34;g&#34;:0.83921569585800171,&#34;b&#34;:0.20000000298023224,&#34;a&#34;:1.0},&#34;position&#34;:0.96488827466964722}],&#34;stopsVar&#34;:[{&#34;color&#34;:{&#34;r&#34;:1.0,&#34;g&#34;:0.41960784792900085,&#34;b&#34;:0.062745101749897003,&#34;a&#34;:1.0},&#34;position&#34;:0.19026148319244385},{&#34;color&#34;:{&#34;r&#34;:1.0,&#34;g&#34;:0.51010364294052124,&#34;b&#34;:0.89385569095611572,&#34;a&#34;:1.0},&#34;position&#34;:0.24241268634796143},{&#34;color&#34;:{&#34;r&#34;:0.58039218187332153,&#34;g&#34;:0.31372550129890442,&#34;b&#34;:0.99215686321258545,&#34;a&#34;:1.0},&#34;position&#34;:0.43959093093872070},{&#34;color&#34;:{&#34;r&#34;:0.0,&#34;g&#34;:0.45490196347236633,&#34;b&#34;:0.99215686321258545,&#34;a&#34;:1.0},&#34;position&#34;:0.56439012289047241},{&#34;color&#34;:{&#34;r&#34;:0.58039218187332153,&#34;g&#34;:0.31372550129890442,&#34;b&#34;:0.99215686321258545,&#34;a&#34;:1.0},&#34;position&#34;:0.69780862331390381},{&#34;color&#34;:{&#34;r&#34;:1.0,&#34;g&#34;:0.83921569585800171,&#34;b&#34;:0.20000000298023224,&#34;a&#34;:1.0},&#34;position&#34;:0.96488827466964722}],&#34;transform&#34;:{&#34;m00&#34;:-5.6270017623901367,&#34;m01&#34;:11.8781738281250,&#34;m02&#34;:14.214179039001465,&#34;m10&#34;:-12.826833724975586,&#34;m11&#34;:-5.2700734138488770,&#34;m12&#34;:26.617992401123047},&#34;opacity&#34;:1.0,&#34;blendMode&#34;:&#34;NORMAL&#34;,&#34;visible&#34;:true}"/>
<g clip-path="url(#paint3_angular_1_2339_clip_path)" data-figma-skip-parse="true"><g transform="matrix(-0.00725967 -0.00794319 0.00923641 -0.00653727 17.5548 17.9925)"><foreignObject x="-3670.81" y="-3670.81" width="7341.63" height="7341.63"><div xmlns="http://www.w3.org/1999/xhtml" style="background:conic-gradient(from 90deg,rgba(20, 203, 138, 1) 0deg,rgba(4, 204, 88, 1) 22.5512deg,rgba(255, 214, 51, 1) 58.2341deg,rgba(255, 214, 51, 1) 78.0887deg,rgba(160, 144, 172, 1) 142.439deg,rgba(97, 97, 255, 1) 180.672deg,rgba(255, 129, 227, 1) 246.749deg,rgba(3, 250, 250, 1) 267.686deg,rgba(57, 201, 255, 1) 306.698deg,rgba(20, 203, 138, 1) 360deg);height:100%;width:100%;opacity:1"></div></foreignObject></g></g><path d="M0.564875 15.5034C0.00172588 16.475 -0.120833 17.5582 0.111052 18.6132C0.342936 19.6681 0.977859 20.6009 1.89436 21.245C2.81085 21.8891 3.92059 22.1778 5.01928 22.1944C5.37815 22.1944 5.73702 22.1944 6.09037 22.1944C6.91301 22.1833 7.73013 22.1556 8.5362 22.1001C11.7108 21.7558 14.8413 20.29 17.1877 18.0024C19.5507 15.7259 21.1463 12.661 21.6487 9.47953C21.7757 8.43569 21.8751 7.38074 21.9358 6.32024C21.9579 5.96489 21.9745 5.60398 21.991 5.24308C22.0352 4.13261 21.7978 2.99993 21.1905 2.05047C20.5887 1.10102 19.6777 0.418077 18.6342 0.146011C17.5908 -0.126055 16.4795 -0.0249756 15.4912 0.508051C11.5713 2.35699 13.08 8.20249 10.1097 10.5789C7.13937 12.9553 2.11077 12.4218 0.564875 15.5034Z" data-figma-gradient-fill="{&#34;type&#34;:&#34;GRADIENT_ANGULAR&#34;,&#34;stops&#34;:[{&#34;color&#34;:{&#34;r&#34;:0.019287083297967911,&#34;g&#34;:0.80359828472137451,&#34;b&#34;:0.34845396876335144,&#34;a&#34;:1.0},&#34;position&#34;:0.062642157077789307},{&#34;color&#34;:{&#34;r&#34;:1.0,&#34;g&#34;:0.83921569585800171,&#34;b&#34;:0.20000000298023224,&#34;a&#34;:1.0},&#34;position&#34;:0.16176138818264008},{&#34;color&#34;:{&#34;r&#34;:1.0,&#34;g&#34;:0.83921569585800171,&#34;b&#34;:0.20000000298023224,&#34;a&#34;:1.0},&#34;position&#34;:0.21691308915615082},{&#34;color&#34;:{&#34;r&#34;:0.63010036945343018,&#34;g&#34;:0.56530267000198364,&#34;b&#34;:0.67759191989898682,&#34;a&#34;:1.0},&#34;position&#34;:0.39566385746002197},{&#34;color&#34;:{&#34;r&#34;:0.38039216399192810,&#34;g&#34;:0.38039216399192810,&#34;b&#34;:1.0,&#34;a&#34;:1.0},&#34;position&#34;:0.50186586380004883},{&#34;color&#34;:{&#34;r&#34;:1.0,&#34;g&#34;:0.50588238239288330,&#34;b&#34;:0.89294117689132690,&#34;a&#34;:1.0},&#34;position&#34;:0.68541431427001953},{&#34;color&#34;:{&#34;r&#34;:0.011764706112444401,&#34;g&#34;:0.98039215803146362,&#34;b&#34;:0.98039215803146362,&#34;a&#34;:1.0},&#34;position&#34;:0.74357092380523682},{&#34;color&#34;:{&#34;r&#34;:0.22616812586784363,&#34;g&#34;:0.79014730453491211,&#34;b&#34;:1.0,&#34;a&#34;:1.0},&#34;position&#34;:0.85193920135498047}],&#34;stopsVar&#34;:[{&#34;color&#34;:{&#34;r&#34;:0.019287083297967911,&#34;g&#34;:0.80359828472137451,&#34;b&#34;:0.34845396876335144,&#34;a&#34;:1.0},&#34;position&#34;:0.062642157077789307},{&#34;color&#34;:{&#34;r&#34;:1.0,&#34;g&#34;:0.83921569585800171,&#34;b&#34;:0.20000000298023224,&#34;a&#34;:1.0},&#34;position&#34;:0.16176138818264008},{&#34;color&#34;:{&#34;r&#34;:1.0,&#34;g&#34;:0.83921569585800171,&#34;b&#34;:0.20000000298023224,&#34;a&#34;:1.0},&#34;position&#34;:0.21691308915615082},{&#34;color&#34;:{&#34;r&#34;:0.63010036945343018,&#34;g&#34;:0.56530267000198364,&#34;b&#34;:0.67759191989898682,&#34;a&#34;:1.0},&#34;position&#34;:0.39566385746002197},{&#34;color&#34;:{&#34;r&#34;:0.38039216399192810,&#34;g&#34;:0.38039216399192810,&#34;b&#34;:1.0,&#34;a&#34;:1.0},&#34;position&#34;:0.50186586380004883},{&#34;color&#34;:{&#34;r&#34;:1.0,&#34;g&#34;:0.50588238239288330,&#34;b&#34;:0.89294117689132690,&#34;a&#34;:1.0},&#34;position&#34;:0.68541431427001953},{&#34;color&#34;:{&#34;r&#34;:0.011764706112444401,&#34;g&#34;:0.98039215803146362,&#34;b&#34;:0.98039215803146362,&#34;a&#34;:1.0},&#34;position&#34;:0.74357092380523682},{&#34;color&#34;:{&#34;r&#34;:0.22616812586784363,&#34;g&#34;:0.79014730453491211,&#34;b&#34;:1.0,&#34;a&#34;:1.0},&#34;position&#34;:0.85193920135498047}],&#34;transform&#34;:{&#34;m00&#34;:-14.519346237182617,&#34;m01&#34;:18.472824096679688,&#34;m02&#34;:15.578083038330078,&#34;m10&#34;:-15.886384010314941,&#34;m11&#34;:-13.074531555175781,&#34;m12&#34;:32.472923278808594},&#34;opacity&#34;:1.0,&#34;blendMode&#34;:&#34;NORMAL&#34;,&#34;visible&#34;:true}"/>
<g clip-path="url(#paint4_angular_1_2339_clip_path)" data-figma-skip-parse="true"><g transform="matrix(0.00644683 0.00120464 -0.00208018 0.00663758 18.5685 16.7569)"><foreignObject x="-3224.46" y="-3224.46" width="6448.92" height="6448.92"><div xmlns="http://www.w3.org/1999/xhtml" style="background:conic-gradient(from 90deg,rgba(250, 210, 57, 1) 0deg,rgba(255, 214, 51, 1) 4.65807deg,rgba(148, 80, 253, 1) 86.0171deg,rgba(72, 0, 255, 1) 116.533deg,rgba(3, 250, 250, 1) 142.413deg,rgba(97, 97, 255, 1) 215.412deg,rgba(250, 210, 57, 1) 360deg);height:100%;width:100%;opacity:1"></div></foreignObject></g></g><path d="M15.3042 34.576C16.265 35.1423 17.3629 35.3366 18.406 35.1034C19.4491 34.8702 20.3714 34.2317 21.0083 33.31C21.6451 32.3883 21.9306 31.2723 21.9471 30.1674C21.9471 29.8065 21.9471 29.4456 21.9471 29.0902C21.9361 28.2629 21.9086 27.4412 21.8537 26.6305C21.5133 23.4379 20.064 20.2897 17.8021 17.93C15.5513 15.5536 12.5208 13.9489 9.37507 13.4437C8.34296 13.316 7.29987 13.216 6.25129 13.1549C5.89994 13.1327 5.54309 13.1161 5.18624 13.0994C4.08825 13.055 2.96831 13.2938 2.02952 13.9045C1.09074 14.5097 0.415479 15.4259 0.146472 16.4753C-0.122536 17.5247 0.0256931 18.6573 0.552728 19.6512C2.38088 23.5934 8.11239 22.0609 10.4621 25.0481C12.8118 28.0353 12.2628 33.0324 15.3097 34.5871L15.3042 34.576Z" data-figma-gradient-fill="{&#34;type&#34;:&#34;GRADIENT_ANGULAR&#34;,&#34;stops&#34;:[{&#34;color&#34;:{&#34;r&#34;:1.0,&#34;g&#34;:0.83921569585800171,&#34;b&#34;:0.20000000298023224,&#34;a&#34;:1.0},&#34;position&#34;:0.012939095497131348},{&#34;color&#34;:{&#34;r&#34;:0.58039218187332153,&#34;g&#34;:0.31372550129890442,&#34;b&#34;:0.99215686321258545,&#34;a&#34;:1.0},&#34;position&#34;:0.23893648386001587},{&#34;color&#34;:{&#34;r&#34;:0.28333333134651184,&#34;g&#34;:0.0,&#34;b&#34;:1.0,&#34;a&#34;:1.0},&#34;position&#34;:0.32370311021804810},{&#34;color&#34;:{&#34;r&#34;:0.011764706112444401,&#34;g&#34;:0.98039215803146362,&#34;b&#34;:0.98039215803146362,&#34;a&#34;:1.0},&#34;position&#34;:0.39559286832809448},{&#34;color&#34;:{&#34;r&#34;:0.38039216399192810,&#34;g&#34;:0.38039216399192810,&#34;b&#34;:1.0,&#34;a&#34;:1.0},&#34;position&#34;:0.59836751222610474}],&#34;stopsVar&#34;:[{&#34;color&#34;:{&#34;r&#34;:1.0,&#34;g&#34;:0.83921569585800171,&#34;b&#34;:0.20000000298023224,&#34;a&#34;:1.0},&#34;position&#34;:0.012939095497131348},{&#34;color&#34;:{&#34;r&#34;:0.58039218187332153,&#34;g&#34;:0.31372550129890442,&#34;b&#34;:0.99215686321258545,&#34;a&#34;:1.0},&#34;position&#34;:0.23893648386001587},{&#34;color&#34;:{&#34;r&#34;:0.28333333134651184,&#34;g&#34;:0.0,&#34;b&#34;:1.0,&#34;a&#34;:1.0},&#34;position&#34;:0.32370311021804810},{&#34;color&#34;:{&#34;r&#34;:0.011764706112444401,&#34;g&#34;:0.98039215803146362,&#34;b&#34;:0.98039215803146362,&#34;a&#34;:1.0},&#34;position&#34;:0.39559286832809448},{&#34;color&#34;:{&#34;r&#34;:0.38039216399192810,&#34;g&#34;:0.38039216399192810,&#34;b&#34;:1.0,&#34;a&#34;:1.0},&#34;position&#34;:0.59836751222610474}],&#34;transform&#34;:{&#34;m00&#34;:12.893657684326172,&#34;m01&#34;:-4.1603698730468750,&#34;m02&#34;:14.201841354370117,&#34;m10&#34;:2.4092731475830078,&#34;m11&#34;:13.275156974792480,&#34;m12&#34;:8.9147033691406250},&#34;opacity&#34;:1.0,&#34;blendMode&#34;:&#34;NORMAL&#34;,&#34;visible&#34;:true}"/>
<g clip-path="url(#paint5_angular_1_2339_clip_path)" data-figma-skip-parse="true"><g transform="matrix(0.00951198 0.0105633 -0.00929743 0.00856357 17.2418 17.3807)"><foreignObject x="-2024.93" y="-2024.93" width="4049.86" height="4049.86"><div xmlns="http://www.w3.org/1999/xhtml" style="background:conic-gradient(from 90deg,rgba(115, 196, 240, 1) 0deg,rgba(3, 250, 250, 1) 13.7418deg,rgba(97, 97, 255, 1) 178.791deg,rgba(255, 214, 51, 1) 252.021deg,rgba(255, 107, 16, 1) 274.968deg,rgba(255, 129, 227, 1) 297.134deg,rgba(255, 129, 227, 1) 342.947deg,rgba(115, 196, 240, 1) 360deg);height:100%;width:100%;opacity:1"></div></foreignObject></g></g><path d="M19.5603 0.636971C18.5995 0.0706299 17.5015 -0.123703 16.4584 0.109496C15.4153 0.342696 14.493 0.981218 13.8562 1.90291C13.2194 2.8246 12.9339 3.94063 12.9174 5.04555C12.9174 5.40645 12.9174 5.76735 12.9174 6.12271C12.9284 6.95001 12.9558 7.77176 13.0107 8.5824C13.3511 11.775 14.8005 14.9232 17.0623 17.283C19.3132 19.6594 22.3437 21.264 25.4894 21.7693C26.5215 21.897 27.5646 21.9969 28.6132 22.058C28.9645 22.0802 29.3214 22.0969 29.6782 22.1135C30.7762 22.1579 31.8962 21.9192 32.8349 21.3084C33.7737 20.7032 34.449 19.7871 34.718 18.7377C34.987 17.6883 34.8388 16.5556 34.3117 15.5617C32.4836 11.6195 26.7521 13.152 24.4024 10.1648C22.0527 7.17766 22.6017 2.18053 19.5548 0.625866L19.5603 0.636971Z" data-figma-gradient-fill="{&#34;type&#34;:&#34;GRADIENT_ANGULAR&#34;,&#34;stops&#34;:[{&#34;color&#34;:{&#34;r&#34;:0.011764706112444401,&#34;g&#34;:0.98039215803146362,&#34;b&#34;:0.98039215803146362,&#34;a&#34;:1.0},&#34;position&#34;:0.038171753287315369},{&#34;color&#34;:{&#34;r&#34;:0.38039216399192810,&#34;g&#34;:0.38039216399192810,&#34;b&#34;:1.0,&#34;a&#34;:1.0},&#34;position&#34;:0.49664038419723511},{&#34;color&#34;:{&#34;r&#34;:1.0,&#34;g&#34;:0.83921569585800171,&#34;b&#34;:0.20000000298023224,&#34;a&#34;:1.0},&#34;position&#34;:0.70005834102630615},{&#34;color&#34;:{&#34;r&#34;:1.0,&#34;g&#34;:0.41960784792900085,&#34;b&#34;:0.062745101749897003,&#34;a&#34;:1.0},&#34;position&#34;:0.76379954814910889},{&#34;color&#34;:{&#34;r&#34;:1.0,&#34;g&#34;:0.50588238239288330,&#34;b&#34;:0.89294117689132690,&#34;a&#34;:1.0},&#34;position&#34;:0.82537221908569336},{&#34;color&#34;:{&#34;r&#34;:1.0,&#34;g&#34;:0.50588238239288330,&#34;b&#34;:0.89294117689132690,&#34;a&#34;:1.0},&#34;position&#34;:0.95263051986694336}],&#34;stopsVar&#34;:[{&#34;color&#34;:{&#34;r&#34;:0.011764706112444401,&#34;g&#34;:0.98039215803146362,&#34;b&#34;:0.98039215803146362,&#34;a&#34;:1.0},&#34;position&#34;:0.038171753287315369},{&#34;color&#34;:{&#34;r&#34;:0.38039216399192810,&#34;g&#34;:0.38039216399192810,&#34;b&#34;:1.0,&#34;a&#34;:1.0},&#34;position&#34;:0.49664038419723511},{&#34;color&#34;:{&#34;r&#34;:1.0,&#34;g&#34;:0.83921569585800171,&#34;b&#34;:0.20000000298023224,&#34;a&#34;:1.0},&#34;position&#34;:0.70005834102630615},{&#34;color&#34;:{&#34;r&#34;:1.0,&#34;g&#34;:0.41960784792900085,&#34;b&#34;:0.062745101749897003,&#34;a&#34;:1.0},&#34;position&#34;:0.76379954814910889},{&#34;color&#34;:{&#34;r&#34;:1.0,&#34;g&#34;:0.50588238239288330,&#34;b&#34;:0.89294117689132690,&#34;a&#34;:1.0},&#34;position&#34;:0.82537221908569336},{&#34;color&#34;:{&#34;r&#34;:1.0,&#34;g&#34;:0.50588238239288330,&#34;b&#34;:0.89294117689132690,&#34;a&#34;:1.0},&#34;position&#34;:0.95263051986694336}],&#34;transform&#34;:{&#34;m00&#34;:19.023969650268555,&#34;m01&#34;:-18.594858169555664,&#34;m02&#34;:17.027236938476562,&#34;m10&#34;:21.126552581787109,&#34;m11&#34;:17.127136230468750,&#34;m12&#34;:-1.7461097240447998},&#34;opacity&#34;:1.0,&#34;blendMode&#34;:&#34;NORMAL&#34;,&#34;visible&#34;:true}"/>
<g clip-path="url(#paint6_angular_1_2339_clip_path)" data-figma-skip-parse="true"><g transform="matrix(-0.00279764 -0.00641342 0.00590561 -0.00263504 17.242 17.5695)"><foreignObject x="-3452.98" y="-3452.98" width="6905.97" height="6905.97"><div xmlns="http://www.w3.org/1999/xhtml" style="background:conic-gradient(from 90deg,rgba(255, 197, 45, 1) 0deg,rgba(255, 107, 16, 1) 68.4941deg,rgba(255, 130, 227, 1) 87.2686deg,rgba(148, 80, 253, 1) 158.253deg,rgba(0, 116, 253, 1) 203.18deg,rgba(148, 80, 253, 1) 251.211deg,rgba(255, 214, 51, 1) 347.36deg,rgba(255, 197, 45, 1) 360deg);height:100%;width:100%;opacity:1"></div></foreignObject></g></g><path d="M34.3845 19.7291C34.9444 18.7574 35.1366 17.647 34.906 16.592C34.6754 15.5371 34.0441 14.6043 33.1328 13.9602C32.2214 13.3161 31.118 13.0274 30.0255 13.0107C29.6686 13.0107 29.3118 13.0107 28.9604 13.0107C28.1424 13.0218 27.3299 13.0496 26.5284 13.1051C23.3716 13.4494 20.2588 14.9152 17.9256 17.2028C15.5759 19.4792 13.9893 22.5441 13.4897 25.7257C13.3635 26.7695 13.2646 27.8244 13.2043 28.8849C13.1823 29.2403 13.1658 29.6012 13.1494 29.9621C13.1054 31.0726 13.3415 32.2053 13.9454 33.1547C14.5438 34.1042 15.4496 34.7871 16.4872 35.0592C17.5248 35.3312 18.6448 35.1813 19.6275 34.6483C23.5254 32.7994 22.0101 27.0027 24.9637 24.6263C27.9173 22.2499 32.8473 22.8107 34.3845 19.7291Z" data-figma-gradient-fill="{&#34;type&#34;:&#34;GRADIENT_ANGULAR&#34;,&#34;stops&#34;:[{&#34;color&#34;:{&#34;r&#34;:1.0,&#34;g&#34;:0.41960784792900085,&#34;b&#34;:0.062745101749897003,&#34;a&#34;:1.0},&#34;position&#34;:0.19026148319244385},{&#34;color&#34;:{&#34;r&#34;:1.0,&#34;g&#34;:0.51010364294052124,&#34;b&#34;:0.89385569095611572,&#34;a&#34;:1.0},&#34;position&#34;:0.24241268634796143},{&#34;color&#34;:{&#34;r&#34;:0.58039218187332153,&#34;g&#34;:0.31372550129890442,&#34;b&#34;:0.99215686321258545,&#34;a&#34;:1.0},&#34;position&#34;:0.43959093093872070},{&#34;color&#34;:{&#34;r&#34;:0.0,&#34;g&#34;:0.45490196347236633,&#34;b&#34;:0.99215686321258545,&#34;a&#34;:1.0},&#34;position&#34;:0.56439012289047241},{&#34;color&#34;:{&#34;r&#34;:0.58039218187332153,&#34;g&#34;:0.31372550129890442,&#34;b&#34;:0.99215686321258545,&#34;a&#34;:1.0},&#34;position&#34;:0.69780862331390381},{&#34;color&#34;:{&#34;r&#34;:1.0,&#34;g&#34;:0.83921569585800171,&#34;b&#34;:0.20000000298023224,&#34;a&#34;:1.0},&#34;position&#34;:0.96488827466964722}],&#34;stopsVar&#34;:[{&#34;color&#34;:{&#34;r&#34;:1.0,&#34;g&#34;:0.41960784792900085,&#34;b&#34;:0.062745101749897003,&#34;a&#34;:1.0},&#34;position&#34;:0.19026148319244385},{&#34;color&#34;:{&#34;r&#34;:1.0,&#34;g&#34;:0.51010364294052124,&#34;b&#34;:0.89385569095611572,&#34;a&#34;:1.0},&#34;position&#34;:0.24241268634796143},{&#34;color&#34;:{&#34;r&#34;:0.58039218187332153,&#34;g&#34;:0.31372550129890442,&#34;b&#34;:0.99215686321258545,&#34;a&#34;:1.0},&#34;position&#34;:0.43959093093872070},{&#34;color&#34;:{&#34;r&#34;:0.0,&#34;g&#34;:0.45490196347236633,&#34;b&#34;:0.99215686321258545,&#34;a&#34;:1.0},&#34;position&#34;:0.56439012289047241},{&#34;color&#34;:{&#34;r&#34;:0.58039218187332153,&#34;g&#34;:0.31372550129890442,&#34;b&#34;:0.99215686321258545,&#34;a&#34;:1.0},&#34;position&#34;:0.69780862331390381},{&#34;color&#34;:{&#34;r&#34;:1.0,&#34;g&#34;:0.83921569585800171,&#34;b&#34;:0.20000000298023224,&#34;a&#34;:1.0},&#34;position&#34;:0.96488827466964722}],&#34;transform&#34;:{&#34;m00&#34;:-5.5952835083007812,&#34;m01&#34;:11.811219215393066,&#34;m02&#34;:14.133983612060547,&#34;m10&#34;:-12.826833724975586,&#34;m11&#34;:-5.2700734138488770,&#34;m12&#34;:26.617992401123047},&#34;opacity&#34;:1.0,&#34;blendMode&#34;:&#34;NORMAL&#34;,&#34;visible&#34;:true}"/>
<g clip-path="url(#paint7_angular_1_2339_clip_path)" data-figma-skip-parse="true"><g transform="matrix(-0.00721875 -0.00794319 0.00918435 -0.00653727 17.4557 17.9925)"><foreignObject x="-3673.98" y="-3673.98" width="7347.95" height="7347.95"><div xmlns="http://www.w3.org/1999/xhtml" style="background:conic-gradient(from 90deg,rgba(20, 203, 138, 1) 0deg,rgba(4, 204, 88, 1) 22.5512deg,rgba(255, 214, 51, 1) 58.2341deg,rgba(255, 214, 51, 1) 78.0887deg,rgba(160, 144, 172, 1) 142.439deg,rgba(97, 97, 255, 1) 180.672deg,rgba(255, 129, 227, 1) 246.749deg,rgba(3, 250, 250, 1) 267.686deg,rgba(57, 201, 255, 1) 306.698deg,rgba(20, 203, 138, 1) 360deg);height:100%;width:100%;opacity:1"></div></foreignObject></g></g><path d="M0.561569 15.5034C0.00159477 16.475 -0.120274 17.5582 0.110304 18.6132C0.340882 19.6681 0.972226 20.6009 1.88356 21.245C2.79489 21.8891 3.89837 22.1778 4.99087 22.1944C5.34771 22.1944 5.70456 22.1944 6.05592 22.1944C6.87392 22.1833 7.68643 22.1556 8.48796 22.1001C11.6447 21.7558 14.7575 20.29 17.0907 18.0024C19.4404 15.7259 21.027 12.661 21.5266 9.47953C21.6529 8.43569 21.7517 7.38074 21.8121 6.32024C21.834 5.96489 21.8505 5.60398 21.867 5.24308C21.9109 4.13261 21.6748 2.99993 21.0709 2.05047C20.4725 1.10102 19.5667 0.418077 18.5291 0.146011C17.4915 -0.126055 16.3865 -0.0249756 15.4038 0.508051C11.5059 2.35699 13.0062 8.20249 10.0526 10.5789C7.09901 12.9553 2.09875 12.4218 0.561569 15.5034Z" data-figma-gradient-fill="{&#34;type&#34;:&#34;GRADIENT_ANGULAR&#34;,&#34;stops&#34;:[{&#34;color&#34;:{&#34;r&#34;:0.019287083297967911,&#34;g&#34;:0.80359828472137451,&#34;b&#34;:0.34845396876335144,&#34;a&#34;:1.0},&#34;position&#34;:0.062642157077789307},{&#34;color&#34;:{&#34;r&#34;:1.0,&#34;g&#34;:0.83921569585800171,&#34;b&#34;:0.20000000298023224,&#34;a&#34;:1.0},&#34;position&#34;:0.16176138818264008},{&#34;color&#34;:{&#34;r&#34;:1.0,&#34;g&#34;:0.83921569585800171,&#34;b&#34;:0.20000000298023224,&#34;a&#34;:1.0},&#34;position&#34;:0.21691308915615082},{&#34;color&#34;:{&#34;r&#34;:0.63010036945343018,&#34;g&#34;:0.56530267000198364,&#34;b&#34;:0.67759191989898682,&#34;a&#34;:1.0},&#34;position&#34;:0.39566385746002197},{&#34;color&#34;:{&#34;r&#34;:0.38039216399192810,&#34;g&#34;:0.38039216399192810,&#34;b&#34;:1.0,&#34;a&#34;:1.0},&#34;position&#34;:0.50186586380004883},{&#34;color&#34;:{&#34;r&#34;:1.0,&#34;g&#34;:0.50588238239288330,&#34;b&#34;:0.89294117689132690,&#34;a&#34;:1.0},&#34;position&#34;:0.68541431427001953},{&#34;color&#34;:{&#34;r&#34;:0.011764706112444401,&#34;g&#34;:0.98039215803146362,&#34;b&#34;:0.98039215803146362,&#34;a&#34;:1.0},&#34;position&#34;:0.74357092380523682},{&#34;color&#34;:{&#34;r&#34;:0.22616812586784363,&#34;g&#34;:0.79014730453491211,&#34;b&#34;:1.0,&#34;a&#34;:1.0},&#34;position&#34;:0.85193920135498047}],&#34;stopsVar&#34;:[{&#34;color&#34;:{&#34;r&#34;:0.019287083297967911,&#34;g&#34;:0.80359828472137451,&#34;b&#34;:0.34845396876335144,&#34;a&#34;:1.0},&#34;position&#34;:0.062642157077789307},{&#34;color&#34;:{&#34;r&#34;:1.0,&#34;g&#34;:0.83921569585800171,&#34;b&#34;:0.20000000298023224,&#34;a&#34;:1.0},&#34;position&#34;:0.16176138818264008},{&#34;color&#34;:{&#34;r&#34;:1.0,&#34;g&#34;:0.83921569585800171,&#34;b&#34;:0.20000000298023224,&#34;a&#34;:1.0},&#34;position&#34;:0.21691308915615082},{&#34;color&#34;:{&#34;r&#34;:0.63010036945343018,&#34;g&#34;:0.56530267000198364,&#34;b&#34;:0.67759191989898682,&#34;a&#34;:1.0},&#34;position&#34;:0.39566385746002197},{&#34;color&#34;:{&#34;r&#34;:0.38039216399192810,&#34;g&#34;:0.38039216399192810,&#34;b&#34;:1.0,&#34;a&#34;:1.0},&#34;position&#34;:0.50186586380004883},{&#34;color&#34;:{&#34;r&#34;:1.0,&#34;g&#34;:0.50588238239288330,&#34;b&#34;:0.89294117689132690,&#34;a&#34;:1.0},&#34;position&#34;:0.68541431427001953},{&#34;color&#34;:{&#34;r&#34;:0.011764706112444401,&#34;g&#34;:0.98039215803146362,&#34;b&#34;:0.98039215803146362,&#34;a&#34;:1.0},&#34;position&#34;:0.74357092380523682},{&#34;color&#34;:{&#34;r&#34;:0.22616812586784363,&#34;g&#34;:0.79014730453491211,&#34;b&#34;:1.0,&#34;a&#34;:1.0},&#34;position&#34;:0.85193920135498047}],&#34;transform&#34;:{&#34;m00&#34;:-14.437503814697266,&#34;m01&#34;:18.368696212768555,&#34;m02&#34;:15.490151405334473,&#34;m10&#34;:-15.886384010314941,&#34;m11&#34;:-13.074531555175781,&#34;m12&#34;:32.472923278808594},&#34;opacity&#34;:1.0,&#34;blendMode&#34;:&#34;NORMAL&#34;,&#34;visible&#34;:true}"/>
<defs>
<clipPath id="paint0_angular_1_2339_clip_path"><path d="M15.3911 34.576C16.3573 35.1423 17.4615 35.3366 18.5105 35.1034C19.5595 34.8702 20.487 34.2317 21.1275 33.31C21.7679 32.3883 22.055 31.2723 22.0716 30.1674C22.0716 29.8065 22.0716 29.4456 22.0716 29.0902C22.0605 28.2629 22.0329 27.4412 21.9777 26.6305C21.6354 23.4379 20.1778 20.2897 17.9032 17.93C15.6395 15.5536 12.5919 13.9489 9.42832 13.4437C8.39036 13.316 7.34135 13.216 6.28683 13.1549C5.93348 13.1327 5.57461 13.1161 5.21574 13.0994C4.11153 13.055 2.98523 13.2938 2.04113 13.9045C1.09702 14.5097 0.417932 15.4259 0.1474 16.4753C-0.123133 17.5247 0.0259364 18.6573 0.555959 19.6512C2.39448 23.5934 8.15847 22.0609 10.5215 25.0481C12.8845 28.0353 12.3324 33.0324 15.3966 34.5871L15.3911 34.576Z"/></clipPath><clipPath id="paint1_angular_1_2339_clip_path"><path d="M19.6713 0.637215C18.7051 0.0708741 17.6009 -0.123459 16.5519 0.109741C15.5029 0.34294 14.5753 0.981462 13.9349 1.90315C13.2944 2.82485 13.0073 3.94087 12.9908 5.04579C12.9908 5.4067 12.9908 5.7676 12.9908 6.12295C13.0018 6.95025 13.0294 7.772 13.0846 8.58265C13.4269 11.7753 14.8845 14.9234 17.1592 17.2832C19.4228 19.6596 22.4705 21.2642 25.634 21.7695C26.672 21.8972 27.721 21.9972 28.7755 22.0582C29.1289 22.0804 29.4877 22.0971 29.8466 22.1138C30.9508 22.1582 32.0771 21.9194 33.0212 21.3087C33.9653 20.7035 34.6444 19.7873 34.9149 18.7379C35.1855 17.6885 35.0364 16.5558 34.5064 15.562C32.6679 11.6198 26.9039 13.1522 24.5409 10.1651C22.1778 7.1779 22.7299 2.18077 19.6658 0.62611L19.6713 0.637215Z"/></clipPath><clipPath id="paint2_angular_1_2339_clip_path"><path d="M34.5795 19.7291C35.1426 18.7574 35.3358 17.647 35.104 16.592C34.8721 15.5371 34.2372 14.6043 33.3207 13.9602C32.4042 13.3161 31.2944 13.0274 30.1957 13.0107C29.8369 13.0107 29.478 13.0107 29.1246 13.0107C28.302 13.0218 27.4849 13.0496 26.6788 13.1051C23.5042 13.4494 20.3737 14.9152 18.0273 17.2028C15.6643 19.4792 14.0687 22.5441 13.5663 25.7257C13.4393 26.7695 13.3399 27.8244 13.2792 28.8849C13.2571 29.2403 13.2405 29.6012 13.224 29.9621C13.1798 31.0726 13.4172 32.2053 14.0245 33.1547C14.6263 34.1042 15.5373 34.7871 16.5808 35.0592C17.6243 35.3312 18.7506 35.1813 19.7388 34.6483C23.6588 32.7994 22.135 27.0027 25.1053 24.6263C28.0756 22.2499 33.0336 22.8107 34.5795 19.7291Z"/></clipPath><clipPath id="paint3_angular_1_2339_clip_path"><path d="M0.564875 15.5034C0.00172588 16.475 -0.120833 17.5582 0.111052 18.6132C0.342936 19.6681 0.977859 20.6009 1.89436 21.245C2.81085 21.8891 3.92059 22.1778 5.01928 22.1944C5.37815 22.1944 5.73702 22.1944 6.09037 22.1944C6.91301 22.1833 7.73013 22.1556 8.5362 22.1001C11.7108 21.7558 14.8413 20.29 17.1877 18.0024C19.5507 15.7259 21.1463 12.661 21.6487 9.47953C21.7757 8.43569 21.8751 7.38074 21.9358 6.32024C21.9579 5.96489 21.9745 5.60398 21.991 5.24308C22.0352 4.13261 21.7978 2.99993 21.1905 2.05047C20.5887 1.10102 19.6777 0.418077 18.6342 0.146011C17.5908 -0.126055 16.4795 -0.0249756 15.4912 0.508051C11.5713 2.35699 13.08 8.20249 10.1097 10.5789C7.13937 12.9553 2.11077 12.4218 0.564875 15.5034Z"/></clipPath><clipPath id="paint4_angular_1_2339_clip_path"><path d="M15.3042 34.576C16.265 35.1423 17.3629 35.3366 18.406 35.1034C19.4491 34.8702 20.3714 34.2317 21.0083 33.31C21.6451 32.3883 21.9306 31.2723 21.9471 30.1674C21.9471 29.8065 21.9471 29.4456 21.9471 29.0902C21.9361 28.2629 21.9086 27.4412 21.8537 26.6305C21.5133 23.4379 20.064 20.2897 17.8021 17.93C15.5513 15.5536 12.5208 13.9489 9.37507 13.4437C8.34296 13.316 7.29987 13.216 6.25129 13.1549C5.89994 13.1327 5.54309 13.1161 5.18624 13.0994C4.08825 13.055 2.96831 13.2938 2.02952 13.9045C1.09074 14.5097 0.415479 15.4259 0.146472 16.4753C-0.122536 17.5247 0.0256931 18.6573 0.552728 19.6512C2.38088 23.5934 8.11239 22.0609 10.4621 25.0481C12.8118 28.0353 12.2628 33.0324 15.3097 34.5871L15.3042 34.576Z"/></clipPath><clipPath id="paint5_angular_1_2339_clip_path"><path d="M19.5603 0.636971C18.5995 0.0706299 17.5015 -0.123703 16.4584 0.109496C15.4153 0.342696 14.493 0.981218 13.8562 1.90291C13.2194 2.8246 12.9339 3.94063 12.9174 5.04555C12.9174 5.40645 12.9174 5.76735 12.9174 6.12271C12.9284 6.95001 12.9558 7.77176 13.0107 8.5824C13.3511 11.775 14.8005 14.9232 17.0623 17.283C19.3132 19.6594 22.3437 21.264 25.4894 21.7693C26.5215 21.897 27.5646 21.9969 28.6132 22.058C28.9645 22.0802 29.3214 22.0969 29.6782 22.1135C30.7762 22.1579 31.8962 21.9192 32.8349 21.3084C33.7737 20.7032 34.449 19.7871 34.718 18.7377C34.987 17.6883 34.8388 16.5556 34.3117 15.5617C32.4836 11.6195 26.7521 13.152 24.4024 10.1648C22.0527 7.17766 22.6017 2.18053 19.5548 0.625866L19.5603 0.636971Z"/></clipPath><clipPath id="paint6_angular_1_2339_clip_path"><path d="M34.3845 19.7291C34.9444 18.7574 35.1366 17.647 34.906 16.592C34.6754 15.5371 34.0441 14.6043 33.1328 13.9602C32.2214 13.3161 31.118 13.0274 30.0255 13.0107C29.6686 13.0107 29.3118 13.0107 28.9604 13.0107C28.1424 13.0218 27.3299 13.0496 26.5284 13.1051C23.3716 13.4494 20.2588 14.9152 17.9256 17.2028C15.5759 19.4792 13.9893 22.5441 13.4897 25.7257C13.3635 26.7695 13.2646 27.8244 13.2043 28.8849C13.1823 29.2403 13.1658 29.6012 13.1494 29.9621C13.1054 31.0726 13.3415 32.2053 13.9454 33.1547C14.5438 34.1042 15.4496 34.7871 16.4872 35.0592C17.5248 35.3312 18.6448 35.1813 19.6275 34.6483C23.5254 32.7994 22.0101 27.0027 24.9637 24.6263C27.9173 22.2499 32.8473 22.8107 34.3845 19.7291Z"/></clipPath><clipPath id="paint7_angular_1_2339_clip_path"><path d="M0.561569 15.5034C0.00159477 16.475 -0.120274 17.5582 0.110304 18.6132C0.340882 19.6681 0.972226 20.6009 1.88356 21.245C2.79489 21.8891 3.89837 22.1778 4.99087 22.1944C5.34771 22.1944 5.70456 22.1944 6.05592 22.1944C6.87392 22.1833 7.68643 22.1556 8.48796 22.1001C11.6447 21.7558 14.7575 20.29 17.0907 18.0024C19.4404 15.7259 21.027 12.661 21.5266 9.47953C21.6529 8.43569 21.7517 7.38074 21.8121 6.32024C21.834 5.96489 21.8505 5.60398 21.867 5.24308C21.9109 4.13261 21.6748 2.99993 21.0709 2.05047C20.4725 1.10102 19.5667 0.418077 18.5291 0.146011C17.4915 -0.126055 16.3865 -0.0249756 15.4038 0.508051C11.5059 2.35699 13.0062 8.20249 10.0526 10.5789C7.09901 12.9553 2.09875 12.4218 0.561569 15.5034Z"/></clipPath></defs>
</svg>
